SplineFontDB: 3.0
FontName: gresgmodern
FullName: gresgmodern
FamilyName: gresgmodern
Weight: Normal

StartChar: .notdef
Encoding: 65536 -1 0
Width: 414
VWidth: 1010
Flags: HW
HStem: 468 8<28 386> 524 80<140.837 217.998> 632 42G<165 190> 632 42G<165 190> 996 30<134.69 223.328> 1060 6<28 386>
VStem: 20 8<476 1060> 140 78<524.006 603.948> 150 26<655.484 738.758> 250 76<852.098 982.302> 386 8<476 1060>
LayerCount: 2
Fore
SplineSet
140 566 m 0xcf60
 140 570 140 570 144 574 c 2
 170 598 l 2
 174 602 176 604 180 604 c 0
 184 604 184 602 188 598 c 2
 214 574 l 2
 218 570 218 568 218 564 c 0
 218 560 216 560 212 556 c 2
 188 530 l 2
 184 526 184 524 180 524 c 0
 176 524 174 524 170 528 c 2
 144 558 l 2
 140 562 142 562 140 566 c 0xcf60
98 964 m 1
 98 988 l 1
 110 998 122 1006 132 1010 c 0
 154 1020 178 1026 202 1026 c 0
 238 1026 270 1018 292 1002 c 0
 314 986 326 964 326 936 c 0
 326 920 322 902 312 886 c 0
 302 870 286 846 260 818 c 0
 234 790 212 770 198 752 c 0
 184 734 176 716 176 700 c 0
 176 688 180 666 190 632 c 1
 172 632 l 1
 158 666 150 690 150 708 c 0xeee0
 150 734 166 772 200 820 c 0
 234 868 250 906 250 932 c 0
 250 952 242 968 228 978 c 0
 214 988 196 996 174 996 c 0
 158 996 144 990 132 986 c 0
 122 982 110 974 98 964 c 1
28 476 m 1
 386 476 l 1
 386 1060 l 1
 28 1060 l 1
 28 476 l 1
20 468 m 1
 20 1066 l 1
 394 1066 l 1
 394 468 l 1
 20 468 l 1
EndSplineSet
EndChar

StartChar: .null
Encoding: 65537 -1 1
Width: 414
VWidth: 1010
Flags: HW
HStem: 468 8<28 386> 524 80<140.837 217.998> 632 42G<165 190> 632 42G<165 190> 996 30<134.69 223.328> 1060 6<28 386>
VStem: 20 8<476 1060> 140 78<524.006 603.948> 150 26<655.484 738.758> 250 76<852.098 982.302> 386 8<476 1060>
LayerCount: 2
Fore
SplineSet
140 566 m 0xcf60
 140 570 140 570 144 574 c 2
 170 598 l 2
 174 602 176 604 180 604 c 0
 184 604 184 602 188 598 c 2
 214 574 l 2
 218 570 218 568 218 564 c 0
 218 560 216 560 212 556 c 2
 188 530 l 2
 184 526 184 524 180 524 c 0
 176 524 174 524 170 528 c 2
 144 558 l 2
 140 562 142 562 140 566 c 0xcf60
98 964 m 1
 98 988 l 1
 110 998 122 1006 132 1010 c 0
 154 1020 178 1026 202 1026 c 0
 238 1026 270 1018 292 1002 c 0
 314 986 326 964 326 936 c 0
 326 920 322 902 312 886 c 0
 302 870 286 846 260 818 c 0
 234 790 212 770 198 752 c 0
 184 734 176 716 176 700 c 0
 176 688 180 666 190 632 c 1
 172 632 l 1
 158 666 150 690 150 708 c 0xeee0
 150 734 166 772 200 820 c 0
 234 868 250 906 250 932 c 0
 250 952 242 968 228 978 c 0
 214 988 196 996 174 996 c 0
 158 996 144 990 132 986 c 0
 122 982 110 974 98 964 c 1
28 476 m 1
 386 476 l 1
 386 1060 l 1
 28 1060 l 1
 28 476 l 1
20 468 m 1
 20 1066 l 1
 394 1066 l 1
 394 468 l 1
 20 468 l 1
EndSplineSet
EndChar

StartChar: uni0000
Encoding: 0 0 2
Width: 414
VWidth: 1010
Flags: HW
HStem: 468 8<28 386> 524 80<140.837 217.998> 632 42G<165 190> 632 42G<165 190> 996 30<134.69 223.328> 1060 6<28 386>
VStem: 20 8<476 1060> 140 78<524.006 603.948> 150 26<655.484 738.758> 250 76<852.098 982.302> 386 8<476 1060>
LayerCount: 2
Fore
SplineSet
140 566 m 0xcf60
 140 570 140 570 144 574 c 2
 170 598 l 2
 174 602 176 604 180 604 c 0
 184 604 184 602 188 598 c 2
 214 574 l 2
 218 570 218 568 218 564 c 0
 218 560 216 560 212 556 c 2
 188 530 l 2
 184 526 184 524 180 524 c 0
 176 524 174 524 170 528 c 2
 144 558 l 2
 140 562 142 562 140 566 c 0xcf60
98 964 m 1
 98 988 l 1
 110 998 122 1006 132 1010 c 0
 154 1020 178 1026 202 1026 c 0
 238 1026 270 1018 292 1002 c 0
 314 986 326 964 326 936 c 0
 326 920 322 902 312 886 c 0
 302 870 286 846 260 818 c 0
 234 790 212 770 198 752 c 0
 184 734 176 716 176 700 c 0
 176 688 180 666 190 632 c 1
 172 632 l 1
 158 666 150 690 150 708 c 0xeee0
 150 734 166 772 200 820 c 0
 234 868 250 906 250 932 c 0
 250 952 242 968 228 978 c 0
 214 988 196 996 174 996 c 0
 158 996 144 990 132 986 c 0
 122 982 110 974 98 964 c 1
28 476 m 1
 386 476 l 1
 386 1060 l 1
 28 1060 l 1
 28 476 l 1
20 468 m 1
 20 1066 l 1
 394 1066 l 1
 394 468 l 1
 20 468 l 1
EndSplineSet
EndChar

StartChar: degree
Encoding: 176 176 5
Width: 252
VWidth: 836
Flags: HW
HStem: 400 464
VStem: 20 34<552.952 710.204> 196 36<545.35 719.112>
LayerCount: 2
Fore
SplineSet
54 630 m 0
 54 572 78 524 116 486 c 0
 122 480 122 482 128 476 c 1
 134 482 128 480 134 486 c 0
 178 524 196 574 196 632 c 0
 196 690 178 740 134 778 c 0
 128 784 136 778 130 784 c 1
 124 778 122 780 116 774 c 0
 80 738 54 692 54 638 c 0
 54 634 54 634 54 630 c 0
20 630 m 0
 20 716 50 788 110 848 c 0
 120 856 120 856 130 864 c 1
 136 858 132 862 138 856 c 0
 202 796 232 720 232 634 c 0
 232 548 202 474 138 414 c 0
 132 408 130 406 124 400 c 1
 118 406 116 404 110 410 c 0
 50 470 20 544 20 630 c 0
EndSplineSet
EndChar

StartChar: paragraph
Encoding: 182 182 6
Width: 596
VWidth: 1612
Flags: HW
HStem: -2 42G<358 464> -2 42G<216 288 358 464> 846 64<231.874 323.152>
VStem: 20 188<662.232 839.056> 296 52<329.962 828.332> 520 56<572.854 764.504>
LayerCount: 2
Fore
SplineSet
20 752 m 0xbc
 20 756 20 760 20 764 c 0
 20 790 26 820 32 840 c 0
 40 864 76 890 124 898 c 0
 156 902 204 910 260 910 c 0
 284 910 308 910 336 906 c 0
 428 898 496 870 536 814 c 0
 564 778 576 738 576 694 c 0
 576 670 572 646 564 618 c 0
 540 542 520 502 500 494 c 0
 498 492 494 492 492 492 c 0
 486 492 484 496 484 504 c 0
 484 514 488 534 500 558 c 0
 512 586 520 614 520 646 c 0
 520 670 516 698 508 726 c 0
 492 790 440 830 356 846 c 1
 352 770 348 702 348 638 c 0
 348 570 352 510 356 454 c 0
 364 342 400 186 464 -2 c 1
 380 -2 l 1
 336 182 308 334 300 450 c 0
 300 474 296 502 296 526 c 0
 296 622 308 730 324 846 c 1
 236 846 l 1
 216 750 208 658 208 566 c 0
 208 518 208 474 216 426 c 0
 236 290 264 150 288 2 c 1
 236 2 l 1
 196 162 172 266 164 310 c 0
 156 354 148 406 140 462 c 0
 132 518 124 566 116 594 c 0
 108 622 72 622 52 660 c 0
 28 708 22 730 20 752 c 0xbc
EndSplineSet
EndChar

StartChar: periodcentered
Encoding: 183 183 7
AltUni2: 002219.ffffffff.0 002219.ffffffff.0 002219.ffffffff.0
Width: 208
VWidth: 838
Flags: HW
HStem: 400 498
VStem: 20 168<459.526 834.172>
LayerCount: 2
Fore
SplineSet
20 646 m 0
 20 736 44 816 92 880 c 1
 98 892 100 892 106 898 c 1
 112 892 110 888 116 882 c 0
 168 816 188 742 188 652 c 0
 188 562 168 480 116 414 c 0
 110 408 106 406 100 400 c 1
 94 406 98 408 92 414 c 0
 44 478 20 556 20 646 c 0
EndSplineSet
EndChar

StartChar: torlg1l
Encoding: 200 200 8
Width: 682
VWidth: 688
Flags: HW
HStem: -2 42G<228 254> -2 42G<228 254> 70 54<54.1904 152.361> 604 76.79<546.624 609.732>
VStem: 610 52<493.232 600.166>
LayerCount: 2
Fore
SplineSet
20 52 m 1xb8
 26 88 54 108 86 120 c 0
 94 122 100 124 108 124 c 0
 144 124 180 96 200 76 c 0
 212 64 230 56 242 58 c 0
 268 64 290 122 302 152 c 0
 324 212 332 238 352 292 c 0
 392 400 406 450 458 568 c 0
 480 618 508 658 546 674 c 0
 559.334 679.556 570.814 680.79 579.416 680.79 c 0
 586.296 680.79 591.334 680 594 680 c 0
 602 680 616 676 622 672 c 0
 630 668 646 650 650 640 c 0
 660 614 662 604 662 576 c 0
 662 568 658 532 656 522 c 0
 648 490 618 450 580 416 c 0
 566 404 544 394 534 408 c 0
 522 424 540 448 550 458 c 0
 574 486 610 502 610 568 c 0
 610 590 584 604 570 604 c 0
 562 604 552 600 548 590 c 0
 504 502 456 374 450 358 c 0
 444 338 382 166 378 156 c 0
 372 140 328 30 304 10 c 0
 292 0 260 -2 248 -2 c 0
 208 -2 166 34 136 56 c 0
 122 66 106 74 86 70 c 0
 66 66 58 60 54 50 c 0
 46 22 20 30 20 52 c 1xb8
EndSplineSet
LCarets2: 1 0 
EndChar

StartChar: e1
Encoding: 57345 57345 9
Width: 244
VWidth: 704
Flags: HW
HStem: 208 56<28.6418 191.72> 226 52<28.6418 215.718>
VStem: 20 204
LayerCount: 2
Fore
SplineSet
20 252 m 0xa0
 20 258 22 266 28 270 c 1
 42 274 36 272 78 268 c 1
 94 264 116 262 134 264 c 0xa0
 152 266 166 268 178 274 c 0
 182 276 186 278 192 278 c 0
 202 278 210 274 216 272 c 1
 220 268 220 268 224 258 c 0
 226 254 224 252 224 248 c 0
 224 238 222 232 214 226 c 0x60
 206 222 198 218 186 214 c 0
 172 210 164 210 156 208 c 1
 92 208 l 1
 80 210 64 208 52 212 c 0
 40 216 30 224 26 232 c 0
 24 236 20 244 20 252 c 0xa0
EndSplineSet
EndChar

StartChar: e2
Encoding: 57346 57346 10
Width: 606
VWidth: 934
Flags: HW
HStem: 574 64<165.245 548.214> 650 40G<72 87>
VStem: 20 566
LayerCount: 2
Fore
SplineSet
20 668 m 0
 20 678 32 684 54 688 c 0
 62 688 68 690 76 690 c 0
 98 690 124 684 148 676 c 0
 180 664 214 652 242 642 c 1
 254 640 268 638 290 638 c 0
 298 638 310 636 320 638 c 0
 356 642 392 648 428 658 c 0
 450 664 476 664 504 666 c 0
 508 666 512 666 516 666 c 0
 538 666 556 662 572 658 c 0
 580 654 586 646 586 638 c 0
 586 630 580 622 566 612 c 1
 502 586 446 576 402 574 c 0
 390 574 378 574 364 574 c 0
 328 574 284 576 236 578 c 0
 216 580 184 584 136 596 c 0
 88 608 56 620 42 632 c 0
 30 644 20 654 20 668 c 0
EndSplineSet
EndChar

StartChar: e3
Encoding: 57347 57347 11
Width: 106
VWidth: 692
Flags: HW
HStem: 80 202<36.4698 63.8124>
VStem: 20 64<82.1918 103.72 104.562 267.812> 36 48<104.562 251.72>
LayerCount: 2
Fore
SplineSet
20 252 m 0xc0
 20 258 22 264 24 268 c 0
 28 272 34 276 44 280 c 0
 50 282 52 282 56 282 c 0
 62 282 66 278 72 272 c 1
 76 264 76 254 80 242 c 0
 84 228 84 218 86 210 c 1
 84 144 l 1xc0
 80 132 84 120 80 108 c 0
 76 96 72 86 64 82 c 0
 60 80 56 80 52 80 c 0
 44 80 36 82 24 88 c 1
 22 94 22 98 22 104 c 0
 22 116 26 128 28 140 c 0
 32 156 38 174 36 192 c 0xa0
 34 210 30 224 24 236 c 0
 22 242 20 246 20 252 c 0xc0
EndSplineSet
EndChar

StartChar: la
Encoding: 57348 57348 12
Width: 230
VWidth: 798
Flags: HW
HStem: 582 268 662 42G<28.3334 81> 662 42G<28.3334 81>
VStem: 20 190
LayerCount: 2
Fore
SplineSet
20 710 m 1x50
 44 748 56 770 80 802 c 0
 98 826 100 832 120 844 c 0
 130 848 138 850 146 850 c 0
 160 850 172 844 178 842 c 0
 188 836 188 834 198 810 c 0
 204 796 210 776 210 756 c 0
 210 744 208 732 204 720 c 0
 194 684 180 652 160 632 c 0
 140 612 124 604 112 590 c 0
 106 584 102 582 98 582 c 0x90
 92 582 88 586 84 588 c 0
 76 592 74 604 80 614 c 0
 86 624 92 634 106 648 c 0
 120 662 134 672 146 684 c 0
 158 696 164 712 168 736 c 0
 172 760 162 774 148 770 c 0
 134 766 122 744 110 726 c 0
 98 708 92 692 70 662 c 1
 70 662 40 692 20 710 c 1x50
EndSplineSet
EndChar

StartChar: ld
Encoding: 57349 57349 13
Width: 286
VWidth: 802
Flags: HW
HStem: 206 54<76.155 174.26>
VStem: 22 52<280.282 302>
LayerCount: 2
Fore
SplineSet
20 280 m 0
 20 286 22 294 22 302 c 1
 74 310 l 1
 70 288 80 274 100 266 c 0
 110 262 118 260 126 260 c 0
 152 260 174 278 190 314 c 0
 212 360 236 388 258 392 c 1
 260 392 l 2
 264 392 266 386 266 378 c 0
 266 372 266 368 264 360 c 0
 260 338 248 314 232 288 c 0
 216 262 192 240 164 222 c 0
 148 212 128 206 108 206 c 0
 94 206 78 210 62 214 c 0
 34 222 20 244 20 280 c 0
EndSplineSet
EndChar

StartChar: q2
Encoding: 57350 57350 14
Width: 466
VWidth: 796
Flags: HW
HStem: 182 60<83.004 121.625 221.636 339.38>
VStem: 20 426
LayerCount: 2
Fore
SplineSet
20 254 m 0
 20 262 20 270 24 280 c 0
 32 302 44 330 60 354 c 2
 98 418 l 1
 122 416 132 410 128 392 c 0
 124 374 116 356 106 336 c 0
 96 316 88 298 80 278 c 0
 72 258 80 248 100 244 c 0
 122 238 142 236 160 244 c 1
 158 256 160 268 164 282 c 0
 172 304 184 332 200 354 c 1
 238 420 l 1
 260 418 272 410 268 392 c 0
 264 374 260 356 250 336 c 0
 240 316 230 298 222 278 c 0
 214 258 222 248 242 244 c 0
 248 242 256 242 264 242 c 0
 292 242 324 256 356 286 c 1
 446 290 l 1
 414 258 378 230 342 208 c 0
 314 192 288 182 262 182 c 0
 254 182 246 182 238 184 c 0
 216 188 200 196 190 204 c 1
 170 190 146 180 122 180 c 0
 114 180 106 182 98 184 c 0
 62 192 38 202 28 220 c 0
 22 230 20 242 20 254 c 0
EndSplineSet
EndChar

StartChar: q3
Encoding: 57351 57351 15
Width: 610
VWidth: 798
Flags: HW
HStem: 180 58<86.1528 167.531 365.638 478.25>
VStem: 20 570
LayerCount: 2
Fore
SplineSet
20 256 m 0
 20 264 22 272 24 280 c 0
 32 300 42 326 60 352 c 2
 100 418 l 1
 124 416 136 408 132 390 c 0
 128 372 116 354 106 334 c 0
 96 314 92 296 84 276 c 0
 76 256 84 246 104 242 c 0
 114 240 126 238 138 238 c 0
 148 238 158 240 168 244 c 1
 166 256 166 268 170 280 c 0
 178 302 188 330 204 354 c 2
 246 420 l 1
 270 418 280 410 276 392 c 0
 272 374 262 356 252 336 c 0
 242 316 236 298 228 278 c 0
 220 258 228 246 248 242 c 0
 270 236 288 236 306 244 c 1
 302 254 306 264 310 280 c 0
 318 302 328 328 346 354 c 1
 384 420 l 1
 406 418 418 410 414 392 c 0
 410 374 406 356 396 336 c 0
 386 316 374 298 366 278 c 0
 358 258 368 246 388 242 c 0
 396 240 402 240 410 240 c 0
 438 240 466 254 498 282 c 1
 590 290 l 1
 558 258 524 230 488 208 c 0
 462 192 436 182 410 182 c 0
 402 182 392 184 384 186 c 0
 364 190 344 196 334 204 c 1
 314 190 292 180 270 180 c 0
 262 180 254 182 246 184 c 0
 226 188 208 196 194 204 c 1
 172 188 146 180 122 180 c 0
 116 180 108 180 100 182 c 0
 64 190 40 202 30 220 c 0
 24 232 20 244 20 256 c 0
EndSplineSet
EndChar

StartChar: sr
Encoding: 57352 57352 16
Width: 292
VWidth: 1026
Flags: HW
HStem: 486 74<103.309 189.251>
VStem: 216 56<343.382 481.9>
LayerCount: 2
Fore
SplineSet
20 442 m 0
 20 446 22 450 26 456 c 0
 36 472 52 488 74 504 c 0
 96 520 120 534 146 546 c 0
 166 554 182 560 198 560 c 0
 204 560 210 558 214 558 c 0
 250 550 268 516 272 456 c 0
 272 448 272 440 272 432 c 0
 272 386 262 356 238 338 c 0
 234 334 230 334 226 334 c 0
 222 334 218 338 216 346 c 0
 212 360 210 378 208 398 c 0
 206 418 208 438 204 454 c 0
 200 470 198 480 190 482 c 0
 174 486 160 488 150 486 c 0
 140 484 128 478 112 466 c 0
 86 448 84 448 72 440 c 0
 64 436 52 432 38 432 c 1
 26 434 20 436 20 442 c 0
EndSplineSet
EndChar

StartChar: util
Encoding: 57353 57353 17
Width: 252
VWidth: 798
Flags: HW
HStem: 180 58<86.1528 201.25>
VStem: 20 112<256 396>
LayerCount: 2
Fore
SplineSet
20 256 m 0
 20 264 22 272 24 280 c 0
 32 300 42 326 60 352 c 2
 100 418 l 1
 124 416 132 408 132 396 c 0
 132 378 114 352 106 334 c 0
 96 314 92 296 84 276 c 0
 76 256 84 246 104 242 c 0
 116 240 128 238 140 238 c 0
 150 238 160 240 168 244 c 2
 224 276 l 1
 232 228 l 1
 194 204 l 2
 172 188 146 180 122 180 c 0
 116 180 108 180 100 182 c 0
 64 190 40 202 30 220 c 0
 24 232 20 244 20 256 c 0
EndSplineSet
EndChar

StartChar: orp
Encoding: 57354 57354 18
Width: 508
VWidth: 772
Flags: HW
HStem: 522 66<192.394 272.25>
VStem: 20 468
LayerCount: 2
Fore
SplineSet
20 276 m 0
 20 280 20 282 20 284 c 0
 20 296 22 302 40 346 c 1
 58 384 78 430 104 484 c 0
 130 538 164 576 212 586 c 0
 218 588 222 588 228 588 c 0
 244 588 258 582 274 568 c 0
 294 550 302 540 318 520 c 0
 334 500 346 484 364 468 c 0
 382 452 400 454 420 464 c 0
 436 472 446 476 466 482 c 0
 474 484 488 484 488 474 c 0
 488 470 486 464 480 456 c 0
 470 440 468 448 436 432 c 0
 424 426 392 412 382 412 c 0
 360 412 342 420 324 434 c 0
 308 446 292 464 272 490 c 0
 256 512 238 522 220 522 c 0
 216 522 212 522 208 520 c 0
 190 516 172 492 152 440 c 1
 90 312 l 2
 84 300 78 294 66 276 c 1
 54 262 44 254 36 254 c 0
 32 254 28 256 24 260 c 0
 22 264 20 268 20 276 c 0
EndSplineSet
EndChar

StartChar: pun_pes_ld
Encoding: 57444 57444 19
Width: 554
VWidth: 690
Flags: HW
HStem: 2 124<60.2842 136.005> 218 52<272.188 350.6>
VStem: 20 122<6.65484 120.761> 198 54<272.19 373.762>
LayerCount: 2
Fore
SplineSet
198 266 m 2
 198 266 198 266 198 268 c 0
 200 290 200 312 208 334 c 0
 216 358 216 358 224 380 c 2
 236 406 l 2
 246 428 258 426 270 408 c 0
 282 390 282 372 272 352 c 0
 262 332 256 312 252 298 c 0
 248 284 252 276 272 272 c 0
 276 272 282 270 286 270 c 0
 312 270 340 284 370 312 c 0
 406 346 440 380 468 416 c 1
 488 436 490 450 514 472 c 0
 518 476 522 480 526 480 c 0
 532 480 534 474 534 466 c 0
 534 462 534 454 532 448 c 0
 512 376 442 294 378 252 c 0
 346 230 314 218 282 218 c 1
 252 222 l 1
 218 230 198 244 198 266 c 2
20 58 m 0
 20 76 26 90 38 102 c 0
 52 116 64 124 84 126 c 0
 86 126 86 126 88 126 c 0
 106 126 124 112 138 88 c 0
 140 82 142 74 142 68 c 0
 142 56 136 42 124 26 c 0
 110 8 98 2 82 2 c 0
 76 2 66 4 60 6 c 0
 34 20 20 32 20 58 c 0
EndSplineSet
EndChar

StartChar: uniFFFC
Encoding: 65532 65532 20
Width: 414
VWidth: 1010
Flags: HW
HStem: 468 8<28 386> 524 80<140.837 217.998> 632 42G<165 190> 632 42G<165 190> 996 30<134.69 223.328> 1060 6<28 386>
VStem: 20 8<476 1060> 140 78<524.006 603.948> 150 26<655.484 738.758> 250 76<852.098 982.302> 386 8<476 1060>
LayerCount: 2
Fore
SplineSet
140 566 m 0xcf60
 140 570 140 570 144 574 c 2
 170 598 l 2
 174 602 176 604 180 604 c 0
 184 604 184 602 188 598 c 2
 214 574 l 2
 218 570 218 568 218 564 c 0
 218 560 216 560 212 556 c 2
 188 530 l 2
 184 526 184 524 180 524 c 0
 176 524 174 524 170 528 c 2
 144 558 l 2
 140 562 142 562 140 566 c 0xcf60
98 964 m 1
 98 988 l 1
 110 998 122 1006 132 1010 c 0
 154 1020 178 1026 202 1026 c 0
 238 1026 270 1018 292 1002 c 0
 314 986 326 964 326 936 c 0
 326 920 322 902 312 886 c 0
 302 870 286 846 260 818 c 0
 234 790 212 770 198 752 c 0
 184 734 176 716 176 700 c 0
 176 688 180 666 190 632 c 1
 172 632 l 1
 158 666 150 690 150 708 c 0xeee0
 150 734 166 772 200 820 c 0
 234 868 250 906 250 932 c 0
 250 952 242 968 228 978 c 0
 214 988 196 996 174 996 c 0
 158 996 144 990 132 986 c 0
 122 982 110 974 98 964 c 1
28 476 m 1
 386 476 l 1
 386 1060 l 1
 28 1060 l 1
 28 476 l 1
20 468 m 1
 20 1066 l 1
 394 1066 l 1
 394 468 l 1
 20 468 l 1
EndSplineSet
EndChar

StartChar: uniFFFD
Encoding: 65533 65533 21
Width: 414
VWidth: 1010
Flags: HW
HStem: 468 8<28 386> 524 80<140.837 217.998> 632 42G<165 190> 632 42G<165 190> 996 30<134.69 223.328> 1060 6<28 386>
VStem: 20 8<476 1060> 140 78<524.006 603.948> 150 26<655.484 738.758> 250 76<852.098 982.302> 386 8<476 1060>
LayerCount: 2
Fore
SplineSet
140 566 m 0xcf60
 140 570 140 570 144 574 c 2
 170 598 l 2
 174 602 176 604 180 604 c 0
 184 604 184 602 188 598 c 2
 214 574 l 2
 218 570 218 568 218 564 c 0
 218 560 216 560 212 556 c 2
 188 530 l 2
 184 526 184 524 180 524 c 0
 176 524 174 524 170 528 c 2
 144 558 l 2
 140 562 142 562 140 566 c 0xcf60
98 964 m 1
 98 988 l 1
 110 998 122 1006 132 1010 c 0
 154 1020 178 1026 202 1026 c 0
 238 1026 270 1018 292 1002 c 0
 314 986 326 964 326 936 c 0
 326 920 322 902 312 886 c 0
 302 870 286 846 260 818 c 0
 234 790 212 770 198 752 c 0
 184 734 176 716 176 700 c 0
 176 688 180 666 190 632 c 1
 172 632 l 1
 158 666 150 690 150 708 c 0xeee0
 150 734 166 772 200 820 c 0
 234 868 250 906 250 932 c 0
 250 952 242 968 228 978 c 0
 214 988 196 996 174 996 c 0
 158 996 144 990 132 986 c 0
 122 982 110 974 98 964 c 1
28 476 m 1
 386 476 l 1
 386 1060 l 1
 28 1060 l 1
 28 476 l 1
20 468 m 1
 20 1066 l 1
 394 1066 l 1
 394 468 l 1
 20 468 l 1
EndSplineSet
EndChar

StartChar: clB
Encoding: 58368 58368 22
Width: 692
VWidth: 606
Flags: HW
HStem: 0 42G<57 63> 0 42G<57 63> 56 62<431.988 549.848> 484 88<338.834 515.326>
VStem: 20 56<2.19482 104.633> 356 62<131.761 255.842> 592 80<152.716 390.764>
LayerCount: 2
Fore
SplineSet
20 44 m 0xbe
 20 64 26 90 38 122 c 0
 64 194 108 272 164 352 c 0
 220 432 282 492 346 534 c 0
 386 560 422 572 456 572 c 0
 478 572 500 568 520 558 c 0
 560 538 592 508 618 466 c 0
 644 424 660 380 668 332 c 0
 670 318 672 304 672 290 c 0
 672 256 666 224 654 194 c 0
 638 150 610 118 564 94 c 0
 520 70 484 56 456 56 c 0
 444 56 432 60 422 64 c 0
 388 80 368 106 360 138 c 0
 358 150 356 162 356 172 c 0
 356 192 360 210 370 230 c 0
 386 262 406 280 440 280 c 0
 468 280 470 274 450 260 c 0
 430 246 418 226 418 202 c 0
 418 156 438 128 478 120 c 0
 484 118 490 118 496 118 c 0
 528 118 556 136 574 172 c 0
 586 192 592 216 592 244 c 0
 592 252 590 260 590 268 c 0
 586 308 576 348 558 382 c 0
 540 416 516 444 488 464 c 0
 470 476 452 484 430 484 c 0
 418 484 402 480 388 474 c 0
 332 454 284 416 238 360 c 0
 192 304 158 248 138 196 c 0
 126 170 120 148 112 128 c 0
 100 96 102 96 92 70 c 0
 84 52 80 36 76 20 c 0
 72 8 68 0 58 0 c 0
 56 0 52 2 48 2 c 0
 30 6 20 20 20 44 c 0xbe
EndSplineSet
EndChar

StartChar: clNB
Encoding: 58369 58369 23
Width: 720
VWidth: 608
Flags: HW
HStem: 0 42G<57 63> 0 42G<57 63> 56 62<431.988 549.848> 484 92<344.956 515.094> 562 40G<618 649>
VStem: 20 56<2.19482 104.633> 356 62<131.761 255.842> 592 80<152.716 390.764>
LayerCount: 2
Fore
SplineSet
20 44 m 0xb7
 20 64 26 90 38 122 c 0
 64 194 108 272 164 352 c 0
 220 432 282 492 346 534 c 1
 336 536 326 540 314 542 c 0
 272 552 246 562 234 572 c 0
 224 582 216 592 216 604 c 0
 216 612 224 616 244 620 c 0
 250 620 258 622 264 622 c 0
 282 622 304 616 324 610 c 0
 352 600 382 588 406 580 c 0
 416 578 428 576 446 576 c 0
 452 576 464 574 472 576 c 0xb7
 502 580 534 586 564 594 c 0
 582 600 606 600 630 602 c 0
 634 602 636 602 640 602 c 0x2f
 658 602 674 598 688 594 c 0
 696 590 700 584 700 578 c 0
 700 572 694 564 682 556 c 1
 640 538 600 530 568 526 c 1
 586 510 604 490 618 466 c 0
 644 424 660 380 668 332 c 0
 670 318 672 304 672 290 c 0
 672 256 666 224 654 194 c 0
 638 150 610 118 564 94 c 0
 520 70 484 56 456 56 c 0
 444 56 432 60 422 64 c 0
 388 80 368 106 360 138 c 0
 358 150 356 162 356 172 c 0
 356 192 360 210 370 230 c 0
 386 262 406 280 440 280 c 0
 468 280 470 274 450 260 c 0
 430 246 418 226 418 202 c 0
 418 156 438 128 478 120 c 0
 484 118 490 118 496 118 c 0
 528 118 556 136 574 172 c 0
 586 192 592 216 592 244 c 0
 592 252 590 260 590 268 c 0
 586 308 576 348 558 382 c 0
 540 416 516 444 488 464 c 0
 470 476 452 484 430 484 c 0
 418 484 402 480 388 474 c 0
 332 454 284 416 238 360 c 0
 192 304 158 248 138 196 c 0
 126 170 120 148 112 128 c 0
 100 96 102 96 92 70 c 0
 84 52 80 36 76 20 c 0
 72 8 68 0 58 0 c 0
 56 0 52 2 48 2 c 0
 30 6 20 20 20 44 c 0xb7
EndSplineSet
EndChar

StartChar: bv
Encoding: 58370 58370 24
Width: 548
VWidth: 610
Flags: HW
HStem: -2 566
VStem: 20 508
LayerCount: 2
Fore
SplineSet
198 16 m 2
 198 18 l 2
 198 40 218 84 254 148 c 0
 306 244 300 228 332 290 c 0
 354 334 382 380 394 406 c 0
 406 432 418 458 432 484 c 0
 446 510 448 514 464 534 c 0
 480 554 492 564 506 564 c 2
 508 564 l 2
 520 564 528 554 528 542 c 0
 528 536 528 534 522 520 c 0
 512 500 508 490 492 454 c 1
 464 406 468 402 402 290 c 0
 336 178 336 178 300 114 c 1
 272 70 254 38 232 14 c 0
 220 2 214 -2 208 -2 c 0
 202 -2 198 4 198 16 c 2
20 16 m 2
 20 18 l 2
 20 40 40 84 76 148 c 0
 128 244 122 228 154 290 c 0
 176 334 204 380 216 406 c 0
 228 432 240 458 254 484 c 0
 268 510 270 514 286 534 c 0
 302 554 314 564 328 564 c 2
 330 564 l 2
 342 564 350 554 350 542 c 0
 350 536 350 534 344 520 c 0
 334 500 330 490 314 454 c 1
 286 406 290 402 224 290 c 0
 158 178 158 178 122 114 c 1
 94 70 76 38 54 14 c 0
 42 2 36 -2 30 -2 c 0
 24 -2 20 4 20 16 c 2
EndSplineSet
EndChar

StartChar: bvN
Encoding: 58371 58371 25
Width: 682
VWidth: 756
Flags: HW
HStem: -2 42G<27 33 267 273> -2 42G<27 33 267 273> 582 40G<246 261 486 501> 582 40G<246 261 486 501>
VStem: 20 642
LayerCount: 2
Fore
SplineSet
260 16 m 2xa8
 260 18 l 2
 260 40 280 84 316 148 c 0
 368 244 362 228 394 290 c 0
 436 372 484 452 500 480 c 0
 512 500 518 516 530 534 c 1
 528 536 l 1
 508 548 470 564 470 592 c 0
 470 602 478 620 494 622 c 1
 508 618 500 620 536 596 c 1
 556 576 598 552 630 548 c 0
 650 546 666 532 662 512 c 1
 656 498 648 494 634 494 c 0
 618 496 590 504 578 508 c 1
 572 494 566 482 554 454 c 1
 526 406 530 402 464 290 c 0
 398 178 398 178 362 114 c 1
 334 70 316 38 294 14 c 0
 282 2 276 -2 270 -2 c 0
 264 -2 260 4 260 16 c 2xa8
20 16 m 2
 20 18 l 2
 20 40 40 84 76 148 c 0
 128 244 122 228 154 290 c 0
 196 372 244 452 260 480 c 0
 272 500 278 516 290 534 c 1
 288 536 l 1
 268 548 230 564 230 592 c 0
 230 602 238 620 254 622 c 1
 268 618 260 620 296 596 c 1
 316 576 358 552 390 548 c 0
 410 546 426 532 422 512 c 1
 416 498 408 494 394 494 c 0
 378 496 350 504 338 508 c 1
 332 494 326 482 314 454 c 1
 286 406 290 402 224 290 c 0
 158 178 158 178 122 114 c 1
 94 70 76 38 54 14 c 0
 42 2 36 -2 30 -2 c 0
 24 -2 20 4 20 16 c 2
EndSplineSet
EndChar

StartChar: bvB
Encoding: 58372 58372 26
Width: 628
VWidth: 610
Flags: W
HStem: 325.742 40<483.498 536.455> 494 54<338.574 421.254>
VStem: 561.152 47.708<389.345 500.742>
LayerCount: 2
Fore
SplineSet
20 16 m 2
 20 18 l 2
 20 40 40 84 76 148 c 1
 128 244 122 228 154 290 c 0
 196 372 244 452 260 480 c 0
 272 500 278 516 290 534 c 1
 288 536 l 1
 268 548 230 564 230 592 c 0
 230 602 238 620 254 622 c 1
 268 618 260 620 296 596 c 1
 316 576 358 552 390 548 c 0
 410 546 426 532 422 512 c 1
 416 498 408 494 394 494 c 1
 378 496 350 504 338 508 c 1
 332 494 326 482 314 454 c 1
 286 406 290 402 224 290 c 0
 158 178 158 178 122 114 c 1
 94 70 76 38 54 14 c 0
 42 2 36 -2 30 -2 c 0
 24 -2 20 4 20 16 c 2
204.852 15.7422 m 6
 204.852 17.7422 l 6
 204.852 39.7422 218.852 83.7422 254.852 147.742 c 4
 306.852 243.742 300.258 227.738 332.258 289.738 c 4
 354.258 333.738 358.852 335.742 370.852 361.742 c 4
 386.852 395.742 406.852 433.742 426.852 469.742 c 4
 450.852 513.74 478.852 553.74 514.86 563.74 c 4
 520.86 565.74 528.86 565.74 532.86 565.74 c 4
 542.86 565.74 560.86 563.74 568.86 559.74 c 4
 584.86 551.74 590.86 545.74 594.86 537.74 c 4
 600.86 525.74 608.86 511.742 608.86 489.742 c 4
 608.86 477.742 606.86 455.742 604.86 443.742 c 4
 598.86 413.742 594.86 393.742 574.86 361.742 c 4
 564.86 345.742 542.86 335.742 530.86 329.742 c 4
 510.855 319.742 490.852 319.742 478.852 325.742 c 5
 460.852 339.742 482.852 365.742 498.852 365.742 c 4
 525.48 365.742 561.152 400.102 561.152 455.062 c 4
 561.152 478.822 539.082 492.854 516.86 481.742 c 4
 494.852 469.742 484.852 435.742 464.852 399.742 c 4
 420.852 315.742 414.852 309.742 400.852 285.742 c 6
 310.852 113.742 l 6
 286.852 69.7422 262.852 37.7422 240.852 13.7422 c 4
 228.852 1.74219 220.852 -2.25781 214.852 -2.25781 c 4
 208.852 -2.25781 204.852 3.74219 204.852 15.7422 c 6
EndSplineSet
EndChar

StartChar: ciG
Encoding: 58373 58373 27
Width: 868
VWidth: 620
Flags: HW
HStem: 20 74<568.658 831.054> 22 58<571.91 713.106 742.334 845.164> 206 66<516.124 695.058> 224 42<621.404 699.144> 524 84<299.742 441.15>
VStem: 20 52<26.1948 146.141> 466 62<266 466.22>
LayerCount: 2
Fore
SplineSet
564 66 m 0x4e
 564 72 572 76 582 80 c 0x4e
 608 88 654 92 716 94 c 0
 724 94 732 94 740 94 c 0
 790 94 826 90 848 86 c 1
 848 82 848 76 848 72 c 0
 848 52 842 38 832 32 c 0
 812 22 780 20 732 20 c 0x8e
 684 20 636 20 588 22 c 1
 578 38 570 54 566 62 c 0
 566 64 564 64 564 66 c 0x4e
20 70 m 0
 20 92 26 120 36 154 c 0
 60 230 98 310 150 394 c 0
 202 478 258 536 316 580 c 0
 344 602 376 608 402 608 c 0
 428 608 450 602 458 594 c 1
 470 586 494 578 506 536 c 0
 516 498 528 456 528 400 c 0
 528 394 528 386 528 378 c 0
 524 340 520 302 516 266 c 1x1e
 556 270 590 272 620 272 c 0x2e
 650 272 676 270 696 266 c 1
 698 250 700 242 700 238 c 0
 700 234 694 228 684 224 c 0x1e
 670 218 638 214 586 210 c 0
 560 208 540 206 524 206 c 0x2e
 508 206 496 208 492 210 c 0
 464 220 452 230 456 246 c 0
 460 262 460 284 464 312 c 0
 466 328 466 342 466 356 c 0
 466 394 460 430 448 468 c 0
 434 506 406 524 380 524 c 0
 376 524 372 522 368 522 c 0
 310 504 260 462 218 402 c 0
 176 342 148 286 128 232 c 0
 118 204 110 182 102 160 c 0
 92 126 92 126 84 98 c 0
 80 80 76 62 72 46 c 0
 68 32 64 24 52 24 c 0
 50 24 46 26 44 26 c 0
 28 30 20 44 20 70 c 0
EndSplineSet
EndChar

StartChar: clM
Encoding: 58374 58374 28
Width: 522
VWidth: 592
Flags: HW
HStem: 596 96<285.048 416.316>
VStem: 432 70<294.138 577.134>
LayerCount: 2
Fore
SplineSet
20 196 m 0
 20 216 26 242 36 276 c 0
 60 354 72 372 116 456 c 1
 182 562 272 644 308 666 c 0
 324 676 376 692 402 692 c 0
 404 692 406 692 408 692 c 0
 434 686 454 678 468 666 c 0
 478 656 494 614 500 576 c 0
 502 568 502 556 502 540 c 0
 502 492 494 414 488 374 c 0
 484 348 452 236 430 168 c 0
 396 66 378 22 346 -48 c 0
 324 -96 316 -112 306 -126 c 0
 300 -134 294 -136 286 -136 c 0
 280 -136 274 -134 272 -132 c 0
 266 -126 264 -120 264 -114 c 0
 264 -102 272 -86 282 -62 c 0
 298 -24 330 48 364 146 c 0
 396 240 410 298 428 380 c 1
 430 408 432 430 432 454 c 0
 432 478 430 504 424 532 c 0
 414 578 376 596 346 596 c 0
 336 596 328 596 322 592 c 0
 290 572 238 540 184 452 c 0
 148 392 142 380 122 336 c 0
 104 294 92 252 82 210 c 0
 72 172 62 152 50 152 c 0
 48 152 48 152 46 152 c 0
 30 156 20 170 20 196 c 0
EndSplineSet
EndChar

StartChar: clMN
Encoding: 58375 58375 29
Width: 690
VWidth: 592
Flags: HW
HStem: 596 100<285.898 414.702> 660 36<286 376> 662 76<218.282 295.814>
VStem: 432 70<294.138 575.174>
LayerCount: 2
Fore
SplineSet
20 196 m 4x90
 20 216 26 242 36 276 c 4
 54 336 66 360 90 406 c 4
 96 420 104 436 114 454 c 4
 174 552 256 632 296 660 c 5x50
 292 660 290 662 286 662 c 4
 246 672 218 680 206 690 c 4
 196 700 190 708 188 718 c 4
 186 728 198 732 218 736 c 4
 224 736 230 738 236 738 c 4x30
 256 738 276 734 296 726 c 4
 324 716 352 708 376 700 c 4
 386 698 400 696 418 696 c 4x50
 426 696 434 696 442 698 c 4
 472 702 504 706 534 714 c 4
 552 720 576 720 600 722 c 4
 604 722 604 722 608 722 c 4
 628 722 644 718 658 716 c 5
 666 712 670 706 670 700 c 4
 670 692 664 686 652 678 c 5
 598 656 550 648 512 646 c 4
 502 646 492 646 480 646 c 5
 482 640 486 632 488 624 c 4
 492 610 498 592 500 576 c 4
 502 568 502 556 502 540 c 6
 502 538 502 534 502 532 c 4
 502 484 494 412 488 374 c 4
 484 348 452 236 430 168 c 4
 396 66 378 22 346 -48 c 4
 324 -96 316 -112 306 -126 c 4
 300 -134 294 -136 286 -136 c 4
 280 -136 274 -134 272 -132 c 4
 266 -126 264 -120 264 -114 c 4
 264 -102 272 -86 282 -62 c 4
 298 -24 330 48 364 146 c 4
 396 240 410 298 428 380 c 5
 430 408 432 430 432 454 c 4
 432 466 432 480 430 492 c 4
 428 504 426 518 422 532 c 4
 412 576 376 596 346 596 c 4
 336 596 328 594 320 590 c 4
 294 574 256 548 210 490 c 4
 202 478 192 466 184 452 c 4
 148 392 142 380 122 336 c 4
 104 294 92 252 82 210 c 4
 72 172 62 152 50 152 c 4
 48 152 48 152 46 152 c 4
 30 156 20 170 20 196 c 4x90
EndSplineSet
EndChar

StartChar: pfB
Encoding: 58378 58378 30
Width: 1162
VWidth: 688
Flags: HW
HStem: -2 42G<379 395> -2 42G<379 395> 106 60<887.616 1015.93> 518 96<297.084 388> 552 96<797.568 986.99>
VStem: 316 60<61.8912 230.22> 378 64<282.418 517.77> 804 68<180.517 314.906> 1056 86<199.503 474.196>
LayerCount: 2
Fore
SplineSet
20 40 m 0x7780
 20 62 28 96 44 144 c 0
 72 226 116 312 166 396 c 0
 216 480 264 544 312 584 c 0
 336 604 358 614 378 614 c 0x7780
 398 614 414 604 428 586 c 0
 434 578 442 554 442 516 c 0
 442 510 440 504 440 498 c 0
 438 450 430 392 418 320 c 0
 414 292 406 264 398 236 c 0
 390 208 384 180 380 152 c 0
 376 134 376 118 376 106 c 0
 376 94 376 84 380 76 c 0
 386 60 394 56 402 64 c 1
 410 68 420 82 432 104 c 0
 444 126 452 146 456 158 c 0
 472 200 500 254 538 320 c 0
 576 386 620 446 672 500 c 0
 724 554 780 600 838 628 c 0
 866 642 894 648 920 648 c 0
 948 648 976 640 1004 624 c 0
 1042 602 1076 566 1100 522 c 0
 1124 478 1138 426 1142 376 c 0
 1142 366 1142 358 1142 348 c 0
 1142 308 1136 270 1120 234 c 0
 1100 190 1064 156 1016 134 c 0
 974 116 938 106 910 106 c 0
 892 106 876 110 864 116 c 0
 830 134 814 162 806 196 c 0
 804 206 804 214 804 224 c 0
 804 246 810 270 822 294 c 0
 838 324 858 340 888 340 c 0
 892 340 894 340 898 340 c 0
 930 336 932 330 910 318 c 0
 888 306 874 286 872 260 c 0
 872 256 872 252 872 248 c 0
 872 208 890 180 928 170 c 0
 938 168 946 166 954 166 c 0
 984 166 1010 184 1032 216 c 0
 1046 238 1056 268 1056 306 c 0
 1056 310 1056 312 1056 316 c 0
 1054 358 1048 400 1032 438 c 0
 1016 476 994 506 966 528 c 0
 946 544 926 552 900 552 c 0
 888 552 876 550 862 546 c 0
 772 518 698 466 644 386 c 0
 590 306 546 224 510 144 c 0
 500 124 480 92 448 46 c 0
 426 14 406 -2 384 -2 c 0xaf80
 374 -2 362 2 352 8 c 0
 328 24 316 48 316 80 c 0
 316 92 316 106 320 120 c 0
 338 200 340 200 352 260 c 0
 364 320 372 378 376 440 c 0
 376 450 378 458 378 466 c 0
 378 500 370 518 356 518 c 0
 352 518 348 518 344 516 c 0
 304 500 266 458 228 392 c 0
 190 326 156 264 134 208 c 0
 112 150 94 100 82 56 c 0
 72 22 60 4 46 4 c 0
 42 4 36 6 32 8 c 0
 24 12 20 24 20 40 c 0x7780
EndSplineSet
EndChar

StartChar: pf
Encoding: 58379 58379 31
Width: 814
VWidth: 686
Flags: HW
HStem: 2 42G<44 53> 38 82<396 452.444> 466 66<665.758 725.684> 514 98<305.218 391>
VStem: 20 62<6.19334 146.999> 330 72<120.684 452.83> 364 76<182.376 513.976> 730 64<184.865 465.094>
LayerCount: 2
Fore
SplineSet
20 38 m 0x4b
 20 62 28 98 44 146 c 0
 72 228 116 312 166 396 c 0
 216 480 264 544 312 582 c 0
 338 602 362 612 382 612 c 0
 400 612 414 604 428 586 c 0
 434 578 440 554 440 516 c 0
 440 510 440 504 440 498 c 0x5b
 436 412 414 278 404 208 c 0
 402 200 402 190 402 182 c 0
 402 158 408 142 412 132 c 0
 416 122 420 120 424 120 c 0
 438 120 452 158 460 180 c 1
 508 282 l 2
 542 356 556 382 586 426 c 0
 616 470 672 532 724 532 c 0
 742 532 760 524 776 504 c 0
 784 494 790 470 794 428 c 0
 794 422 794 416 794 408 c 0
 794 368 786 318 776 256 c 0
 764 184 748 120 728 60 c 0
 708 0 692 -30 672 -34 c 0
 670 -34 672 -34 670 -34 c 0
 662 -34 656 -26 656 -12 c 0
 656 0 660 18 666 38 c 0
 682 86 698 136 710 196 c 0
 722 256 726 314 730 382 c 0
 730 386 730 392 730 396 c 0
 730 444 714 466 694 466 c 0
 690 466 684 466 680 464 c 0
 660 456 636 420 620 392 c 0
 604 364 586 318 568 290 c 1
 510 172 l 1
 496 136 476 102 450 68 c 0
 434 48 420 38 402 38 c 0x6d
 390 38 378 42 364 50 c 0x6b
 338 66 330 92 330 128 c 0x6d
 330 140 330 150 332 164 c 0
 340 234 364 318 364 448 c 0
 364 482 350 514 328 514 c 0
 324 514 318 512 314 510 c 0
 270 486 266 456 228 390 c 0
 164 280 114 174 82 54 c 0
 72 20 60 2 46 2 c 0x9b
 42 2 36 4 32 6 c 0
 24 10 20 22 20 38 c 0x4b
EndSplineSet
EndChar

StartChar: pfM
Encoding: 58380 58380 32
Width: 832
VWidth: 686
Flags: HW
HStem: 228 86<396 453.544> 614 88<609.506 720.336> 674 90<265.264 377>
VStem: 20 62<196.193 332.032> 330 72<314.654 602.052> 356 76<372.376 673.776> 740 72<306.108 591.164>
LayerCount: 2
Fore
SplineSet
20 228 m 0xb6
 20 252 28 288 44 336 c 0
 72 418 102 484 152 568 c 0
 202 656 248 718 294 740 c 1
 314 752 342 764 368 764 c 0
 386 764 402 758 414 742 c 0
 422 732 432 710 432 668 c 0
 432 666 432 662 432 658 c 0xb6
 428 572 414 468 404 398 c 0
 404 388 402 380 402 372 c 0
 402 350 408 332 412 322 c 0
 414 316 418 314 422 314 c 0
 440 314 474 402 482 426 c 2
 526 542 l 1
 560 616 568 634 616 674 c 0xba
 640 694 676 702 700 702 c 0xda
 706 702 712 700 716 700 c 0
 742 694 762 686 776 674 c 0xba
 786 664 802 622 808 584 c 0
 810 576 812 564 812 548 c 0
 812 500 802 422 796 382 c 0
 792 356 760 244 738 176 c 0
 704 74 686 30 654 -40 c 0
 636 -82 614 -134 592 -134 c 0
 588 -134 584 -134 580 -130 c 0
 562 -114 566 -102 580 -74 c 0
 612 -12 638 56 672 154 c 0
 704 248 718 306 736 388 c 1
 738 416 740 438 740 462 c 0
 740 486 738 512 732 540 c 0
 724 582 688 614 658 614 c 0
 648 614 638 610 630 600 c 0
 598 560 582 528 568 492 c 2
 510 362 l 1
 486 302 476 292 450 258 c 0
 434 238 418 228 402 228 c 0
 390 228 378 232 364 240 c 0
 338 256 330 282 330 318 c 0xda
 330 328 332 340 332 354 c 0
 340 424 356 480 356 608 c 0
 356 642 340 674 320 674 c 0
 316 674 310 674 306 670 c 0
 268 642 250 618 216 550 c 0
 178 476 114 364 82 244 c 0
 74 210 60 192 46 192 c 0
 40 192 36 194 32 196 c 0
 24 200 20 212 20 228 c 0xb6
EndSplineSet
EndChar

StartChar: pfMN
Encoding: 58381 58381 33
Width: 1000
VWidth: 686
Flags: HW
HStem: 228 86<396 453.544> 674 90<265.264 377> 683 38<918.934 979.644> 695 46<499.546 545.718>
VStem: 20 62<196.193 332.032> 330 72<314.654 602.052> 356 76<372.376 673.776> 740 72<306.108 591.492>
LayerCount: 2
Fore
SplineSet
20 228 m 0xcb
 20 252 28 288 44 336 c 0
 72 418 102 484 152 568 c 0
 202 656 248 718 294 740 c 1
 314 752 342 764 368 764 c 0
 386 764 402 758 414 742 c 0
 422 732 432 710 432 668 c 0
 432 666 432 662 432 658 c 0xcb
 428 572 414 468 404 398 c 0
 404 388 402 380 402 372 c 0
 402 350 408 332 412 322 c 0
 414 316 418 314 422 314 c 0
 440 314 474 402 482 426 c 2
 526 542 l 1
 557.152 609.8 566.476 630.59 604.738 664.362 c 1
 600.57 665.64 597.214 666.696 596 667 c 0
 556 677 528 685 516 695 c 0
 506 705 500 713 498 723 c 0
 496 733 508 737 528 741 c 0x9d
 534 741 540 743 546 743 c 0
 566 743 586 739 606 731 c 0
 634 721 662 713 686 705 c 0
 696 703 710 701 728 701 c 0
 736 701 744 701 752 703 c 0
 782 707 814 711 844 719 c 0
 862 725 886 725 910 727 c 0
 914 727 914 727 918 727 c 0
 938 727 954 723 968 721 c 1
 976 717 980 711 980 705 c 0
 980 697 974 691 962 683 c 1
 908 661 860 653 822 651 c 0
 812.172 651 801.114 650.21 789.344 650.182 c 1
 796.864 632.168 804.316 607.33 808 584 c 0
 810 576 812 564 812 548 c 0
 812 500 802 422 796 382 c 0
 792 356 760 244 738 176 c 0
 704 74 686 30 654 -40 c 0
 636 -82 614 -134 592 -134 c 0
 588 -134 584 -134 580 -130 c 0
 562 -114 566 -102 580 -74 c 0
 612 -12 638 56 672 154 c 0
 704 248 718 306 736 388 c 1
 738 416 740 438 740 462 c 0
 740 486 738 512 732 540 c 0
 724 582 688 614 658 614 c 0
 648 614 638 610 630 600 c 0
 598 560 582 528 568 492 c 2
 510 362 l 1
 486 302 476 292 450 258 c 0
 434 238 418 228 402 228 c 0
 390 228 378 232 364 240 c 0
 338 256 330 282 330 318 c 0xad
 330 328 332 340 332 354 c 0
 340 424 356 480 356 608 c 0
 356 642 340 674 320 674 c 0
 316 674 310 674 306 670 c 0
 268 642 250 618 216 550 c 0
 178 476 114 364 82 244 c 0
 74 210 60 192 46 192 c 0
 40 192 36 194 32 196 c 0
 24 200 20 212 20 228 c 0xcb
EndSplineSet
EndChar

StartChar: pfMsut1
Encoding: 58382 58382 34
Width: 840
VWidth: 686
Flags: HW
HStem: -140 66<637.87 815.058> -122 42<741.404 819.144> 228 86<396 453.544> 614 88<609.506 720.336> 674 90<265.264 377>
VStem: 20 62<196.193 332.032> 330 72<314.654 602.052> 356 76<372.376 673.776> 740 72<306.108 591.164>
LayerCount: 2
Fore
SplineSet
20 228 m 0x2d80
 20 252 28 288 44 336 c 0
 72 418 102 484 152 568 c 0
 202 656 248 718 294 740 c 1
 314 752 342 764 368 764 c 0
 386 764 402 758 414 742 c 0
 422 732 432 710 432 668 c 0
 432 666 432 662 432 658 c 0x2d80
 428 572 414 468 404 398 c 0
 404 388 402 380 402 372 c 0
 402 350 408 332 412 322 c 0
 414 316 418 314 422 314 c 0
 440 314 474 402 482 426 c 2
 526 542 l 1
 560 616 568 634 616 674 c 0x2e80
 640 694 676 702 700 702 c 0x3680
 706 702 712 700 716 700 c 0
 742 694 762 686 776 674 c 0
 786 664 802 622 808 584 c 0
 810 576 812 564 812 548 c 0
 812 500 802 422 796 382 c 0
 792 356 760 244 738 176 c 0
 704 74 686 30 654 -40 c 0
 648 -54 642 -68 636 -80 c 1x6e80
 676 -76 710 -74 740 -74 c 0xa680
 770 -74 796 -76 816 -80 c 1
 818 -96 820 -104 820 -108 c 0
 820 -112 814 -118 804 -122 c 0x6680
 790 -128 758 -132 706 -136 c 0
 680 -138 660 -140 644 -140 c 0xa680
 628 -140 620 -140 610 -138 c 0
 602 -136 592 -132 584 -128 c 0
 582 -128 580 -128 578 -126 c 0
 576 -124 576 -124 574 -122 c 0x6680
 562 -110 568 -98 580 -74 c 0
 612 -12 638 56 672 154 c 0
 704 248 718 306 736 388 c 1
 738 416 740 438 740 462 c 0
 740 486 738 512 732 540 c 0
 724 582 688 614 658 614 c 0
 648 614 638 610 630 600 c 0
 598 560 582 528 568 492 c 2
 510 362 l 1
 486 302 476 292 450 258 c 0
 434 238 418 228 402 228 c 0
 390 228 378 232 364 240 c 0
 338 256 330 282 330 318 c 0xb680
 330 328 332 340 332 354 c 0
 340 424 356 480 356 608 c 0
 356 642 340 674 320 674 c 0
 316 674 310 674 306 670 c 0
 268 642 250 618 216 550 c 0
 178 476 114 364 82 244 c 0
 74 210 60 192 46 192 c 0
 40 192 36 194 32 196 c 0
 24 200 20 212 20 228 c 0x2d80
EndSplineSet
EndChar

StartChar: pfMsuu1
Encoding: 58383 58383 35
Width: 848
VWidth: 686
Flags: HW
HStem: -56 66<637.684 782> 312 86<396 453.544> 698 88<609.506 720.336> 758 90<265.264 377>
VStem: 20 62<280.194 416.032> 330 72<398.654 686.052> 356 76<456.376 757.776> 740 72<390.108 675.164> 784 44<-135.017 -46 8 39.0392>
LayerCount: 2
Fore
SplineSet
20 312 m 0xda
 20 336 28 372 44 420 c 0
 72 502 102 568 152 652 c 0
 202 740 248 802 294 824 c 1
 314 836 342 848 368 848 c 0
 386 848 402 842 414 826 c 0
 422 816 432 794 432 752 c 0
 432 750 432 746 432 742 c 0xda
 428 656 414 552 404 482 c 0
 404 472 402 464 402 456 c 0
 402 434 408 416 412 406 c 0
 414 400 418 398 422 398 c 0
 440 398 474 486 482 510 c 2
 526 626 l 1
 560 700 568 718 616 758 c 0xdc
 640 778 676 786 700 786 c 0xec
 706 786 712 784 716 784 c 0
 742 778 762 770 776 758 c 0
 786 748 802 706 808 668 c 0
 810 660 812 648 812 632 c 0
 812 584 802 506 796 466 c 0
 792 440 760 328 738 260 c 0
 704 158 686 114 654 44 c 0
 648 30 642 16 636 4 c 1
 672 8 702 10 730 10 c 0
 732 10 736 10 738 10 c 0
 740 10 l 0xdd
 744 10 748 10 752 10 c 0
 758 10 764 10 770 10 c 0
 774 10 780 8 784 8 c 1
 784 14 782 22 784 28 c 1
 794 36 804 38 808 40 c 0
 812 42 814 36 818 28 c 1
 822 10 828 -18 828 -58 c 0xd880
 828 -98 826 -124 822 -140 c 1
 804 -142 794 -136 790 -128 c 0
 786 -118 782 -98 782 -76 c 0
 782 -72 782 -68 782 -64 c 0
 784 -58 782 -50 782 -46 c 1
 770 -48 754 -48 734 -50 c 0
 726 -50 716 -52 706 -52 c 0
 680 -54 660 -56 644 -56 c 0
 628 -56 620 -56 610 -54 c 0
 602 -52 592 -48 584 -44 c 0
 582 -44 580 -44 578 -42 c 0
 576 -40 576 -40 574 -38 c 0
 562 -26 568 -14 580 10 c 0
 612 72 638 140 672 238 c 0
 704 332 718 390 736 472 c 1
 738 500 740 522 740 546 c 0
 740 570 738 596 732 624 c 0
 724 666 688 698 658 698 c 0
 648 698 638 694 630 684 c 0
 598 644 582 612 568 576 c 2
 510 446 l 1
 486 386 476 376 450 342 c 0
 434 322 418 312 402 312 c 0
 390 312 378 316 364 324 c 0
 338 340 330 366 330 402 c 0xed
 330 412 332 424 332 438 c 0
 340 508 356 564 356 692 c 0
 356 726 340 758 320 758 c 0
 316 758 310 758 306 754 c 0
 268 726 250 702 216 634 c 0
 178 560 114 448 82 328 c 0
 74 294 60 276 46 276 c 0
 40 276 36 278 32 280 c 0
 24 284 20 296 20 312 c 0xda
EndSplineSet
EndChar

StartChar: pfEclMN
Encoding: 58385 58385 36
Width: 1408
VWidth: 686
Flags: HW
HStem: 2 42G<44 53> 38 82<396 452.444> 76 86<806 863.544> 514 98<305.218 391 694.138 791> 516 76<936.282 1013.81>
VStem: 330 72<121.367 441.94> 364 76<182.376 513.976> 740 72<170.475 450.052> 764 76<170.475 521.522> 1148 72<150.711 440.75>
LayerCount: 2
Fore
SplineSet
610 374 m 0xa8c0
 596 348 582 312 568 290 c 1
 512 178 l 2
 512 176 l 0
 512 174 510 174 510 172 c 0
 496 136 476 102 450 68 c 0
 434 48 420 38 402 38 c 0x44c0
 390 38 378 42 364 50 c 0x4240
 338 66 330 92 330 128 c 0x4440
 330 140 330 150 332 164 c 0
 340 234 364 318 364 448 c 0
 364 482 350 514 328 514 c 0
 324 514 318 512 314 510 c 0
 270 486 266 456 228 390 c 0
 164 280 114 174 82 54 c 0
 72 20 60 2 46 2 c 0x9240
 42 2 36 4 32 6 c 0
 24 10 20 22 20 38 c 0
 20 62 28 98 44 146 c 0
 72 228 116 312 166 396 c 0
 216 480 264 544 312 582 c 0
 338 602 362 612 382 612 c 0x5240
 400 612 414 604 428 586 c 0
 434 578 440 554 440 516 c 0
 440 510 440 504 440 498 c 0x0a40
 436 412 414 278 404 208 c 0
 402 200 402 190 402 182 c 0
 402 158 408 142 412 132 c 0
 416 122 420 120 424 120 c 0
 438 120 452 158 460 180 c 1
 508 282 l 2
 508 284 510 284 510 286 c 0
 526 324 544 362 566 398 c 0
 616 482 664 546 712 584 c 0
 738 604 762 614 782 614 c 0
 800 614 814 606 828 588 c 0
 834 580 840 556 840 518 c 2
 840 516 l 2
 840 514 840 510 840 506 c 0x4cc0
 836 420 822 316 812 246 c 0
 812 236 812 228 812 220 c 0
 812 198 816 180 820 170 c 0
 822 164 828 162 832 162 c 0
 850 162 884 250 892 274 c 2
 936 390 l 1
 968 458 976 478 1014 512 c 1
 1010 514 1006 516 1004 516 c 0
 964 526 936 534 924 544 c 0
 914 554 910 562 908 572 c 0
 906 582 916 584 936 588 c 0
 942 588 950 592 956 592 c 0
 976 592 996 588 1016 580 c 0
 1044 570 1072 560 1096 552 c 0
 1106 550 1118 548 1136 548 c 0
 1144 548 1152 550 1160 552 c 0
 1190 556 1222 560 1252 568 c 0
 1270 574 1296 574 1320 576 c 0
 1324 576 1324 576 1328 576 c 0
 1348 576 1362 570 1376 568 c 1
 1384 564 1388 558 1388 552 c 0
 1388 544 1384 540 1372 532 c 1
 1318 510 1270 502 1232 500 c 0
 1222 500 1210 498 1198 498 c 1
 1206 480 1212 456 1216 432 c 0
 1218 424 1220 412 1220 396 c 0
 1220 348 1210 270 1204 230 c 0
 1200 204 1170 92 1148 24 c 0
 1114 -78 1096 -122 1064 -192 c 0
 1046 -234 1022 -286 1000 -286 c 0
 996 -286 992 -286 988 -282 c 0
 970 -266 974 -254 988 -226 c 0
 1020 -164 1046 -96 1080 2 c 0
 1112 96 1126 154 1144 236 c 1
 1146 264 1148 286 1148 310 c 0
 1148 334 1146 360 1140 388 c 0
 1132 430 1098 462 1068 462 c 0
 1058 462 1048 458 1040 448 c 0
 1008 408 990 376 976 340 c 2
 920 210 l 2
 896 150 886 140 860 106 c 0
 844 86 828 76 812 76 c 0
 800 76 786 80 772 88 c 0
 746 104 740 130 740 166 c 0
 740 176 740 188 740 202 c 0xa940
 748 272 764 328 764 456 c 0
 764 490 748 522 728 522 c 0
 724 522 720 522 716 518 c 0
 684 494 666 472 640 426 c 0
 638 420 632 418 630 412 c 0
 628 408 626 402 624 398 c 0
 620 390 616 382 610 374 c 0xa8c0
EndSplineSet
EndChar

StartChar: pfEclN
Encoding: 58386 58386 37
Width: 1398
VWidth: 686
Flags: HW
HStem: 2 42G<44 53> 38 82<396 452.436 796 851.588> 492 48<1184 1343.05> 514 98<305.218 391 693.926 791> 536 42<925.812 967.718>
VStem: 20 62<6.19334 146.999> 330 72<120.684 452.83> 364 76<182.376 513.976> 730 72<122.684 454.83> 764 76<184.376 515.976> 1130 64<186.865 467.206>
LayerCount: 2
Fore
SplineSet
20 38 m 0x4520
 20 62 28 98 44 146 c 0
 72 228 116 312 166 396 c 0
 216 480 264 544 312 582 c 0
 338 602 362 612 382 612 c 0
 400 612 414 604 428 586 c 0
 434 578 440 554 440 516 c 0
 440 510 440 504 440 498 c 0x5520
 436 412 414 278 404 208 c 0
 402 200 402 190 402 182 c 0
 402 158 408 142 412 132 c 0
 416 122 420 120 424 120 c 0
 438 120 452 158 460 180 c 1
 508 282 l 2
 508.708 283.54 509.406 285.058 510.096 286.556 c 0
 526.472 323.988 544.364 361.65 566 398 c 0
 616 482 664 546 712 584 c 0
 738 604 762 614 782 614 c 0
 800 614 814 606 828 588 c 0
 834 580 840 556 840 518 c 0
 840 512 840 506 840 500 c 0x5660
 836 414 814 280 804 210 c 0
 802 202 802 192 802 184 c 0
 802 160 808 144 812 134 c 0
 816 124 820 122 824 122 c 0
 838 122 852 160 860 182 c 1
 908 284 l 2
 942 358 956 384 986 428 c 0
 1002 452 1024 480 1050 502 c 1
 1040 504 1028 508 1016 510 c 0
 978 518 954 528 942 536 c 0
 932 544 926 554 924 562 c 0
 922 570 930 574 950 578 c 0x4ca0
 956 578 962 580 968 580 c 0
 986 580 1006 576 1026 570 c 0
 1052 562 1080 552 1102 544 c 0
 1112 542 1122 540 1140 540 c 0
 1148 540 1156 540 1164 540 c 0
 1192 544 1222 548 1250 556 c 0
 1268 560 1288 560 1310 562 c 0
 1314 562 1318 562 1320 562 c 0
 1338 562 1354 558 1366 556 c 1
 1372 552 1378 548 1378 542 c 0
 1378 536 1372 530 1360 522 c 1
 1308 502 1266 494 1230 492 c 0
 1220 492 1208 492 1198 492 c 0
 1192 492 1190 492 1184 492 c 1
 1188 478 1192 458 1194 430 c 0
 1194 424 1194 418 1194 410 c 0
 1194 370 1186 320 1176 258 c 0
 1164 186 1148 122 1128 62 c 0
 1108 2 1092 -28 1072 -32 c 0
 1070 -32 1072 -32 1070 -32 c 0
 1062 -32 1056 -24 1056 -10 c 0
 1056 2 1060 20 1066 40 c 0
 1082 88 1098 138 1110 198 c 0
 1122 258 1126 316 1130 384 c 0
 1130 388 1130 394 1130 398 c 0
 1130 446 1114 468 1094 468 c 0
 1090 468 1084 468 1080 466 c 0
 1060 458 1036 422 1020 394 c 0
 1004 366 986 320 968 292 c 1
 910 174 l 1
 896 138 876 104 850 70 c 0
 834 50 820 40 802 40 c 0x24a0
 790 40 778 44 764 52 c 0x2460
 738 68 730 94 730 130 c 0x24a0
 730 142 730 152 732 166 c 0
 740 236 764 320 764 450 c 0
 764 484 750 516 728 516 c 0
 724 516 718 514 714 512 c 0
 670 488 658 458 620 392 c 0
 604 364 586 318 568 290 c 1
 512.654 177.401 l 2
 512.438 176.937 512.22 176.469 512 176 c 0
 511.278 174.457 510.514 172.876 509.712 171.263 c 0
 495.726 135.535 475.822 101.768 450 68 c 0
 434 48 420 38 402 38 c 0x6660
 390 38 378 42 364 50 c 0x6520
 338 66 330 92 330 128 c 0x6620
 330 140 330 150 332 164 c 0
 340 234 364 318 364 448 c 0
 364 482 350 514 328 514 c 0
 324 514 318 512 314 510 c 0
 270 486 266 456 228 390 c 0
 164 280 114 174 82 54 c 0
 72 20 60 2 46 2 c 0x9520
 42 2 36 4 32 6 c 0
 24 10 20 22 20 38 c 0x4520
EndSplineSet
EndChar

StartChar: pfN
Encoding: 58387 58387 38
Width: 998
VWidth: 686
Flags: HW
HStem: 2 42G<44 53> 38 82<396 452.444> 490 48<784 943.05> 514 98<305.218 391> 534 42<525.812 567.718> 538 40G<565 577>
VStem: 20 62<6.19334 146.999> 330 72<120.684 452.83> 364 76<182.376 513.976> 730 64<184.865 465.206>
LayerCount: 2
Fore
SplineSet
20 38 m 0x42c0
 20 62 28 98 44 146 c 0
 72 228 116 312 166 396 c 0
 216 480 264 544 312 582 c 0
 338 602 362 612 382 612 c 0
 400 612 414 604 428 586 c 0
 434 578 440 554 440 516 c 0
 440 510 440 504 440 498 c 0x52c0
 436 412 414 278 404 208 c 0
 402 200 402 190 402 182 c 0
 402 158 408 142 412 132 c 0
 416 122 420 120 424 120 c 0
 438 120 452 158 460 180 c 1
 508 282 l 2
 542 356 556 382 586 426 c 0
 602 450 624 478 650 500 c 1
 640 502 628 506 616 508 c 0
 578 516 554 526 542 534 c 0
 532 542 526 552 524 560 c 0
 522 568 530 572 550 576 c 0x4b40
 556 576 562 578 568 578 c 0
 586 578 606 574 626 568 c 0
 652 560 680 550 702 542 c 0
 712 540 722 538 740 538 c 0
 748 538 756 538 764 538 c 0x0740
 792 542 822 546 850 554 c 0
 868 558 888 558 910 560 c 0
 914 560 918 560 920 560 c 0
 938 560 954 556 966 554 c 1
 972 550 978 546 978 540 c 0
 978 534 972 528 960 520 c 1
 908 500 866 492 830 490 c 0
 820 490 808 490 798 490 c 0
 792 490 790 490 784 490 c 1
 788 476 792 456 794 428 c 0
 794 422 794 416 794 408 c 0
 794 368 786 318 776 256 c 0
 764 184 748 120 728 60 c 0
 708 0 692 -30 672 -34 c 0
 670 -34 672 -34 670 -34 c 0
 662 -34 656 -26 656 -12 c 0
 656 0 660 18 666 38 c 0
 682 86 698 136 710 196 c 0
 722 256 726 314 730 382 c 0
 730 386 730 392 730 396 c 0
 730 444 714 466 694 466 c 0
 690 466 684 466 680 464 c 0
 660 456 636 420 620 392 c 0
 604 364 586 318 568 290 c 1
 510 172 l 1
 496 136 476 102 450 68 c 0
 434 48 420 38 402 38 c 0x6340
 390 38 378 42 364 50 c 0x62c0
 338 66 330 92 330 128 c 0x6340
 330 140 330 150 332 164 c 0
 340 234 364 318 364 448 c 0
 364 482 350 514 328 514 c 0
 324 514 318 512 314 510 c 0
 270 486 266 456 228 390 c 0
 164 280 114 174 82 54 c 0
 72 20 60 2 46 2 c 0x92c0
 42 2 36 4 32 6 c 0
 24 10 20 22 20 38 c 0x42c0
EndSplineSet
EndChar

StartChar: clEpoB
Encoding: 58388 58388 39
Width: 1240
VWidth: 686
Flags: HW
HStem: 228 86<396 453.544> 614 94<609.37 718.166 1053.96 1152.62> 674 90<265.264 377>
VStem: 20 62<196.193 332.032> 330 72<314.654 602.052> 356 76<372.376 673.776> 756 64<290.5 560.062>
LayerCount: 2
Fore
SplineSet
20 228 m 0xb6
 20 252 28 288 44 336 c 0
 72 418 102 484 152 568 c 0
 202 656 248 718 294 740 c 1
 314 752 342 764 368 764 c 0
 386 764 402 758 414 742 c 0
 422 732 432 710 432 668 c 0
 432 666 432 662 432 658 c 0xb6
 428 572 414 468 404 398 c 0
 404 388 402 380 402 372 c 0
 402 350 408 332 412 322 c 0
 414 316 418 314 422 314 c 0
 440 314 474 402 482 426 c 2
 526 542 l 1
 550 594 562 618 582 642 c 0
 588 652 596 660 606 668 c 0
 642 694 676 708 708 708 c 0
 730 708 750 702 768 692 c 0
 780 684 794 662 806 620 c 0
 814 588 820 552 820 506 c 0
 820 492 818 476 818 460 c 0
 816 442 810 412 800 364 c 0
 790 316 788 282 784 266 c 1
 802 288 824 328 850 374 c 0
 876 420 888 432 906 464 c 0
 924 496 924 494 942 522 c 0
 960 550 976 576 998 606 c 0
 1020 636 1048 662 1076 680 c 0
 1094 690 1116 696 1140 696 c 0
 1150 696 1162 694 1174 692 c 0
 1208 682 1220 658 1220 634 c 0
 1220 632 1220 630 1220 628 c 0
 1218 594 1210 580 1200 556 c 1
 1186 532 1164 502 1126 480 c 0
 1110 470 1098 464 1088 460 c 0
 1074 452 1074 454 1064 450 c 0
 1032 434 1014 428 1008 436 c 0
 1002 444 1006 454 1020 468 c 0
 1034 482 1052 496 1074 508 c 0
 1096 520 1108 528 1114 532 c 0
 1130 542 1146 552 1156 572 c 0
 1166 592 1164 604 1144 608 c 0
 1134 610 1126 612 1116 612 c 0
 1100 612 1084 606 1074 596 c 0
 1058 580 1034 552 1012 516 c 1
 976 464 968 452 938 404 c 0
 910 362 888 326 868 292 c 0
 846 250 844 254 802 188 c 0
 774 144 746 118 710 112 c 1
 700 116 694 130 698 156 c 0
 702 182 708 212 716 244 c 0
 724 276 732 306 740 334 c 0
 748 362 752 382 754 392 c 0
 756 402 756 412 756 424 c 0
 756 466 746 506 730 548 c 0
 718 578 700 598 682 608 c 0
 676 610 672 614 666 614 c 0
 664 614 l 0
 662 614 662 614 660 614 c 0
 658 614 l 0
 648 614 638 610 630 600 c 0
 598 560 582 528 568 492 c 2
 510 362 l 1
 486 302 476 292 450 258 c 0
 434 238 418 228 402 228 c 0
 390 228 378 232 364 240 c 0
 338 256 330 282 330 318 c 0xda
 330 328 332 340 332 354 c 0
 340 424 356 480 356 608 c 0
 356 642 340 674 320 674 c 0
 316 674 310 674 306 670 c 0
 268 642 250 618 216 550 c 0
 178 476 114 364 82 244 c 0
 74 210 60 192 46 192 c 0
 40 192 36 194 32 196 c 0
 24 200 20 212 20 228 c 0xb6
714 144 m 1
 714 144 l 1
358 256 m 1
 356 256 356 254 358 256 c 1
EndSplineSet
EndChar

StartChar: pfEpr
Encoding: 58389 58389 40
Width: 1236
VWidth: 686
Flags: HW
HStem: 2 42G<44 53> 38 82<396 452.444> 154 124<1022.28 1098.01> 432 58<964.184 1017.91> 466 66<665.758 725.684> 514 98<305.218 391>
VStem: 20 62<6.19334 146.999> 330 72<120.684 452.83> 364 76<182.376 513.976> 730 64<221.102 465.094> 982 122<158.655 272.762>
LayerCount: 2
Fore
SplineSet
20 38 m 0x62e0
 20 62 28 98 44 146 c 0
 72 228 116 312 166 396 c 0
 216 480 264 544 312 582 c 0
 338 602 362 612 382 612 c 0
 400 612 414 604 428 586 c 0
 434 578 440 554 440 516 c 0
 440 510 440 504 440 498 c 0x66e0
 436 412 414 278 404 208 c 0
 402 200 402 190 402 182 c 0
 402 158 408 142 412 132 c 0
 416 122 420 120 424 120 c 0
 438 120 452 158 460 180 c 1
 508 282 l 2
 542 356 556 382 586 426 c 0
 616 470 672 532 724 532 c 0x6b60
 742 532 760 524 776 504 c 0
 784 494 790 470 794 428 c 0
 794 422 794 416 794 408 c 0
 794 368 786 318 776 256 c 0
 773.994 243.968 771.878 232.16 769.65 220.558 c 1
 776.8 236.19 785.97 255.058 800 280 c 0
 818 314 842 354 868 402 c 0
 894 450 930 482 974 488 c 0
 980 490 984 490 988 490 c 0
 1002 490 1014 482 1026 468 c 0
 1042 450 1050 438 1064 420 c 0
 1078 402 1084 392 1100 376 c 0
 1116 360 1132 358 1150 366 c 0
 1164 372 1184 378 1202 384 c 0
 1212 388 1216 386 1216 380 c 0
 1216 376 1212 368 1202 358 c 1
 1192 344 1172 338 1142 326 c 0
 1132 322 1126 322 1118 322 c 0
 1098 324 1078 332 1062 346 c 0
 1046 358 1038 374 1022 398 c 0
 1008 418 988 430 972 432 c 0
 968 432 968 434 964 432 c 0x3360
 956 428 948 418 934 400 c 0
 920 382 914 360 900 338 c 0
 880 302 882 306 862 272 c 0
 850 252 840 228 836 220 c 0
 834 218 830 204 810 168 c 0
 790 132 770 96 750 60 c 0
 742 44 732 30 724 18 c 1
 712 -12 696 -30 678 -32 c 1
 677.922 -32 l 2
 675.982 -32.9326 674.012 -33.5977 672 -34 c 0
 670 -34 672 -34 670 -34 c 0
 662 -34 656 -26 656 -12 c 0
 656 0 660 18 666 38 c 0
 682 86 698 136 710 196 c 0
 722 256 726 314 730 382 c 0
 730 386 730 392 730 396 c 0
 730 444 714 466 694 466 c 0
 690 466 684 466 680 464 c 0
 660 456 636 420 620 392 c 0
 604 364 586 318 568 290 c 1
 510 172 l 1
 496 136 476 102 450 68 c 0
 434 48 420 38 402 38 c 0x6b60
 390 38 378 42 364 50 c 0x6ae0
 338 66 330 92 330 128 c 0x6b60
 330 140 330 150 332 164 c 0
 340 234 364 318 364 448 c 0
 364 482 350 514 328 514 c 0
 324 514 318 512 314 510 c 0
 270 486 266 456 228 390 c 0
 164 280 114 174 82 54 c 0
 72 20 60 2 46 2 c 0xa6e0
 42 2 36 4 32 6 c 0
 24 10 20 22 20 38 c 0x62e0
982 210 m 0
 982 228 988 242 1000 254 c 0
 1014 268 1026 276 1046 278 c 0
 1048 278 1048 278 1050 278 c 0
 1068 278 1086 264 1100 240 c 0
 1102 234 1104 226 1104 220 c 0
 1104 208 1098 194 1086 178 c 0
 1072 160 1060 154 1044 154 c 0
 1038 154 1028 156 1022 158 c 0
 996 172 982 184 982 210 c 0
EndSplineSet
EndChar

StartChar: pfS
Encoding: 58390 58390 41
Width: 1028
VWidth: 686
Flags: HW
HStem: 0 42G<44 53> 0 42G<44 53> 74 90<418.262 477.194> 512 98<305.218 391>
VStem: 348 70<165.428 476.502> 364 76<242.346 511.976>
LayerCount: 2
Fore
SplineSet
20 36 m 0xb4
 20 60 28 96 44 144 c 0
 72 226 116 310 166 394 c 0
 216 478 264 542 312 580 c 0
 338 600 362 610 382 610 c 0
 400 610 414 602 428 584 c 0
 434 576 440 552 440 514 c 0
 440 508 440 502 440 496 c 0xb4
 436 410 432 312 422 242 c 0
 420 228 418 214 418 202 c 0
 418 184 422 168 430 166 c 0
 432 166 434 164 436 164 c 0
 460 164 478 210 496 246 c 0
 530 310 550 348 602 446 c 0
 638 510 644 524 664 544 c 1
 672 548 680 550 688 550 c 0
 700 550 712 544 728 528 c 0
 750 504 794 430 822 378 c 0
 894 254 906 246 984 114 c 0
 1000 86 1008 62 1008 46 c 0
 1008 24 996 14 984 14 c 0
 978 14 970 16 964 22 c 0
 908 74 910 78 860 158 c 1
 678 474 l 1
 646 420 644 418 598 334 c 0
 554 250 558 262 536 214 c 0
 512 162 504 142 478 110 c 0
 462 90 448 74 428 74 c 0
 420 74 410 78 400 84 c 0
 366 106 356 138 350 198 c 0
 348 214 348 226 348 240 c 0xb8
 348 290 364 344 364 446 c 0
 364 480 350 512 328 512 c 0
 324 512 318 510 314 508 c 0
 270 484 266 454 228 388 c 0
 164 278 114 172 82 52 c 0
 72 18 60 0 46 0 c 0
 42 0 36 2 32 4 c 0
 24 8 20 20 20 36 c 0xb4
EndSplineSet
EndChar

StartChar: clEpo
Encoding: 58391 58391 42
Width: 1106
VWidth: 686
Flags: HW
HStem: 2 42G<44 53> 38 82<396.828 452.444> 506 66<685.588 746.034> 514 98<305.218 391> 556 40G<1057 1072>
VStem: 20 62<6.19334 146.999> 330 72<120.684 452.83> 364 76<182.376 513.976> 766 54<143.629 489.834>
LayerCount: 2
Fore
SplineSet
20 38 m 0x4580
 20 62 28 98 44 146 c 0
 72 228 116 312 166 396 c 0
 216 480 264 544 312 582 c 0
 338 602 362 612 382 612 c 0
 400 612 414 604 428 586 c 0
 434 578 440 554 440 516 c 0
 440 510 440 504 440 498 c 0x5580
 436 412 414 278 404 208 c 0
 402 200 402 190 402 182 c 0
 402 158 408 142 412 132 c 0
 416 122 420 120 424 120 c 0
 438 120 452 158 460 180 c 1
 508 282 l 2
 542 356 576 422 606 466 c 0
 636 510 668 572 720 572 c 0x6680
 738 572 752 568 776 548 c 0
 784 540 792 530 800 510 c 0
 810 490 812 476 814 448 c 0
 816 418 820 388 820 348 c 0
 820 336 818 322 818 308 c 0
 816 258 800 176 794 142 c 1
 840 226 850 246 880 304 c 2
 882 310 886 316 890 322 c 0
 912 366 940 412 952 438 c 0
 964 464 976 490 990 516 c 0
 1004 542 1006 546 1022 566 c 0
 1038 586 1050 596 1064 596 c 2
 1066 596 l 2x0e80
 1078 596 1086 586 1086 574 c 0
 1086 568 1086 566 1080 552 c 0
 1072 538 1068 528 1060 510 c 1
 1058 504 1056 498 1052 492 c 0
 1052 490 1050 488 1050 486 c 0
 1048 484 l 0
 1044 476 1042 470 1036 458 c 0
 1030 450 1026 442 1022 436 c 0
 1012 414 998 386 960 322 c 0
 952 310 946 298 940 288 c 0
 896 212 882 192 848 136 c 0
 820 90 804 64 782 42 c 0
 780 40 l 0
 776 36 774 34 772 32 c 0
 770 30 768 28 766 28 c 0
 764 28 762 26 760 26 c 0
 758 26 760 26 758 26 c 2
 756 26 l 2
 748 26 738 38 738 54 c 0
 738 68 742 94 746 112 c 0
 756 164 758 204 764 264 c 0
 766 282 766 298 766 314 c 0
 766 346 764 376 758 422 c 0
 756 426 758 432 756 436 c 0
 746 484 736 506 716 506 c 0
 712 506 706 506 702 504 c 0
 684 496 656 460 640 432 c 0
 624 404 586 318 568 290 c 1
 510 172 l 1
 496 136 476 102 450 68 c 0
 434 48 420 38 402 38 c 0x6680
 390 38 378 42 364 50 c 0x6580
 338 66 330 92 330 128 c 0x6680
 330 140 330 150 332 164 c 0
 340 234 364 318 364 448 c 0
 364 482 350 514 328 514 c 0
 324 514 318 512 314 510 c 0
 270 486 266 456 228 390 c 0
 164 280 114 174 82 54 c 0
 72 20 60 2 46 2 c 0x9580
 42 2 36 4 32 6 c 0
 24 10 20 22 20 38 c 0x4580
EndSplineSet
EndChar

StartChar: clEpoN1
Encoding: 58392 58392 43
Width: 1162
VWidth: 686
Flags: HW
HStem: 2 42G<44 53> 38 82<396.828 452.444> 506 66<685.588 746.034> 514 98<305.218 391>
VStem: 20 62<6.19334 146.965> 330 72<120.684 452.83> 364 76<182.376 513.976> 766 53.346<143.629 488.976>
LayerCount: 2
Fore
SplineSet
20 38 m 0x4b
 20 62 28 98 44 146 c 0
 72 228 116 312 166 396 c 0
 216 480 264 544 312 582 c 0
 338 602 362 612 382 612 c 0
 400 612 414 604 428 586 c 0
 434 578 440 554 440 516 c 0
 440 510 440 504 440 498 c 0x5b
 436 412 414 278 404 208 c 0
 402 200 402 190 402 182 c 0
 402 158 408 142 412 132 c 0
 416 122 420 120 424 120 c 0
 438 120 452 158 460 180 c 1
 508 282 l 2
 542 356 576 422 606 466 c 0
 636 510 668 572 720 572 c 0x6d
 738 572 752 568 776 548 c 0
 784 540 792 530 800 510 c 0
 810 490 812 476 814 448 c 0
 815.52 417.62 819.346 387.238 819.346 348.096 c 0
 819.346 335.702 818.962 322.428 818 308 c 0
 816 258 800 176 794 142 c 1
 840 226 850 246 880 304 c 0
 922 382 966 458 982 484 c 0
 994 502 1000 516 1012 534 c 1
 1010 536 l 1
 990 548 954 564 954 590 c 0
 954 600 960 616 976 618 c 1
 990 614 982 616 1018 594 c 1
 1038 576 1078 552 1110 548 c 0
 1130 546 1146 532 1142 514 c 1x1d
 1136 500 1128 496 1114 496 c 0
 1098 498 1072 506 1060 510 c 1
 1054 496 1048 484 1036 458 c 1
 1008 412 1008 414 948 304 c 0
 898 214 884 196 848 136 c 0
 820 90 804 64 782 42 c 0
 774 36 770 30 766 28 c 0
 764 28 762 26 760 26 c 0
 758 26 760 26 758 26 c 2
 756 26 l 2
 748.188 26 737.602 37.5908 737.602 53.959 c 0
 737.602 68.5234 742.546 94.7334 746 112 c 0
 756 164 758 204 764 264 c 0
 765.334 282.666 766 298.888 766 314.74 c 0
 766 346.444 763.334 376.666 758 422 c 0
 756 426 758 432 756 436 c 0
 746 484 736 506 716 506 c 0
 712 506 706 506 702 504 c 0
 684 496 656 460 640 432 c 0
 624 404 586 318 568 290 c 1
 510 172 l 1
 496 136 476 102 450 68 c 0
 434 48 420 38 402 38 c 0x6d
 390 38 378 42 364 50 c 0x6b
 338 66 330 92 330 128 c 0x6d
 330 140 330 150 332 164 c 0
 340 234 364 318 364 448 c 0
 364 482 350 514 328 514 c 0
 324 514 318 512 314 510 c 0
 270 486 266 456 228 390 c 0
 164 280 114 173.959 82 53.959 c 0
 72 19.959 60 2 46 2 c 0x9b
 42 2 36 4 32 6 c 0
 24 10 20 22 20 38 c 0x4b
EndSplineSet
EndChar

StartChar: poT
Encoding: 58393 58393 44
Width: 716
VWidth: 682
Flags: HW
HStem: 0 42G<53 59> 0 42G<53 59> 78 56<517.59 605.79> 504 98<312.464 433.188>
VStem: 20 54<2.19484 123.271> 468 64<152.283 454.474>
LayerCount: 2
Fore
SplineSet
20 48 m 0xbc
 20 68 26 94 36 128 c 0
 60 204 100 286 152 370 c 0
 204 454 258 518 316 562 c 0
 352 588 386 602 418 602 c 0
 440 602 460 596 478 586 c 0
 490 578 504 556 516 514 c 0
 526 480 532 442 532 394 c 0
 532 380 530 368 530 354 c 0
 526 324 520 292 516 264 c 0
 512 236 508 208 504 182 c 0
 500 160 510 146 530 138 c 0
 540 134 548 134 556 134 c 0
 582 134 604 150 620 186 c 0
 642 232 666 260 688 264 c 0
 694 266 696 260 696 250 c 0
 696 244 696 240 694 232 c 0
 690 210 678 186 662 160 c 0
 646 134 622 112 594 94 c 0
 578 84 558 78 538 78 c 0
 524 78 508 82 492 86 c 0
 464 94 450 116 450 152 c 0
 450 158 452 166 452 174 c 0
 458 222 462 258 466 286 c 0
 468 296 468 306 468 318 c 0
 468 360 458 400 442 442 c 0
 426 482 404 504 380 504 c 0
 372 504 364 502 356 498 c 0
 304 476 260 438 218 378 c 0
 176 318 150 260 130 206 c 0
 120 178 112 156 104 134 c 0
 94 100 92 100 84 72 c 0
 80 54 78 36 74 20 c 0
 70 8 64 0 54 0 c 0
 52 0 50 2 46 2 c 0
 30 6 20 20 20 48 c 0xbc
EndSplineSet
EndChar

StartChar: clNEpi
Encoding: 58394 58394 45
Width: 1014
VWidth: 858
Flags: HW
HStem: 0 42G<41 60> 0 42G<41 60> 170 124<788.284 864.006> 200 72<496.588 581.448> 446 68<707.008 783.86> 538 99.25<268.582 392.374> 602 76<196.283 275.812>
VStem: 20 56<0.727958 180.469> 438 58<272.26 464.144> 748 122<174.655 288.762>
LayerCount: 2
Fore
SplineSet
20 54 m 0x9dc0
 20 72 22 94 28 120 c 0
 44 200 72 282 114 372 c 0
 156 462 202 532 256 582 c 0
 256.754 582.678 257.508 583.352 258.26 584.018 c 0
 264.282 590.546 270.184 595.928 276 600 c 1
 272 600 268 602 264 602 c 0
 224 612 196 620 184 630 c 0
 174 640 170 648 168 658 c 0
 166 668 176 672 196 676 c 0
 202 676 210 678 216 678 c 0x8bc0
 236 678 256 674 276 666 c 0
 304 656 332 648 356 640 c 0
 360.564 639.088 365.388 638.434 370.994 637.996 c 2
 372 638 l 2
 376.44 638 381.084 637.798 385.798 637.332 c 0
 388.736 637.276 391.874 637.25 395.25 637.25 c 0
 403.25 637.25 412 636 420 638 c 0
 450 642 482 646 512 654 c 0
 530 660 556 660 580 662 c 0
 584 662 584 662 588 662 c 0
 608 662 622 658 636 656 c 1
 644 652 648 646 648 640 c 0
 648 632 644 626 632 618 c 1
 578 596 530 588 492 586 c 0
 482.558 586 466.208 585.332 454.312 585.256 c 1
 457.474 579.382 460.704 572.96 464 566 c 0
 482 528 492 476 496 412 c 0
 496 404 498 394 498 380 c 0
 498 366 496 340 496 318 c 0
 496 288 506 272 524 272 c 0
 528 272 532 272 538 274 c 0
 560 282 576 296 588 318 c 0
 600 340 610 364 620 390 c 0
 630 416 644 442 658 464 c 0
 672 486 696 504 726 512 c 0
 732 514 738 514 744 514 c 0
 760 514 774 508 786 496 c 0
 802 480 816 464 828 444 c 0
 840 424 856 406 870 394 c 0
 884 382 904 382 926 394 c 0
 938 402 954 408 976 418 c 0
 988 424 994 422 994 416 c 0
 994 410 990 402 980 388 c 0
 970 374 950 358 920 342 c 0
 908 336 898 332 886 332 c 0
 868 332 852 340 834 354 c 1
 822 366 804 384 784 412 c 0
 768 434 752 446 734 446 c 0
 730 446 724 446 720 444 c 0
 710 440 698 424 684 394 c 0
 670 364 654 330 638 300 c 0
 630 288 624 276 614 264 c 0
 602 248 600 246 586 228 c 0
 568 208 548 200 524 200 c 0
 520 200 514 200 510 200 c 0
 476 208 458 222 450 252 c 0
 442 282 438 306 438 336 c 0
 438 390 426 440 398 486 c 0
 378 518 358 538 336 538 c 0
 328 538 318 534 308 528 c 0
 260 498 216 450 182 386 c 0
 148 322 123.998 268 111.998 212 c 0
 103.998 184 98 156 94 134 c 0
 88 100 86 102 82 72 c 0
 78 52 78 36 76 22 c 0
 74 8 68 0 52 0 c 0
 30 2 20 18 20 54 c 0x9dc0
748 226 m 0
 748 244 754 258 766 270 c 0
 780 284 792 292 812 294 c 0
 814 294 814 294 816 294 c 0
 834 294 852 280 866 256 c 0
 868 250 870 242 870 236 c 0
 870 224 864 210 852 194 c 0
 838 176 826 170 810 170 c 0x29c0
 804 170 794 172 788 174 c 0
 762 188 748 200 748 226 c 0
EndSplineSet
EndChar

StartChar: clEpi
Encoding: 58395 58395 46
Width: 1014
VWidth: 858
Flags: HW
HStem: 0 42G<41 60> 0 42G<41 60> 170 124<788.284 864.006> 200 72<496.588 581.448> 446 68<707.008 783.86> 538 100<270.81 392.484>
VStem: 20 56<0.727958 180.469> 438 58<272.26 464.144> 748 122<174.655 288.762>
LayerCount: 2
Fore
SplineSet
748 226 m 0x2f80
 748 244 754 258 766 270 c 0
 780 284 792 292 812 294 c 0
 814 294 814 294 816 294 c 0
 834 294 852 280 866 256 c 0
 868 250 870 242 870 236 c 0
 870 224 864 210 852 194 c 0
 838 176 826 170 810 170 c 0
 804 170 794 172 788 174 c 0
 762 188 748 200 748 226 c 0x2f80
20 54 m 0
 20 72 22 94 28 120 c 0
 44 200 72 282 114 372 c 0
 156 462 202 532 256 582 c 0
 296 618 334 638 372 638 c 0
 386 638 402 636 416 630 c 0
 430 626 446 604 464 566 c 0
 482 528 492 476 496 412 c 0
 496 404 498 394 498 380 c 0
 498 366 496 340 496 318 c 0
 496 288 506 272 524 272 c 0
 528 272 532 272 538 274 c 0
 560 282 576 296 588 318 c 0
 600 340 610 364 620 390 c 0
 630 416 644 442 658 464 c 0
 672 486 696 504 726 512 c 0
 732 514 738 514 744 514 c 0
 760 514 774 508 786 496 c 0
 802 480 816 464 828 444 c 0
 840 424 856 406 870 394 c 0
 884 382 904 382 926 394 c 0
 938 402 954 408 976 418 c 0
 988 424 994 422 994 416 c 0
 994 410 990 402 980 388 c 0
 970 374 950 358 920 342 c 0
 908 336 898 332 886 332 c 0
 868 332 852 340 834 354 c 1
 822 366 804 384 784 412 c 0
 768 434 752 446 734 446 c 0
 730 446 724 446 720 444 c 0
 710 440 698 424 684 394 c 0
 670 364 654 330 638 300 c 0
 630 288 624 276 614 264 c 0
 602 248 600 246 586 228 c 0
 568 208 548 200 524 200 c 0
 520 200 514 200 510 200 c 0
 476 208 458 222 450 252 c 0
 442 282 438 306 438 336 c 0
 438 390 426 440 398 486 c 0
 378 518 358 538 336 538 c 0
 328 538 318 534 308 528 c 0
 260 498 216 450 182 386 c 0
 148 322 124 268 112 212 c 0
 104 184 98 156 94 134 c 0
 88 100 86 102 82 72 c 0
 78 52 78 36 76 22 c 0
 74 8 68 0 52 0 c 0x9f80
 30 2 20 18 20 54 c 0
EndSplineSet
EndChar

StartChar: clEpr
Encoding: 58397 58397 47
Width: 998
VWidth: 740
Flags: HW
HStem: 0 42G<38 56> 0 42G<38 56> 266 124<784.284 860.006> 488 96<332.776 440.382> 544 58<726.184 779.912>
VStem: 464 66<320 458.34> 744 122<270.654 384.762>
LayerCount: 2
Fore
SplineSet
744 322 m 0x26
 744 340 750 354 762 366 c 0
 776 380 788 388 808 390 c 0
 810 390 810 390 812 390 c 0
 830 390 848 376 862 352 c 0
 864 346 866 338 866 332 c 0
 866 320 860 306 848 290 c 0
 834 272 822 266 806 266 c 0
 800 266 790 268 784 270 c 0
 758 284 744 296 744 322 c 0x26
20 44 m 0
 20 64 26 92 36 126 c 0
 60 204 88 262 140 346 c 0
 206 452 296 536 332 558 c 0
 348 568 400 584 426 584 c 0
 428 584 430 584 432 584 c 0xb6
 458 578 480 568 494 556 c 0
 504 546 514 520 522 484 c 0
 528 460 530 432 530 402 c 0
 530 386 530 370 528 352 c 0
 528 342 526 330 526 320 c 1
 534 338 544 360 562 392 c 0
 580 426 604 466 630 514 c 0
 656 562 692 594 736 600 c 0
 742 602 746 602 750 602 c 0x2e
 764 602 776 594 788 580 c 0
 804 562 812 550 826 532 c 0
 840 514 846 504 862 488 c 0x36
 878 472 894 470 912 478 c 0
 926 484 946 490 964 496 c 0
 974 500 978 498 978 492 c 0
 978 488 974 480 964 470 c 1
 954 456 934 450 904 438 c 0
 894 434 888 434 880 434 c 0
 860 436 840 444 824 458 c 0
 808 470 800 486 784 510 c 0
 770 530 750 542 734 544 c 0
 730 544 730 546 726 544 c 0x2e
 718 540 710 530 696 512 c 0
 682 494 676 472 662 450 c 0
 642 414 644 418 624 384 c 0
 612 364 602 340 598 332 c 0
 596 330 592 316 572 280 c 0
 552 244 532 208 512 172 c 0
 504 156 494 142 486 130 c 1
 474 100 458 82 440 80 c 0
 438 80 436 80 434 80 c 0
 426 80 422 82 422 90 c 0
 422 92 422 96 422 100 c 0
 422 102 422 106 422 108 c 2
 422 110 l 2
 422 116 430 130 440 152 c 1
 452 190 456 226 462 274 c 0
 462 286 464 296 464 306 c 0
 464 344 458 378 448 424 c 0
 438 468 402 488 372 488 c 0
 362 488 354 486 346 482 c 0
 314 462 266 430 208 344 c 0
 152 260 152 238 128 192 c 0
 108 152 90 102 80 60 c 0
 70 22 62 0 50 0 c 0
 48 0 48 0 46 0 c 0xb6
 30 4 20 18 20 44 c 0
EndSplineSet
EndChar

StartChar: clEclS
Encoding: 58399 58399 48
Width: 1126
VWidth: 684
Flags: HW
HStem: 0 42G<40 50> 0 38G<40 50 352 389> 180 68<924.522 1093.33> 196 46<1041.22 1106> 502 110<732.99 840.17> 516 96<298.872 390>
VStem: 314 62<58.6704 223.516> 380 60<272.028 515.986> 874 64<241.688 454.408>
LayerCount: 2
Fore
SplineSet
20 32 m 0x8780
 20 56 30 90 48 142 c 0
 76 224 116 310 166 394 c 0
 216 478 264 540 312 580 c 0
 336 600 360 612 380 612 c 0
 400 612 416 602 430 584 c 0
 436 576 440 554 440 520 c 0
 440 512 440 504 440 496 c 0
 438 448 432 390 420 318 c 0
 416 290 408 262 400 234 c 0
 392 206 386 176 382 148 c 0
 378 130 376 114 376 102 c 0
 376 90 378 82 382 74 c 0
 388 60 396 52 404 60 c 0
 414 68 426 88 440 116 c 0
 454 144 470 172 484 206 c 0
 506 254 506 256 526 302 c 0
 538 332 552 354 560 368 c 0
 612 452 666 518 724 562 c 0
 758 588 790 602 822 602 c 0
 844 602 864 596 884 584 c 0
 896 576 910 554 922 512 c 0
 932 478 938 442 938 394 c 0
 938 382 936 368 936 354 c 0
 932 314 928 276 924 240 c 1
 968 244 1008 248 1040 248 c 0xa780
 1066 248 1088 246 1106 242 c 1
 1106 236 1106 232 1106 228 c 0
 1106 220 1106 214 1106 212 c 0
 1106 208 1104 200 1094 196 c 0x1380
 1080 188 1046 186 994 182 c 0
 974 180 956 180 942 180 c 0
 920 180 906 182 900 184 c 0
 872 194 860 204 864 220 c 0
 868 236 868 256 872 284 c 0
 874 296 874 306 874 318 c 0
 874 360 866 402 848 442 c 0
 832 482 812 502 788 502 c 0x2b80
 780 502 774 500 766 496 c 0
 714 474 666 434 624 374 c 0
 582 314 556 260 536 206 c 0
 532 190 522 168 510 140 c 0
 498 112 482 84 466 60 c 0
 450 36 432 16 412 4 c 0
 402 -2 394 -4 384 -4 c 1
 352 6 l 1
 328 22 314 44 314 76 c 0
 314 88 316 102 320 116 c 0
 338 196 340 198 352 258 c 0
 364 318 376 376 380 438 c 0
 380 446 380 454 380 462 c 0
 380 498 374 516 358 516 c 0
 354 516 350 516 346 514 c 0
 306 496 266 454 228 388 c 0
 190 322 158 262 136 206 c 0
 114 148 94 98 82 54 c 0
 72 18 58 0 42 0 c 0
 38 0 36 2 32 4 c 0
 24 8 20 18 20 32 c 0x8780
EndSplineSet
EndChar

StartChar: clS1
Encoding: 58400 58400 49
Width: 706
VWidth: 622
Flags: HW
HStem: -2 42G<639 665> -2 42G<639 665> 558 40G<287 297>
LayerCount: 2
Fore
SplineSet
20 202 m 0xa0
 20 220 38 256 70 306 c 0
 134 404 132 400 196 498 c 0
 240 562 250 574 272 594 c 1
 278 596 284 598 290 598 c 0
 304 598 316 592 336 572 c 0
 364 544 394 508 420 466 c 0
 556 250 554 252 648 108 c 0
 676 64 686 38 686 24 c 0
 686 4 672 0 658 -2 c 1
 620 18 602 38 514 166 c 1
 280 520 l 1
 246 476 238 464 182 380 c 0
 128 296 96 242 76 218 c 0
 60 200 46 188 34 188 c 0
 30 188 26 190 24 192 c 0
 22 194 20 198 20 202 c 0xa0
EndSplineSet
EndChar

StartChar: clSN1
Encoding: 58401 58401 50
Width: 706
VWidth: 640
Flags: HW
HStem: -2 42G<639 665> -2 42G<639 665> 600 40G<141 169> 600 40G<141 169>
LayerCount: 2
Fore
SplineSet
20 202 m 0xa0
 20 220 38 256 70 306 c 0
 134 404 132 400 196 498 c 0
 220 532 232 550 244 564 c 1
 232 566 218 570 198 576 c 0
 170 584 150 592 142 600 c 0
 134 608 128 616 128 626 c 0
 128 634 134 638 148 640 c 0
 152 640 158 640 162 640 c 0
 176 640 190 638 204 632 c 0
 224 624 246 616 262 608 c 0
 270 606 276 604 290 604 c 0
 294 604 302 602 308 604 c 0
 330 606 350 610 372 618 c 0
 386 622 402 622 418 624 c 0
 420 624 424 624 426 624 c 0
 440 624 450 620 460 618 c 1
 466 614 468 610 468 604 c 0
 468 598 464 592 456 586 c 0
 418 568 384 562 358 560 c 1
 348 560 l 1
 372 534 398 502 420 466 c 0
 556 250 554 252 648 108 c 0
 676 64 686 38 686 24 c 0
 686 4 672 0 658 -2 c 1
 620 18 602 38 514 166 c 1
 280 520 l 1
 246 476 238 464 182 380 c 0
 128 296 96 242 76 218 c 0
 60 200 46 188 34 188 c 0
 30 188 26 190 24 192 c 0
 22 194 20 198 20 202 c 0xa0
EndSplineSet
EndChar

StartChar: clS
Encoding: 58402 58402 51
Width: 720
VWidth: 620
Flags: HW
HStem: 0 42G<51 58> 0 42G<51 58> 182 66<516.124 695.058> 200 42<621.404 699.144> 500 84<299.742 441.15>
VStem: 20 52<2.19484 122.141> 466 62<242 442.22>
LayerCount: 2
Fore
SplineSet
20 46 m 0xae
 20 68 26 96 36 130 c 0
 60 206 98 286 150 370 c 0
 202 454 258 512 316 556 c 0
 344 578 376 584 402 584 c 0
 428 584 450 578 458 570 c 1
 470 562 494 554 506 512 c 0
 516 474 528 432 528 376 c 0
 528 370 528 362 528 354 c 0
 524 316 520 278 516 242 c 1x9e
 556 246 590 248 620 248 c 0x2e
 650 248 676 246 696 242 c 1
 698 226 700 218 700 214 c 0
 700 210 694 204 684 200 c 0x1e
 670 194 638 190 586 186 c 0
 560 184 540 182 524 182 c 0
 508 182 496 184 492 186 c 0
 464 196 452 206 456 222 c 0
 460 238 460 260 464 288 c 0
 466 304 466 318 466 332 c 0
 466 370 460 406 448 444 c 0
 434 482 406 500 380 500 c 0
 376 500 372 498 368 498 c 0
 310 480 260 438 218 378 c 0
 176 318 148 262 128 208 c 0
 118 180 110 158 102 136 c 0
 92 102 92 102 84 74 c 0
 80 56 76 38 72 22 c 0
 68 8 64 0 52 0 c 0
 50 0 46 2 44 2 c 0
 28 6 20 20 20 46 c 0xae
EndSplineSet
EndChar

StartChar: clSN
Encoding: 58403 58403 52
Width: 728
VWidth: 620
Flags: HW
HStem: 0 42G<53 59> 0 42G<53 59> 182 66<516.428 662> 504 84<300.95 436.236>
VStem: 20 52<2.19484 113.906> 664 44<102.983 192 246 277.04>
LayerCount: 2
Fore
SplineSet
20 48 m 0xbc
 20 68 26 94 36 128 c 0
 60 204 100 286 152 370 c 0
 204 454 246 506 304 550 c 0
 338 576 368 588 398 588 c 0
 418 588 438 582 458 570 c 1
 484 550 492 538 504 506 c 0
 518 464 524 418 528 354 c 1
 524 316 520 278 516 242 c 1
 552 246 582 248 610 248 c 0
 630 248 648 248 664 246 c 1
 664 252 662 260 664 266 c 1
 674 274 684 276 688 278 c 0
 692 280 694 274 698 266 c 1
 702 248 708 220 708 180 c 0
 708 140 706 114 702 98 c 1
 684 96 674 102 670 110 c 0
 666 120 662 140 662 162 c 0
 662 166 662 170 662 174 c 0
 664 180 662 188 662 192 c 1
 644 188 620 190 586 186 c 0
 560 184 540 182 524 182 c 0
 508 182 500 184 494 186 c 0
 466 196 452 204 456 220 c 0
 460 236 460 258 464 286 c 0
 466 298 466 312 466 326 c 0
 466 368 458 410 442 450 c 0
 430 482 402 504 374 504 c 0
 366 504 358 502 350 498 c 0
 298 476 260 438 218 378 c 0
 176 318 148 260 128 206 c 0
 118 178 112 156 104 134 c 0
 94 100 92 100 84 72 c 0
 80 54 76 36 72 20 c 0
 68 8 64 0 54 0 c 0
 52 0 50 2 46 2 c 0
 30 6 20 20 20 48 c 0xbc
EndSplineSet
EndChar

StartChar: cl
Encoding: 58405 58405 53
Width: 550
VWidth: 612
Flags: HW
HStem: 494 96<332.776 440.382>
VStem: 422 78<96.8088 270.034> 464 66<166.447 464.34>
LayerCount: 2
Fore
SplineSet
20 50 m 0xa0
 20 70 26 98 36 132 c 0
 60 210 88 268 140 352 c 0
 206 458 296 542 332 564 c 0
 348 574 400 590 426 590 c 0
 428 590 430 590 432 590 c 0
 458 584 480 574 494 562 c 0
 504 552 514 526 522 490 c 0
 528 466 530 438 530 408 c 0xa0
 530 392 530 376 528 358 c 0
 524 292 514 230 500 176 c 0
 486 122 466 90 440 86 c 0
 438 86 436 86 434 86 c 0
 426 86 422 88 422 96 c 0xc0
 422 106 426 120 434 142 c 0
 450 186 456 226 462 280 c 0
 462 292 464 302 464 312 c 0
 464 350 458 384 448 430 c 0
 438 474 402 494 372 494 c 0
 362 494 354 492 346 488 c 0
 314 468 266 436 208 350 c 0
 152 266 152 244 128 198 c 0
 108 158 90 108 80 66 c 0
 70 28 62 6 50 6 c 0
 48 6 48 6 46 6 c 0
 30 10 20 24 20 50 c 0xa0
EndSplineSet
EndChar

StartChar: poG
Encoding: 58408 58408 54
Width: 924
VWidth: 760
Flags: HW
HStem: 494 100<311.688 440.702> 558 36<312 402> 560 76<244.282 321.814>
VStem: 422 78<96.8088 270.034> 464 66<166.447 464.34>
LayerCount: 2
Fore
SplineSet
574 70 m 2x00
 574 72 l 2
 574 94 594 138 630 202 c 0
 682 298 676 282 708 344 c 0
 730 388 758 434 770 460 c 0
 782 486 794 512 808 538 c 0
 822 564 824 568 840 588 c 0
 856 608 868 618 882 618 c 2
 884 618 l 2
 896 618 904 608 904 596 c 0
 904 590 904 588 898 574 c 0
 888 554 884 544 868 508 c 1
 840 460 844 456 778 344 c 0
 712 232 712 232 676 168 c 1
 648 124 630 92 608 68 c 0
 596 56 590 52 584 52 c 0
 578 52 574 58 574 70 c 2x00
20 50 m 0
 20 70 26 98 36 132 c 0
 60 210 88 268 140 352 c 0
 200 450 282 530 322 558 c 1x48
 318 558 316 560 312 560 c 0
 272 570 244 578 232 588 c 0
 222 598 216 606 214 616 c 0
 212 626 224 630 244 634 c 0
 250 634 256 636 262 636 c 0x28
 282 636 302 632 322 624 c 0
 350 614 378 606 402 598 c 0
 412 596 426 594 444 594 c 0
 452 594 460 594 468 596 c 0
 498 600 530 604 560 612 c 0
 578 618 602 618 626 620 c 0
 630 620 630 620 634 620 c 0
 654 620 670 616 684 614 c 1
 692 610 696 604 696 598 c 0
 696 590 690 584 678 576 c 1
 624 554 576 546 538 544 c 0
 528 544 518 544 506 544 c 1
 512 530 518 512 522 490 c 0
 528 466 530 438 530 408 c 0x48
 530 392 530 376 528 358 c 0
 524 292 514 230 500 176 c 0
 486 122 466 90 440 86 c 0
 438 86 436 86 434 86 c 0
 426 86 422 88 422 96 c 0x50
 422 106 426 120 434 142 c 0
 450 186 456 226 462 280 c 0
 462 292 464 302 464 312 c 0
 464 350 458 384 448 430 c 0
 438 474 402 494 372 494 c 0x88
 362 494 354 492 346 488 c 0
 314 468 266 436 208 350 c 0
 152 266 152 244 128 198 c 0
 108 158 90 108 80 66 c 0
 70 28 62 6 50 6 c 0
 48 6 48 6 46 6 c 0
 30 10 20 24 20 50 c 0
EndSplineSet
EndChar

StartChar: poGN
Encoding: 58409 58409 55
Width: 982
VWidth: 760
Flags: HW
HStem: 494 100<311.688 440.702> 544 76<506.736 538 878.574 961.718> 560 76<244.282 321.994> 576 38<634.934 695.644> 642 40G<786 801>
VStem: 422 78<96.8088 270.034> 464 66<166.447 464.34>
LayerCount: 2
Fore
SplineSet
560 76 m 2x88
 560 78 l 2
 560 100 580 144 616 208 c 0
 668 304 662 288 694 350 c 0
 736 432 784 512 800 540 c 0
 812 560 818 576 830 594 c 1
 828 596 l 1
 808 608 770 624 770 652 c 0
 770 662 778 680 794 682 c 1
 808 678 800 680 836 656 c 1
 856 636 898 612 930 608 c 0
 950 606 966 592 962 572 c 1
 956 558 948 554 934 554 c 0
 918 556 890 564 878 568 c 1
 872 554 866 542 854 514 c 1
 826 466 830 462 764 350 c 0
 698 238 698 238 662 174 c 1
 634 130 616 98 594 74 c 0
 582 62 576 58 570 58 c 0
 564 58 560 64 560 76 c 2x88
20 50 m 0
 20 70 26 98 36 132 c 0
 60 210 88 268 140 352 c 0
 200 450 282 530 322 558 c 1
 318 558 316 560 312 560 c 0
 272 570 244 578 232 588 c 0
 222 598 216 606 214 616 c 0
 212 626 224 630 244 634 c 0
 250 634 256 636 262 636 c 0x2a
 282 636 302 632 322 624 c 0
 350 614 378 606 402 598 c 0
 412 596 426 594 444 594 c 0x8a
 452 594 460 594 468 596 c 0
 498 600 530 604 560 612 c 0
 578 618 602 618 626 620 c 0
 630 620 630 620 634 620 c 0x4a
 654 620 670 616 684 614 c 1
 692 610 696 604 696 598 c 0
 696 590 690 584 678 576 c 1x1a
 624 554 576 546 538 544 c 0
 528 544 518 544 506 544 c 1
 512 530 518 512 522 490 c 0
 528 466 530 438 530 408 c 0x4a
 530 392 530 376 528 358 c 0
 524 292 514 230 500 176 c 0
 486 122 466 90 440 86 c 0
 438 86 436 86 434 86 c 0
 426 86 422 88 422 96 c 0x4c
 422 106 426 120 434 142 c 0
 450 186 456 226 462 280 c 0
 462 292 464 302 464 312 c 0x4a
 464 350 458 384 448 430 c 0
 438 474 402 494 372 494 c 0
 362 494 354 492 346 488 c 0
 314 468 266 436 208 350 c 0
 152 266 152 244 128 198 c 0
 108 158 90 108 80 66 c 0
 70 28 62 6 50 6 c 0
 48 6 48 6 46 6 c 0
 30 10 20 24 20 50 c 0
EndSplineSet
EndChar

StartChar: ciG1
Encoding: 58410 58410 56
Width: 926
VWidth: 620
Flags: HW
HStem: -30 124<824.284 900.006> 170 124<644.284 720.006> 412 66<516.124 695.058> 430 42<621.404 699.144> 730 84<299.742 441.15>
VStem: 20 52<232.194 352.142> 466 62<472 672.22> 604 122<174.655 288.762> 784 122<-25.3452 88.7614>
LayerCount: 2
Fore
SplineSet
784 26 m 0xcf80
 784 44 790 58 802 70 c 0
 816 84 828 92 848 94 c 0
 850 94 850 94 852 94 c 0
 870 94 888 80 902 56 c 0
 904 50 906 42 906 36 c 0
 906 24 900 10 888 -6 c 0
 874 -24 862 -30 846 -30 c 0
 840 -30 830 -28 824 -26 c 0
 798 -12 784 0 784 26 c 0xcf80
604 226 m 0
 604 244 610 258 622 270 c 0
 636 284 648 292 668 294 c 0
 670 294 670 294 672 294 c 0
 690 294 708 280 722 256 c 0
 724 250 726 242 726 236 c 0
 726 224 720 210 708 194 c 0
 694 176 682 170 666 170 c 0
 660 170 650 172 644 174 c 0
 618 188 604 200 604 226 c 0
20 276 m 0
 20 298 26 326 36 360 c 0
 60 436 98 516 150 600 c 0
 202 684 258 742 316 786 c 0
 344 808 376 814 402 814 c 0
 428 814 450 808 458 800 c 1
 470 792 494 784 506 742 c 0
 516 704 528 662 528 606 c 0
 528 600 528 592 528 584 c 0
 524 546 520 508 516 472 c 1xdf80
 556 476 590 478 620 478 c 0xef80
 650 478 676 476 696 472 c 1
 698 456 700 448 700 444 c 0
 700 440 694 434 684 430 c 0xdf80
 670 424 638 420 586 416 c 0
 560 414 540 412 524 412 c 0xef80
 508 412 496 414 492 416 c 0
 464 426 452 436 456 452 c 0
 460 468 460 490 464 518 c 0
 466 534 466 548 466 562 c 0
 466 600 460 636 448 674 c 0
 434 712 406 730 380 730 c 0
 376 730 372 728 368 728 c 0
 310 710 260 668 218 608 c 0
 176 548 148 492 128 438 c 0
 118 410 110 388 102 366 c 0
 92 332 92 332 84 304 c 0
 80 286 76 268 72 252 c 0
 68 238 64 230 52 230 c 0
 50 230 46 232 44 232 c 0
 28 236 20 250 20 276 c 0
EndSplineSet
EndChar

StartChar: clSsu1sut1
Encoding: 58411 58411 57
Width: 1080
VWidth: 620
Flags: HW
HStem: 20 74<772.53 1040.96> 22 58<752.006 910.822 942.614 1057.03> 170 124<644.284 720.006> 412 66<516.124 695.058> 430 42<621.404 699.144> 730 84<299.742 441.15>
VStem: 20 52<232.194 352.142> 466 62<472 672.22> 604 122<174.655 288.762>
LayerCount: 2
Fore
SplineSet
744 66 m 0x6780
 744 72 752 76 764 80 c 0x6780
 792 88 846 92 914 94 c 0
 924 94 932 94 940 94 c 0
 996 94 1036 90 1060 86 c 1
 1060 82 1060 76 1060 72 c 0
 1060 52 1054 38 1042 32 c 0
 1020 22 984 20 930 20 c 0xa780
 876 20 824 20 770 22 c 1
 758 38 750 54 746 62 c 0
 746 64 744 64 744 66 c 0x6780
604 226 m 0
 604 244 610 258 622 270 c 0
 636 284 648 292 668 294 c 0
 670 294 670 294 672 294 c 0
 690 294 708 280 722 256 c 0
 724 250 726 242 726 236 c 0
 726 224 720 210 708 194 c 0
 694 176 682 170 666 170 c 0
 660 170 650 172 644 174 c 0
 618 188 604 200 604 226 c 0
20 276 m 0
 20 298 26 326 36 360 c 0
 60 436 98 516 150 600 c 0
 202 684 258 742 316 786 c 0
 344 808 376 814 402 814 c 0
 428 814 450 808 458 800 c 1
 470 792 494 784 506 742 c 0
 516 704 528 662 528 606 c 0
 528 600 528 592 528 584 c 0
 524 546 520 508 516 472 c 1x2f80
 556 476 590 478 620 478 c 0x3780
 650 478 676 476 696 472 c 1
 698 456 700 448 700 444 c 0
 700 440 694 434 684 430 c 0x2f80
 670 424 638 420 586 416 c 0
 560 414 540 412 524 412 c 0x3780
 508 412 496 414 492 416 c 0
 464 426 452 436 456 452 c 0
 460 468 460 490 464 518 c 0
 466 534 466 548 466 562 c 0
 466 600 460 636 448 674 c 0
 434 712 406 730 380 730 c 0
 376 730 372 728 368 728 c 0
 310 710 260 668 218 608 c 0
 176 548 148 492 128 438 c 0
 118 410 110 388 102 366 c 0
 92 332 92 332 84 304 c 0
 80 286 76 268 72 252 c 0
 68 238 64 230 52 230 c 0
 50 230 46 232 44 232 c 0
 28 236 20 250 20 276 c 0
EndSplineSet
EndChar

StartChar: clSsux1
Encoding: 58412 58412 58
Width: 810
VWidth: 620
Flags: HW
HStem: 206 66<516.124 695.058> 224 42<621.404 699.144> 524 84<299.742 441.15>
VStem: 20 52<26.1948 146.141> 466 62<266 466.22> 722 68.31<-37.6724 66>
LayerCount: 2
Fore
SplineSet
604 -126 m 0x3c
 604 -122 610 -116 616 -112 c 0
 628 -102 650 -82 684 -56 c 0
 706 -40 720 -22 722 -6 c 0
 724 2 720 12 718 20 c 0
 714 30 700 38 680 46 c 0
 660 54 650 60 650 68 c 0
 650 86 660 102 674 116 c 0
 686 128 702 132 718 130 c 0
 722 130 724 126 728 126 c 0
 760 112 782 90 788 66 c 0
 789.69 60.9277 790.31 55.8564 790.31 50.6338 c 0
 790.31 43.499 789.154 36.083 788 28 c 0
 786 16 782 6 776 -8 c 0
 764 -34 740 -58 710 -82 c 0
 680 -106 650 -120 618 -134 c 0
 616 -136 616 -136 614 -136 c 2
 606 -130 l 2
 604 -128 604 -128 604 -126 c 0x3c
20 70 m 0
 20 92 26 120 36 154 c 0
 60 230 98 310 150 394 c 0
 202 478 258 536 316 580 c 0
 344 602 376 608 402 608 c 0
 428 608 450 602 458 594 c 1
 470 586 494 578 506 536 c 0
 516 498 528 456 528 400 c 0
 528 394 528 386 528 378 c 0
 524 340 520 302 516 266 c 1x7c
 556 270 590 272 620 272 c 0xbc
 650 272 676 270 696 266 c 1
 698 250 700 242 700 238 c 0
 700 234 694 228 684 224 c 0x7c
 670 218 638 214 586 210 c 0
 560 208 540 206 524 206 c 0xbc
 508 206 496 208 492 210 c 0
 464 220 452 230 456 246 c 0
 460 262 460 284 464 312 c 0
 466 328 466 342 466 356 c 0
 466 394 460 430 448 468 c 0
 434 506 406 524 380 524 c 0
 376 524 372 522 368 522 c 0
 310 504 260 462 218 402 c 0
 176 342 148 286 128 232 c 0
 118 204 110 182 102 160 c 0
 92 126 92 126 84 98 c 0
 80 80 76 62 72 46 c 0
 68 32 64 24 52 24 c 0
 50 24 46 26 44 26 c 0
 28 30 20 44 20 70 c 0
EndSplineSet
EndChar

StartChar: clSsut1sux1
Encoding: 58413 58413 59
Width: 960
VWidth: 620
Flags: HW
HStem: 244 74<548.672 840.958> 246 58<552.006 710.822 742.614 857.03> 434 66<516.124 695.058> 452 42<621.404 699.144> 752 84<299.742 441.15>
VStem: 20 52<254.194 374.142> 466 62<494 694.22> 872 68.31<-37.6724 66>
LayerCount: 2
Fore
SplineSet
754 -126 m 0x0f
 754 -122 760 -116 766 -112 c 0
 778 -102 800 -82 834 -56 c 0
 856 -40 870 -22 872 -6 c 0
 874 2 870 12 868 20 c 0
 864 30 850 38 830 46 c 0
 810 54 800 60 800 68 c 0
 800 86 810 102 824 116 c 0
 836 128 852 132 868 130 c 0
 872 130 874 126 878 126 c 0
 910 112 932 90 938 66 c 0
 939.69 60.9277 940.31 55.8564 940.31 50.6338 c 0
 940.31 43.499 939.154 36.083 938 28 c 0
 936 16 932 6 926 -8 c 0
 914 -34 890 -58 860 -82 c 0
 830 -106 800 -120 768 -134 c 0
 766 -136 766 -136 764 -136 c 2
 756 -130 l 2
 754 -128 754 -128 754 -126 c 0x0f
544 290 m 0
 544 296 552 300 564 304 c 0x4f
 592 312 646 316 714 318 c 0
 724 318 732 318 740 318 c 0
 796 318 836 314 860 310 c 1
 860 306 860 300 860 296 c 0
 860 276 854 262 842 256 c 0
 820 246 784 244 730 244 c 0x8f
 676 244 624 244 570 246 c 1x4f
 558 262 550 278 546 286 c 0
 546 288 544 288 544 290 c 0
20 298 m 0
 20 320 26 348 36 382 c 0
 60 458 98 538 150 622 c 0
 202 706 258 764 316 808 c 0
 344 830 376 836 402 836 c 0
 428 836 450 830 458 822 c 1
 470 814 494 806 506 764 c 0
 516 726 528 684 528 628 c 0
 528 622 528 614 528 606 c 0
 524 568 520 530 516 494 c 1x1f
 556 498 590 500 620 500 c 0x2f
 650 500 676 498 696 494 c 1
 698 478 700 470 700 466 c 0
 700 462 694 456 684 452 c 0x1f
 670 446 638 442 586 438 c 0
 560 436 540 434 524 434 c 0x2f
 508 434 496 436 492 438 c 0
 464 448 452 458 456 474 c 0
 460 490 460 512 464 540 c 0
 466 556 466 570 466 584 c 0
 466 622 460 658 448 696 c 0
 434 734 406 752 380 752 c 0
 376 752 372 750 368 750 c 0
 310 732 260 690 218 630 c 0
 176 570 148 514 128 460 c 0
 118 432 110 410 102 388 c 0
 92 354 92 354 84 326 c 0
 80 308 76 290 72 274 c 0
 68 260 64 252 52 252 c 0
 50 252 46 254 44 254 c 0
 28 258 20 272 20 298 c 0
EndSplineSet
EndChar

StartChar: clSsut2
Encoding: 58414 58414 60
Width: 1030
VWidth: 620
Flags: HW
HStem: 20 74<752.25 993.054> 22 58<733.91 877.104 904.334 1007.16> 220 74<568.658 831.054> 222 58<571.91 713.106 742.334 845.164> 410 66<516.124 695.058> 428 42<621.404 699.144> 728 84<299.742 441.15>
VStem: 20 52<230.194 350.142> 466 62<470 670.22>
LayerCount: 2
Fore
SplineSet
726 66 m 0x4380
 726 72 734 76 744 80 c 0x4380
 770 88 818 92 880 94 c 0
 888 94 894 94 902 94 c 0
 952 94 988 90 1010 86 c 1
 1010 82 1010 76 1010 72 c 0
 1010 52 1004 38 994 32 c 0
 974 22 942 20 894 20 c 0x8380
 846 20 798 20 750 22 c 1
 740 38 732 54 728 62 c 0
 728 64 726 64 726 66 c 0x4380
564 266 m 0
 564 272 572 276 582 280 c 0x1380
 608 288 654 292 716 294 c 0
 724 294 732 294 740 294 c 0
 790 294 826 290 848 286 c 1
 848 282 848 276 848 272 c 0
 848 252 842 238 832 232 c 0
 812 222 780 220 732 220 c 0x2380
 684 220 636 220 588 222 c 1x1380
 578 238 570 254 566 262 c 0
 566 264 564 264 564 266 c 0
20 274 m 0
 20 296 26 324 36 358 c 0
 60 434 98 514 150 598 c 0
 202 682 258 740 316 784 c 0
 344 806 376 812 402 812 c 0
 428 812 450 806 458 798 c 1
 470 790 494 782 506 740 c 0
 516 702 528 660 528 604 c 0
 528 598 528 590 528 582 c 0
 524 544 520 506 516 470 c 1x0780
 556 474 590 476 620 476 c 0x0b80
 650 476 676 474 696 470 c 1
 698 454 700 446 700 442 c 0
 700 438 694 432 684 428 c 0x0780
 670 422 638 418 586 414 c 0
 560 412 540 410 524 410 c 0x0b80
 508 410 496 412 492 414 c 0
 464 424 452 434 456 450 c 0
 460 466 460 488 464 516 c 0
 466 532 466 546 466 560 c 0
 466 598 460 634 448 672 c 0
 434 710 406 728 380 728 c 0
 376 728 372 726 368 726 c 0
 310 708 260 666 218 606 c 0
 176 546 148 490 128 436 c 0
 118 408 110 386 102 364 c 0
 92 330 92 330 84 302 c 0
 80 284 76 266 72 250 c 0
 68 236 64 228 52 228 c 0
 50 228 46 230 44 230 c 0
 28 234 20 248 20 274 c 0
EndSplineSet
EndChar

StartChar: clN1su2
Encoding: 58415 58415 61
Width: 846
VWidth: 620
Flags: HW
HStem: -30 124<744.284 820.006> 170 124<564.284 640.006> 412 66<516.428 662> 734 84<300.95 436.236>
VStem: 20 52<232.194 343.906> 524 122<174.655 288.762> 664 44<332.982 422 476 507.04> 704 122<-25.3452 88.7614>
LayerCount: 2
Fore
SplineSet
20 278 m 0xfe
 20 298 26 324 36 358 c 0
 60 434 100 516 152 600 c 0
 204 684 246 736 304 780 c 0
 338 806 368 818 398 818 c 0
 418 818 438 812 458 800 c 1
 484 780 492 768 504 736 c 0
 518 694 524 648 528 584 c 1
 524 546 520 508 516 472 c 1
 552 476 582 478 610 478 c 0
 630 478 648 478 664 476 c 1
 664 482 662 490 664 496 c 1
 674 504 684 506 688 508 c 0
 692 510 694 504 698 496 c 1
 702 478 708 450 708 410 c 0
 708 370 706 344 702 328 c 1
 684 326 674 332 670 340 c 0
 666 350 662 370 662 392 c 0
 662 396 662 400 662 404 c 0
 664 410 662 418 662 422 c 1
 644 418 620 420 586 416 c 0
 560 414 540 412 524 412 c 0
 508 412 500 414 494 416 c 0
 466 426 452 434 456 450 c 0
 460 466 460 488 464 516 c 0
 466 528 466 542 466 556 c 0
 466 598 458 640 442 680 c 0
 430 712 402 734 374 734 c 0
 366 734 358 732 350 728 c 0
 298 706 260 668 218 608 c 0
 176 548 148 490 128 436 c 0
 118 408 112 386 104 364 c 0
 94 330 92 330 84 302 c 0
 80 284 76 266 72 250 c 0
 68 238 64 230 54 230 c 0
 52 230 50 232 46 232 c 0
 30 236 20 250 20 278 c 0xfe
704 26 m 0xfd
 704 44 710 58 722 70 c 0
 736 84 748 92 768 94 c 0
 770 94 770 94 772 94 c 0
 790 94 808 80 822 56 c 0
 824 50 826 42 826 36 c 0
 826 24 820 10 808 -6 c 0
 794 -24 782 -30 766 -30 c 0
 760 -30 750 -28 744 -26 c 0
 718 -12 704 0 704 26 c 0xfd
524 226 m 0
 524 244 530 258 542 270 c 0
 556 284 568 292 588 294 c 0
 590 294 590 294 592 294 c 0
 610 294 628 280 642 256 c 0
 644 250 646 242 646 236 c 0
 646 224 640 210 628 194 c 0
 614 176 602 170 586 170 c 0
 580 170 570 172 564 174 c 0
 538 188 524 200 524 226 c 0
EndSplineSet
EndChar

StartChar: poG1
Encoding: 58416 58416 62
Width: 886
VWidth: 740
Flags: HW
HStem: 0 42G<38 56> 0 42G<38 56> 488 96<332.776 440.382> 578 40G<837 852>
VStem: 422 78<90.8088 264.034> 464 66<160.447 458.34>
LayerCount: 2
Fore
SplineSet
536 70 m 2x10
 536 72 l 2
 536 94 556 138 592 202 c 0
 644 298 638 282 670 344 c 0
 692 388 720 434 732 460 c 0
 744 486 756 512 770 538 c 0
 784 564 786 568 802 588 c 0
 818 608 830 618 844 618 c 2
 846 618 l 2
 858 618 866 608 866 596 c 0
 866 590 866 588 860 574 c 0
 850 554 846 544 830 508 c 1
 802 460 806 456 740 344 c 0
 674 232 674 232 638 168 c 1
 610 124 592 92 570 68 c 0
 558 56 552 52 546 52 c 0
 540 52 536 58 536 70 c 2x10
20 44 m 0
 20 64 26 92 36 126 c 0
 60 204 88 262 140 346 c 0
 206 452 296 536 332 558 c 0
 348 568 400 584 426 584 c 0
 428 584 430 584 432 584 c 0
 458 578 480 568 494 556 c 0
 504 546 514 520 522 484 c 0
 528 460 530 432 530 402 c 0xa4
 530 386 530 370 528 352 c 0
 524 286 514 224 500 170 c 0
 486 116 466 84 440 80 c 0
 438 80 436 80 434 80 c 0
 426 80 422 82 422 90 c 0xa8
 422 100 426 114 434 136 c 0
 450 180 456 220 462 274 c 0
 462 286 464 296 464 306 c 0
 464 344 458 378 448 424 c 0
 438 468 402 488 372 488 c 0
 362 488 354 486 346 482 c 0
 314 462 266 430 208 344 c 0
 152 260 152 238 128 192 c 0
 108 152 90 102 80 60 c 0
 70 22 62 0 50 0 c 0
 48 0 48 0 46 0 c 0xa4
 30 4 20 18 20 44 c 0
EndSplineSet
EndChar

StartChar: poGN1
Encoding: 58417 58417 63
Width: 962
VWidth: 756
Flags: HW
HStem: 0 42G<38 56> 0 42G<38 56> 488 96<332.776 440.382> 642 40G<766 781>
VStem: 422 78<90.8088 264.034> 464 66<160.447 458.34>
LayerCount: 2
Fore
SplineSet
540 76 m 2x30
 540 78 l 2
 540 100 560 144 596 208 c 0
 648 304 642 288 674 350 c 0
 716 432 764 512 780 540 c 0
 792 560 798 576 810 594 c 1
 808 596 l 1
 788 608 750 624 750 652 c 0
 750 662 758 680 774 682 c 1
 788 678 780 680 816 656 c 1
 836 636 878 612 910 608 c 0
 930 606 946 592 942 572 c 1
 936 558 928 554 914 554 c 0
 898 556 870 564 858 568 c 1
 852 554 846 542 834 514 c 1
 806 466 810 462 744 350 c 0
 678 238 678 238 642 174 c 1
 614 130 596 98 574 74 c 0
 562 62 556 58 550 58 c 0
 544 58 540 64 540 76 c 2x30
20 44 m 0
 20 64 26 92 36 126 c 0
 60 204 88 262 140 346 c 0
 206 452 296 536 332 558 c 0
 348 568 400 584 426 584 c 0
 428 584 430 584 432 584 c 0
 458 578 480 568 494 556 c 0
 504 546 514 520 522 484 c 0
 528 460 530 432 530 402 c 0xb4
 530 386 530 370 528 352 c 0
 524 286 514 224 500 170 c 0
 486 116 466 84 440 80 c 0
 438 80 436 80 434 80 c 0
 426 80 422 82 422 90 c 0xb8
 422 100 426 114 434 136 c 0
 450 180 456 220 462 274 c 0
 462 286 464 296 464 306 c 0
 464 344 458 378 448 424 c 0
 438 468 402 488 372 488 c 0
 362 488 354 486 346 482 c 0
 314 462 266 430 208 344 c 0
 152 260 152 238 128 192 c 0
 108 152 90 102 80 60 c 0
 70 22 62 0 50 0 c 0
 48 0 48 0 46 0 c 0xb4
 30 4 20 18 20 44 c 0
EndSplineSet
EndChar

StartChar: clN
Encoding: 58418 58418 64
Width: 716
VWidth: 760
Flags: HW
HStem: 494 100<311.688 440.702> 558 36<312 402> 560 76<244.282 321.814>
VStem: 422 78<96.8088 270.034> 464 66<166.447 464.34>
LayerCount: 2
Fore
SplineSet
20 50 m 0x88
 20 70 26 98 36 132 c 0
 60 210 88 268 140 352 c 0
 200 450 282 530 322 558 c 1x48
 318 558 316 560 312 560 c 0
 272 570 244 578 232 588 c 0
 222 598 216 606 214 616 c 0
 212 626 224 630 244 634 c 0
 250 634 256 636 262 636 c 0x28
 282 636 302 632 322 624 c 0
 350 614 378 606 402 598 c 0
 412 596 426 594 444 594 c 0
 452 594 460 594 468 596 c 0
 498 600 530 604 560 612 c 0
 578 618 602 618 626 620 c 0
 630 620 630 620 634 620 c 0
 654 620 670 616 684 614 c 1
 692 610 696 604 696 598 c 0
 696 590 690 584 678 576 c 1
 624 554 576 546 538 544 c 0
 528 544 518 544 506 544 c 1
 512 530 518 512 522 490 c 0
 528 466 530 438 530 408 c 0x48
 530 392 530 376 528 358 c 0
 524 292 514 230 500 176 c 0
 486 122 466 90 440 86 c 0
 438 86 436 86 434 86 c 0
 426 86 422 88 422 96 c 0x50
 422 106 426 120 434 142 c 0
 450 186 456 226 462 280 c 0
 462 292 464 302 464 312 c 0
 464 350 458 384 448 430 c 0
 438 474 402 494 372 494 c 0
 362 494 354 492 346 488 c 0
 314 468 266 436 208 350 c 0
 152 266 152 244 128 198 c 0
 108 158 90 108 80 66 c 0
 70 28 62 6 50 6 c 0
 48 6 48 6 46 6 c 0
 30 10 20 24 20 50 c 0x88
EndSplineSet
EndChar

StartChar: clNB1
Encoding: 58420 58420 65
Width: 716
VWidth: 760
Flags: HW
HStem: 40 48<350.22 455.796> 558 36<312 402> 560 76<244.282 321.814>
VStem: 466 64<94.449 167.551 284.486 459.648>
LayerCount: 2
Fore
SplineSet
20 50 m 0xd0
 20 70 26 98 36 132 c 0
 60 210 88 268 140 352 c 0
 200 450 282 530 322 558 c 1xd0
 318 558 316 560 312 560 c 0
 272 570 244 578 232 588 c 0
 222 598 216 606 214 616 c 0
 212 626 224 630 244 634 c 0
 250 634 256 636 262 636 c 0xb0
 282 636 302 632 322 624 c 0
 350 614 378 606 402 598 c 0
 412 596 426 594 444 594 c 0
 452 594 460 594 468 596 c 0
 498 600 530 604 560 612 c 0
 578 618 602 618 626 620 c 0
 630 620 630 620 634 620 c 0
 654 620 670 616 684 614 c 1
 692 610 696 604 696 598 c 0
 696 590 690 584 678 576 c 1
 624 554 576 546 538 544 c 0
 528 544 518 544 506 544 c 1
 512 530 518 512 522 490 c 0
 528 466 530 438 530 408 c 0
 530 404 530 398 530 394 c 0
 530 380 530 370 524 344 c 0
 510 274 470 230 460 220 c 1
 486 206 492 186 506 162 c 0
 512 152 518 134 518 114 c 0
 518 102 516 92 510 80 c 0
 498 54 462 42 426 40 c 0
 422 40 416 40 412 40 c 0
 384 40 350 46 350 66 c 0
 350 86 372 82 400 88 c 0
 426 92 452 96 456 108 c 0
 460 124 458 140 438 164 c 0
 420 184 384 202 384 214 c 0
 384 216 384 218 386 220 c 0
 410 240 462 322 466 350 c 0
 466 354 466 356 466 360 c 0
 466 386 454 424 444 444 c 0
 430 470 416 486 388 494 c 0
 378 496 354 492 346 488 c 0
 314 468 266 436 208 350 c 0
 152 266 152 244 128 198 c 0
 108 158 90 108 80 66 c 0
 70 28 62 6 50 6 c 0
 48 6 48 6 46 6 c 0
 30 10 20 24 20 50 c 0xd0
EndSplineSet
EndChar

StartChar: clB1
Encoding: 58421 58421 66
Width: 550
VWidth: 760
Flags: HW
HStem: 40 48<350.22 455.796> 494 96<346.386 440.05>
VStem: 20 60<6.19484 156.031> 466 64<94.449 167.551 284.486 459.648>
LayerCount: 2
Fore
SplineSet
522 490 m 0
 528 466 530 438 530 408 c 0
 530 404 530 398 530 394 c 0
 530 380 530 370 524 344 c 0
 510 274 470 230 460 220 c 1
 486 206 492 186 506 162 c 0
 512 152 518 134 518 114 c 0
 518 102 516 92 510 80 c 0
 498 54 462 42 426 40 c 0
 422 40 416 40 412 40 c 0
 384 40 350 46 350 66 c 0
 350 86 372 82 400 88 c 0
 426 92 452 96 456 108 c 0
 460 124 458 140 438 164 c 0
 420 184 384 202 384 214 c 0
 384 216 384 218 386 220 c 0
 410 240 462 322 466 350 c 0
 466 354 466 356 466 360 c 0
 466 386 454 424 444 444 c 0
 430 470 416 486 388 494 c 0
 378 496 354 492 346 488 c 0
 314 468 266 436 208 350 c 0
 152 266 152 244 128 198 c 0
 108 158 90 108 80 66 c 0
 70 28 62 6 50 6 c 0
 48 6 48 6 46 6 c 0
 30 10 20 24 20 50 c 0
 20 70 26 98 36 132 c 0
 60 210 88 268 140 352 c 0
 159.722 384.212 178.255 410.206 197.541 432.718 c 0
 250.916 499.064 305.78 547.976 332 564 c 0
 348 574 400 590 426 590 c 0
 428 590 430 590 432 590 c 0
 458 584 480 574 494 562 c 0
 504 552 514 526 522 490 c 0
EndSplineSet
EndChar

StartChar: ciMN
Encoding: 58422 58422 67
Width: 836
VWidth: 690
Flags: HW
HStem: -4 42G<778.52 785.52> 290 124<444.804 520.526> 618 48<435.27 498.424> 724.398 40G<338.136 341.862>
VStem: 404.52 122<294.654 408.762>
LayerCount: 2
Fore
SplineSet
592.52 166 m 1
 594.52 184 596.52 198 600.52 206 c 0
 602.52 210 608.52 210 612.52 210 c 0
 616.52 210 620.52 210 626.52 206 c 0
 650.52 194 686.52 164 730.52 120 c 0
 774.52 76 802.52 42 816.52 22 c 1
 804.52 6 790.52 -4 780.52 -4 c 0
 776.52 -4 776.52 -4 772.52 -2 c 0
 752.52 6 724.52 26 692.52 62 c 0
 660.52 98 624.52 130 592.52 166 c 1
404.52 346 m 0
 404.52 364 410.52 378 422.52 390 c 0
 436.52 404 448.52 412 468.52 414 c 0
 470.52 414 470.52 414 472.52 414 c 0
 490.52 414 508.52 400 522.52 376 c 0
 524.52 370 526.52 362 526.52 356 c 0
 526.52 344 520.52 330 508.52 314 c 0
 494.52 296 482.52 290 466.52 290 c 0
 460.52 290 450.52 292 444.52 294 c 0
 418.52 308 404.52 320 404.52 346 c 0
315.798 733.744 m 0
 315.798 742.778 319.286 748.764 326.52 756 c 0
 329.974 759.454 334.918 764.398 341.352 764.398 c 0
 342.372 764.398 343.426 764.274 344.52 764 c 0
 358.52 758 352.52 758 384.52 730 c 1
 394.52 718 412.52 704 428.52 694 c 0
 444.52 684 456.52 676 470.52 672 c 0
 474.52 670 480.52 670 484.52 666 c 0
 492.69 659.872 501.02 652.762 501.02 642.5 c 0
 501.02 641 500.52 639 498.52 634 c 0
 496.52 630 492.52 630 490.52 628 c 0
 484.52 622 478.52 618 468.52 618 c 0
 458.52 620 448.52 624 436.52 628 c 0
 427.472 631.878 421.766 634.92 416.702 637.666 c 1
 407.382 624.968 400.004 613.43 382.52 588 c 1
 346.52 546 350.52 540 266.52 442 c 0
 182.52 344 182.52 342 136.52 286 c 1
 102.52 248 80.5195 220 54.5195 200 c 0
 42.8535 191.666 36.7422 187.5 31.5566 187.5 c 0
 30.5195 187.5 29.5195 187.666 28.5195 188 c 0
 22.5195 190 18.5195 196 20.5195 208 c 1
 20.5195 210 l 1
 24.5195 232 52.5195 272 98.5195 328 c 0
 166.52 414 156.52 398 198.52 454 c 0
 228.52 494 262.52 534 278.52 558 c 0
 294.52 582 312.52 604 330.52 628 c 0
 348.52 652 350.52 654 370.52 670 c 0
 370.782 670.21 371.044 670.42 371.304 670.628 c 2
 356.52 682 l 2
 348.52 690 332.52 700 324.52 710 c 0
 318.408 717.64 315.798 726.446 315.798 733.744 c 0
EndSplineSet
EndChar

StartChar: ciN
Encoding: 58423 58423 68
Width: 720
VWidth: 690
Flags: HW
HStem: 0 124<618.804 694.526> 200 124<438.804 514.526> 644 40G<347.878 363.52>
VStem: 398.52 122<204.654 318.762> 578.52 122<4.65484 118.761>
LayerCount: 2
Fore
SplineSet
578.52 56 m 0
 578.52 74 584.52 88 596.52 100 c 0
 610.52 114 622.52 122 642.52 124 c 0
 644.52 124 644.52 124 646.52 124 c 0
 664.52 124 682.52 110 696.52 86 c 0
 698.52 80 700.52 72 700.52 66 c 0
 700.52 54 694.52 40 682.52 24 c 0
 668.52 6 656.52 0 640.52 0 c 0
 634.52 0 624.52 2 618.52 4 c 0
 592.52 18 578.52 30 578.52 56 c 0
398.52 256 m 0
 398.52 274 404.52 288 416.52 300 c 0
 430.52 314 442.52 322 462.52 324 c 0
 464.52 324 464.52 324 466.52 324 c 0
 484.52 324 502.52 310 516.52 286 c 0
 518.52 280 520.52 272 520.52 266 c 0
 520.52 254 514.52 240 502.52 224 c 0
 488.52 206 476.52 200 460.52 200 c 0
 454.52 200 444.52 202 438.52 204 c 0
 412.52 218 398.52 230 398.52 256 c 0
20.5195 130 m 1
 20.5195 132 l 1
 24.5195 154 52.5195 194 98.5195 250 c 0
 166.52 336 158.52 320 200.52 376 c 0
 256.52 450 316.52 520 336.52 544 c 0
 352.52 562 362.52 576 376.52 592 c 1
 374.52 594 l 2
 357.506 609.124 326.196 629.608 326.196 655.454 c 0
 326.196 668.944 339.234 684 356.52 684 c 1
 370.52 678 360.52 682 392.52 652 c 1
 408.52 628 446.52 598 476.52 588 c 0
 492.604 583.174 504.81 571.88 504.81 558.28 c 0
 504.81 554.97 504.086 551.524 502.52 548 c 0
 494.52 536 486.52 532 472.52 534 c 0
 456.52 538 430.52 552 418.52 558 c 1
 410.52 546 402.52 536 386.52 510 c 1
 350.52 468 352.52 462 268.52 364 c 0
 184.52 266 184.52 264 138.52 208 c 1
 102.52 170 80.5195 142 54.5195 122 c 0
 42.8535 113.666 36.7422 109.5 31.5566 109.5 c 0
 30.5195 109.5 29.5195 109.666 28.5195 110 c 0
 22.5195 112 18.5195 118 20.5195 130 c 1
EndSplineSet
EndChar

StartChar: viNsu2suw1
Encoding: 58424 58424 69
Width: 1016
VWidth: 690
Flags: HW
HStem: 288 124<624.804 700.526> 488 124<444.804 520.526> 818 48<435.27 498.424>
VStem: 404.52 122<492.654 606.762> 584.52 122<292.654 406.762>
LayerCount: 2
Fore
SplineSet
772.52 164 m 1
 774.52 182 776.52 196 780.52 204 c 0
 782.52 208 788.52 208 792.52 208 c 0
 796.52 208 800.52 208 806.52 204 c 0
 830.52 192 866.52 160 910.52 116 c 0
 954.52 72 982.52 40 996.52 20 c 1
 984.52 4 970.52 -6 960.52 -6 c 0
 956.52 -6 956.52 -6 952.52 -4 c 0
 932.52 4 904.52 24 872.52 60 c 0
 840.52 96 804.52 128 772.52 164 c 1
584.52 344 m 0
 584.52 362 590.52 376 602.52 388 c 0
 616.52 402 628.52 410 648.52 412 c 0
 650.52 412 650.52 412 652.52 412 c 0
 670.52 412 688.52 398 702.52 374 c 0
 704.52 368 706.52 360 706.52 354 c 0
 706.52 342 700.52 328 688.52 312 c 0
 674.52 294 662.52 288 646.52 288 c 0
 640.52 288 630.52 290 624.52 292 c 0
 598.52 306 584.52 318 584.52 344 c 0
404.52 544 m 0
 404.52 562 410.52 576 422.52 588 c 0
 436.52 602 448.52 610 468.52 612 c 0
 470.52 612 470.52 612 472.52 612 c 0
 490.52 612 508.52 598 522.52 574 c 0
 524.52 568 526.52 560 526.52 554 c 0
 526.52 542 520.52 528 508.52 512 c 0
 494.52 494 482.52 488 466.52 488 c 0
 460.52 488 450.52 490 444.52 492 c 0
 418.52 506 404.52 518 404.52 544 c 0
316.52 940 m 0
 318.52 944 320.52 950 326.52 956 c 0
 329.974 959.454 334.918 964.398 341.352 964.398 c 0
 342.372 964.398 343.426 964.274 344.52 964 c 0
 358.52 958 352.52 958 384.52 930 c 1
 394.52 918 412.52 904 428.52 894 c 0
 444.52 884 456.52 876 470.52 872 c 0
 474.52 870 480.52 870 484.52 866 c 0
 492.52 860 496.52 854 500.52 848 c 1
 500.52 842 502.52 844 498.52 834 c 0
 496.52 830 492.52 830 490.52 828 c 0
 484.52 822 478.52 818 468.52 818 c 0
 458.52 820 448.52 824 436.52 828 c 0
 427.472 831.878 421.766 834.92 416.702 837.666 c 1
 407.382 824.968 400.004 813.43 382.52 788 c 1
 346.52 746 350.52 740 266.52 642 c 0
 182.52 544 182.52 542 136.52 486 c 1
 102.52 448 80.5195 420 54.5195 400 c 0
 40.5195 390 34.5195 386 28.5195 388 c 0
 22.5195 390 18.5195 396 20.5195 408 c 1
 20.5195 410 l 1
 24.5195 432 52.5195 472 98.5195 528 c 0
 166.52 614 156.52 598 198.52 654 c 0
 228.52 694 262.52 734 278.52 758 c 0
 294.52 782 312.52 804 330.52 828 c 0
 348.52 852 350.52 854 370.52 870 c 0
 370.782 870.21 371.044 870.42 371.304 870.628 c 2
 356.52 882 l 2
 348.52 890 332.52 900 324.52 910 c 0
 316.52 920 314.52 932 316.52 940 c 0
EndSplineSet
EndChar

StartChar: viNsu3
Encoding: 58425 58425 70
Width: 906
VWidth: 690
Flags: HW
HStem: 0 124<804.804 880.526> 200 124<624.804 700.526> 400 124<444.804 520.526> 744 48<433.122 496.424>
VStem: 404.52 122<404.654 518.762> 584.52 122<204.654 318.762> 764.52 122<4.65484 118.761>
LayerCount: 2
Fore
SplineSet
764.52 56 m 0
 764.52 74 770.52 88 782.52 100 c 0
 796.52 114 808.52 122 828.52 124 c 0
 830.52 124 830.52 124 832.52 124 c 0
 850.52 124 868.52 110 882.52 86 c 0
 884.52 80 886.52 72 886.52 66 c 0
 886.52 54 880.52 40 868.52 24 c 0
 854.52 6 842.52 0 826.52 0 c 0
 820.52 0 810.52 2 804.52 4 c 0
 778.52 18 764.52 30 764.52 56 c 0
584.52 256 m 0
 584.52 274 590.52 288 602.52 300 c 0
 616.52 314 628.52 322 648.52 324 c 0
 650.52 324 650.52 324 652.52 324 c 0
 670.52 324 688.52 310 702.52 286 c 0
 704.52 280 706.52 272 706.52 266 c 0
 706.52 254 700.52 240 688.52 224 c 0
 674.52 206 662.52 200 646.52 200 c 0
 640.52 200 630.52 202 624.52 204 c 0
 598.52 218 584.52 230 584.52 256 c 0
404.52 456 m 0
 404.52 474 410.52 488 422.52 500 c 0
 436.52 514 448.52 522 468.52 524 c 0
 470.52 524 470.52 524 472.52 524 c 0
 490.52 524 508.52 510 522.52 486 c 0
 524.52 480 526.52 472 526.52 466 c 0
 526.52 454 520.52 440 508.52 424 c 0
 494.52 406 482.52 400 466.52 400 c 0
 460.52 400 450.52 402 444.52 404 c 0
 418.52 418 404.52 430 404.52 456 c 0
314.52 866 m 0
 316.52 870 318.52 876 324.52 882 c 0
 327.974 885.454 332.918 890.398 339.352 890.398 c 0
 340.372 890.398 341.426 890.274 342.52 890 c 0
 356.52 884 350.52 884 382.52 856 c 1
 392.52 844 410.52 830 426.52 820 c 0
 442.52 810 454.52 802 468.52 798 c 0
 472.52 796 478.52 796 482.52 792 c 0
 490.52 786 494.52 780 498.52 774 c 1
 498.52 768 500.52 770 496.52 760 c 0
 494.52 756 490.52 756 488.52 754 c 0
 482.52 748 476.52 744 466.52 744 c 0
 456.52 746 446.52 750 434.52 754 c 0
 426.916 757.258 421.672 759.928 417.188 762.326 c 1
 407.634 749.362 400.306 737.87 382.52 712 c 1
 346.52 670 350.52 664 266.52 566 c 0
 182.52 468 182.52 466 136.52 410 c 1
 102.52 372 80.5195 344 54.5195 324 c 0
 40.5195 314 34.5195 310 28.5195 312 c 0
 22.5195 314 18.5195 320 20.5195 332 c 1
 20.5195 334 l 1
 24.5195 356 52.5195 396 98.5195 452 c 0
 166.52 538 156.52 522 198.52 578 c 0
 228.52 618 262.52 658 278.52 682 c 0
 294.52 706 312.52 728 330.52 752 c 0
 348.52 776 350.52 778 370.52 794 c 0
 370.882 794.29 371.242 794.578 371.6 794.862 c 2
 354.52 808 l 2
 346.52 816 330.52 826 322.52 836 c 0
 314.52 846 312.52 858 314.52 866 c 0
EndSplineSet
EndChar

StartChar: viNsu4
Encoding: 58426 58426 71
Width: 1086
VWidth: 690
Flags: HW
HStem: 0 124<984.804 1060.52> 200 124<804.804 880.524> 400 124<624.804 700.524> 600 124<444.804 520.524> 944 48<433.122 496.424>
VStem: 404.52 122<604.654 718.762> 584.52 122<404.654 518.762> 764.52 122<204.654 318.762> 944.52 122<4.65484 118.761>
LayerCount: 2
Fore
SplineSet
314.52 1066 m 0
 316.52 1070 318.52 1076 324.52 1082 c 0
 327.974 1085.45 332.918 1090.4 339.352 1090.4 c 0
 340.372 1090.4 341.426 1090.27 342.52 1090 c 0
 356.52 1084 350.52 1084 382.52 1056 c 1
 392.52 1044 410.52 1030 426.52 1020 c 0
 442.52 1010 454.52 1002 468.52 998 c 0
 472.52 996 478.52 996 482.52 992 c 0
 490.52 986 494.52 980 498.52 974 c 1
 498.52 968 500.52 970 496.52 960 c 0
 494.52 956 490.52 956 488.52 954 c 0
 482.52 948 476.52 944 466.52 944 c 0
 456.52 946 446.52 950 434.52 954 c 0
 426.916 957.258 421.672 959.928 417.188 962.326 c 1
 407.634 949.362 400.306 937.87 382.52 912 c 1
 346.52 870 350.52 864 266.52 766 c 0
 182.52 668 182.52 666 136.52 610 c 1
 102.52 572 80.5195 544 54.5195 524 c 0
 40.5195 514 34.5195 510 28.5195 512 c 0
 22.5195 514 18.5195 520 20.5195 532 c 1
 20.5195 534 l 1
 24.5195 556 52.5195 596 98.5195 652 c 0
 166.52 738 156.52 722 198.52 778 c 0
 228.52 818 262.52 858 278.52 882 c 0
 294.52 906 312.52 928 330.52 952 c 0
 348.52 976 350.52 978 370.52 994 c 0
 370.882 994.29 371.242 994.578 371.6 994.862 c 2
 354.52 1008 l 2
 346.52 1016 330.52 1026 322.52 1036 c 0
 314.52 1046 312.52 1058 314.52 1066 c 0
404.52 656 m 0
 404.52 674 410.52 688 422.52 700 c 0
 436.52 714 448.52 722 468.52 724 c 0
 470.52 724 470.52 724 472.52 724 c 0
 490.52 724 508.52 710 522.52 686 c 0
 524.52 680 526.52 672 526.52 666 c 0
 526.52 654 520.52 640 508.52 624 c 0
 494.52 606 482.52 600 466.52 600 c 0
 460.52 600 450.52 602 444.52 604 c 0
 418.52 618 404.52 630 404.52 656 c 0
944.52 56 m 0
 944.52 74 950.52 88 962.52 100 c 0
 976.52 114 988.52 122 1008.52 124 c 0
 1010.52 124 1010.52 124 1012.52 124 c 0
 1030.52 124 1048.52 110 1062.52 86 c 0
 1064.52 80 1066.52 72 1066.52 66 c 0
 1066.52 54 1060.52 40 1048.52 24 c 0
 1034.52 6 1022.52 0 1006.52 0 c 0
 1000.52 0 990.52 2 984.52 4 c 0
 958.52 18 944.52 30 944.52 56 c 0
624.52 404 m 0
 598.52 418 584.52 430 584.52 456 c 0
 584.52 474 590.52 488 602.52 500 c 0
 616.52 514 628.52 522 648.52 524 c 0
 650.52 524 650.52 524 652.52 524 c 0
 670.52 524 688.52 510 702.52 486 c 0
 704.52 480 706.52 472 706.52 466 c 0
 706.52 454 700.52 440 688.52 424 c 0
 674.52 406 662.52 400 646.52 400 c 0
 640.52 400 630.52 402 624.52 404 c 0
804.52 204 m 0
 778.52 218 764.52 230 764.52 256 c 0
 764.52 274 770.52 288 782.52 300 c 0
 796.52 314 808.52 322 828.52 324 c 0
 830.52 324 830.52 324 832.52 324 c 0
 850.52 324 868.52 310 882.52 286 c 0
 884.52 280 886.52 272 886.52 266 c 0
 886.52 254 880.52 240 868.52 224 c 0
 854.52 206 842.52 200 826.52 200 c 0
 820.52 200 810.52 202 804.52 204 c 0
EndSplineSet
EndChar

StartChar: viNsu1sux1
Encoding: 58427 58427 72
Width: 754
VWidth: 690
Flags: HW
HStem: 46 84.4902<599.098 662.326> 206 124<442.804 518.526> 550 48<433.122 496.424> 656.398 40G<336.136 339.862>
VStem: 402.52 122<210.654 324.762> 666.52 68.31<-37.6724 66>
LayerCount: 2
Fore
SplineSet
548.52 -126 m 0
 548.52 -122 554.52 -116 560.52 -112 c 0
 572.52 -102 594.52 -82 628.52 -56 c 0
 650.52 -40 664.52 -22 666.52 -6 c 0
 668.52 2 664.52 12 662.52 20 c 0
 658.52 30 644.52 38 624.52 46 c 0
 604.52 54 594.52 60 594.52 68 c 0
 594.52 86 604.52 102 618.52 116 c 0
 628.572 126.053 641.432 130.49 654.748 130.49 c 0
 657.328 130.49 659.924 130.324 662.52 130 c 0
 666.52 130 668.52 126 672.52 126 c 0
 704.52 112 726.52 90 732.52 66 c 0
 734.21 60.9277 734.83 55.8555 734.83 50.6328 c 0
 734.83 43.5 733.674 36.082 732.52 28 c 0
 730.52 16 726.52 6 720.52 -8 c 0
 708.52 -34 684.52 -58 654.52 -82 c 0
 624.52 -106 594.52 -120 562.52 -134 c 0
 560.52 -136 560.52 -136 558.52 -136 c 2
 550.52 -130 l 2
 548.52 -128 548.52 -128 548.52 -126 c 0
402.52 262 m 0
 402.52 280 408.52 294 420.52 306 c 0
 434.52 320 446.52 328 466.52 330 c 0
 468.52 330 468.52 330 470.52 330 c 0
 488.52 330 506.52 316 520.52 292 c 0
 522.52 286 524.52 278 524.52 272 c 0
 524.52 260 518.52 246 506.52 230 c 0
 492.52 212 480.52 206 464.52 206 c 0
 458.52 206 448.52 208 442.52 210 c 0
 416.52 224 402.52 236 402.52 262 c 0
314.52 672 m 0
 316.52 676 318.52 682 324.52 688 c 0
 327.974 691.454 332.918 696.398 339.352 696.398 c 0
 340.372 696.398 341.426 696.274 342.52 696 c 0
 356.52 690 350.52 690 382.52 662 c 1
 392.52 650 410.52 636 426.52 626 c 0
 442.52 616 454.52 608 468.52 604 c 0
 472.52 602 478.52 602 482.52 598 c 0
 490.52 592 494.52 586 498.52 580 c 1
 498.52 574 500.52 576 496.52 566 c 0
 494.52 562 490.52 562 488.52 560 c 0
 482.52 554 476.52 550 466.52 550 c 0
 456.52 552 446.52 556 434.52 560 c 0
 426.916 563.258 421.672 565.928 417.188 568.326 c 1
 407.634 555.362 400.306 543.87 382.52 518 c 1
 346.52 476 350.52 470 266.52 372 c 0
 182.52 274 182.52 272 136.52 216 c 1
 102.52 178 80.5195 150 54.5195 130 c 0
 40.5195 120 34.5195 116 28.5195 118 c 0
 22.5195 120 18.5195 126 20.5195 138 c 1
 20.5195 140 l 1
 24.5195 162 52.5195 202 98.5195 258 c 0
 166.52 344 156.52 328 198.52 384 c 0
 228.52 424 262.52 464 278.52 488 c 0
 294.52 512 312.52 534 330.52 558 c 0
 348.52 582 350.52 584 370.52 600 c 0
 370.882 600.29 371.242 600.578 371.6 600.862 c 2
 354.52 614 l 2
 346.52 622 330.52 632 322.52 642 c 0
 314.52 652 312.52 664 314.52 672 c 0
EndSplineSet
EndChar

StartChar: viNsu1sut1
Encoding: 58428 58428 73
Width: 878
VWidth: 690
Flags: HW
HStem: 50 74<571.05 839.478> 52 58<550.526 709.342 741.134 855.55> 200 124<442.804 518.526> 644 40G<347.878 363.52>
VStem: 402.52 122<204.654 318.762>
LayerCount: 2
Fore
SplineSet
542.52 96 m 0x78
 542.52 102 550.52 106 562.52 110 c 0x78
 590.52 118 644.52 122 712.52 124 c 0
 722.52 124 730.52 124 738.52 124 c 0
 794.52 124 834.52 120 858.52 116 c 1
 858.52 112 858.52 106 858.52 102 c 0
 858.52 82 852.52 68 840.52 62 c 0
 818.52 52 782.52 50 728.52 50 c 0xb8
 674.52 50 622.52 50 568.52 52 c 1
 556.52 68 548.52 84 544.52 92 c 0
 544.52 94 542.52 94 542.52 96 c 0x78
402.52 256 m 0
 402.52 274 408.52 288 420.52 300 c 0
 434.52 314 446.52 322 466.52 324 c 0
 468.52 324 468.52 324 470.52 324 c 0
 488.52 324 506.52 310 520.52 286 c 0
 522.52 280 524.52 272 524.52 266 c 0
 524.52 254 518.52 240 506.52 224 c 0
 492.52 206 480.52 200 464.52 200 c 0
 458.52 200 448.52 202 442.52 204 c 0
 416.52 218 402.52 230 402.52 256 c 0
20.5195 130 m 1
 20.5195 132 l 1
 24.5195 154 52.5195 194 98.5195 250 c 0
 166.52 336 158.52 320 200.52 376 c 0
 256.52 450 316.52 520 336.52 544 c 0
 352.52 562 362.52 576 376.52 592 c 1
 374.52 594 l 2
 357.506 609.124 326.196 629.608 326.196 655.454 c 0
 326.196 668.944 339.234 684 356.52 684 c 1
 370.52 678 360.52 682 392.52 652 c 1
 408.52 628 446.52 598 476.52 588 c 0
 492.604 583.174 504.81 571.88 504.81 558.28 c 0
 504.81 554.97 504.086 551.524 502.52 548 c 0
 494.52 536 486.52 532 472.52 534 c 0
 456.52 538 430.52 552 418.52 558 c 1
 410.52 546 402.52 536 386.52 510 c 1
 350.52 468 352.52 462 268.52 364 c 0
 184.52 266 184.52 264 138.52 208 c 1
 102.52 170 80.5195 142 54.5195 122 c 0
 42.8535 113.666 36.7422 109.5 31.5566 109.5 c 0
 30.5195 109.5 29.5195 109.666 28.5195 110 c 0
 22.5195 112 18.5195 118 20.5195 130 c 1
EndSplineSet
EndChar

StartChar: viNsu1suu1su1
Encoding: 58429 58429 74
Width: 906
VWidth: 690
Flags: HW
HStem: 0 124<804.804 880.526> 249.998 74<573.05 817.492> 400 124<444.804 520.524> 744 48<433.122 496.424>
VStem: 404.52 122<404.654 518.762> 764.52 122<4.65484 118.761> 822.528 48<233.608 253.688 322 360.86 361.606 379.14>
LayerCount: 2
Fore
SplineSet
404.52 456 m 4xf8
 404.52 474 410.52 488 422.52 500 c 4
 436.52 514 448.52 522 468.52 524 c 4
 470.52 524 470.52 524 472.52 524 c 4
 490.52 524 508.52 510 522.52 486 c 4
 524.52 480 526.52 472 526.52 466 c 4
 526.52 454 520.52 440 508.52 424 c 4
 494.52 406 482.52 400 466.52 400 c 4
 460.52 400 450.52 402 444.52 404 c 4
 418.52 418 404.52 430 404.52 456 c 4xf8
818.528 322 m 5
 822.528 332 818.528 347.33 822.528 357.33 c 4
 826.528 367.33 830.528 375.33 836.528 379.33 c 4
 840.528 381.33 842.528 381.33 846.528 381.33 c 4
 852.528 381.33 860.528 379.33 870.528 373.33 c 5
 872.528 367.33 872.528 367.33 872.528 361.33 c 4
 872.528 351.33 868.528 339.33 866.528 329.33 c 4
 864.054 320.678 861.586 312.026 860.528 302.9 c 6
 860.528 301.998 l 5
 860.528 299.33 l 6
 860.528 296.376 860.368 293.642 860.05 291.104 c 4
 860.128 289.204 860.286 287.284 860.528 285.33 c 4
 862.528 269.33 864.528 257.33 870.528 247.33 c 4
 872.528 241.33 872.528 239.33 872.528 233.33 c 4
 872.528 227.33 872.528 223.33 870.528 219.33 c 4
 866.528 215.33 860.528 213.33 852.528 209.33 c 4
 846.528 207.33 846.52 207.33 842.52 207.33 c 4
 836.52 207.33 834.528 211.33 828.528 217.33 c 4
 824.528 223.33 826.528 233.33 822.528 243.33 c 4xfa
 820.508 249.39 819.278 249.722 818.528 254.002 c 5
 796.528 249.998 768.521 249.998 730.52 249.998 c 4
 676.52 249.998 624.52 249.998 570.52 251.998 c 5
 558.52 267.998 550.52 283.998 546.52 291.998 c 4
 546.52 293.998 544.52 293.998 544.52 295.998 c 4
 544.52 301.998 552.52 305.998 564.52 309.998 c 4
 592.52 317.998 646.52 321.998 714.52 323.998 c 4
 724.52 323.998 732.52 323.998 740.52 323.998 c 4
 770.521 323.998 796.528 323.998 818.528 322 c 5
764.52 56 m 0xfc
 764.52 74 770.52 88 782.52 100 c 0
 796.52 114 808.52 122 828.52 124 c 0
 830.52 124 830.52 124 832.52 124 c 0
 850.52 124 868.52 110 882.52 86 c 0
 884.52 80 886.52 72 886.52 66 c 0
 886.52 54 880.52 40 868.52 24 c 0
 854.52 6 842.52 0 826.52 0 c 0
 820.52 0 810.52 2 804.52 4 c 0
 778.52 18 764.52 30 764.52 56 c 0xfc
314.52 866 m 0
 316.52 870 318.52 876 324.52 882 c 0
 327.974 885.454 332.918 890.398 339.352 890.398 c 0
 340.372 890.398 341.426 890.274 342.52 890 c 0
 356.52 884 350.52 884 382.52 856 c 1
 392.52 844 410.52 830 426.52 820 c 0
 442.52 810 454.52 802 468.52 798 c 0
 472.52 796 478.52 796 482.52 792 c 0
 490.52 786 494.52 780 498.52 774 c 1
 498.52 768 500.52 770 496.52 760 c 0
 494.52 756 490.52 756 488.52 754 c 0
 482.52 748 476.52 744 466.52 744 c 0
 456.52 746 446.52 750 434.52 754 c 0
 426.916 757.258 421.672 759.928 417.188 762.326 c 1
 407.634 749.362 400.306 737.87 382.52 712 c 1
 346.52 670 350.52 664 266.52 566 c 0
 182.52 468 182.52 466 136.52 410 c 1
 102.52 372 80.5195 344 54.5195 324 c 0
 40.5195 314 34.5195 310 28.5195 312 c 0
 22.5195 314 18.5195 320 20.5195 332 c 1
 20.5195 334 l 1
 24.5195 356 52.5195 396 98.5195 452 c 0
 166.52 538 156.52 522 198.52 578 c 0
 228.52 618 262.52 658 278.52 682 c 0
 294.52 706 312.52 728 330.52 752 c 0
 348.52 776 350.52 778 370.52 794 c 0
 370.882 794.29 371.242 794.578 371.6 794.862 c 2
 354.52 808 l 2
 346.52 816 330.52 826 322.52 836 c 0
 314.52 846 312.52 858 314.52 866 c 0
EndSplineSet
EndChar

StartChar: viNsu1suu2
Encoding: 58430 58430 75
Width: 1072
VWidth: 690
Flags: HW
HStem: 49.998 74<753.05 997.484> 249.998 74<573.05 817.484> 400 124<444.804 520.524> 744 48<433.122 496.424>
VStem: 404.52 122<404.654 518.762> 818.52 42<220.186 253.998 321.998 373.722> 998.52 42<20.1856 53.998 121.998 173.721>
LayerCount: 2
Fore
SplineSet
818.52 321.998 m 1
 822.52 331.998 818.52 347.998 822.52 357.998 c 0
 826.52 367.998 830.52 375.998 836.52 379.998 c 0
 840.52 381.998 842.52 381.998 846.52 381.998 c 0
 852.52 381.998 860.52 379.998 870.52 373.998 c 1
 872.52 367.998 872.52 367.998 872.52 361.998 c 0
 872.52 351.998 868.52 339.998 866.52 329.998 c 0
 864.52 321.998 862.52 311.998 860.52 301.998 c 2
 860.52 299.998 l 2
 860.52 297.998 860.52 293.998 860.52 291.998 c 0
 860.52 289.998 860.52 287.998 860.52 285.998 c 0
 862.52 269.998 864.52 257.998 870.52 247.998 c 0
 872.52 241.998 872.52 239.998 872.52 233.998 c 0
 872.52 227.998 872.52 223.998 870.52 219.998 c 0
 866.52 215.998 860.52 213.998 852.52 209.998 c 0
 846.52 207.998 846.52 207.998 842.52 207.998 c 0
 836.52 207.998 834.52 211.998 828.52 217.998 c 0
 824.52 223.998 826.52 233.998 822.52 243.998 c 0
 820.52 249.998 818.52 249.998 818.52 253.998 c 1
 796.52 249.998 768.52 249.998 730.52 249.998 c 0
 676.52 249.998 624.52 249.998 570.52 251.998 c 1
 558.52 267.998 550.52 283.998 546.52 291.998 c 0
 546.52 293.998 544.52 293.998 544.52 295.998 c 0
 544.52 301.998 552.52 305.998 564.52 309.998 c 0
 592.52 317.998 646.52 321.998 714.52 323.998 c 0
 724.52 323.998 732.52 323.998 740.52 323.998 c 0
 770.52 323.998 796.52 323.998 818.52 321.998 c 1
998.52 121.998 m 1
 1002.52 131.998 998.52 147.998 1002.52 157.998 c 0
 1006.52 167.998 1010.52 175.998 1016.52 179.998 c 0
 1020.52 181.998 1022.52 181.998 1026.52 181.998 c 0
 1032.52 181.998 1040.52 179.998 1050.52 173.998 c 1
 1052.52 167.998 1052.52 167.998 1052.52 161.998 c 0
 1052.52 151.998 1048.52 139.998 1046.52 129.998 c 0
 1044.52 121.998 1042.52 111.998 1040.52 101.998 c 2
 1040.52 99.998 l 2
 1040.52 97.998 1040.52 93.998 1040.52 91.998 c 0
 1040.52 89.998 1040.52 87.998 1040.52 85.998 c 0
 1042.52 69.998 1044.52 57.998 1050.52 47.998 c 0
 1052.52 41.998 1052.52 39.998 1052.52 33.998 c 0
 1052.52 27.998 1052.52 23.998 1050.52 19.998 c 0
 1046.52 15.998 1040.52 13.998 1032.52 9.99805 c 0
 1026.52 7.99805 1026.52 7.99805 1022.52 7.99805 c 0
 1016.52 7.99805 1014.52 11.998 1008.52 17.998 c 0
 1004.52 23.998 1006.52 33.998 1002.52 43.998 c 0
 1000.52 49.998 998.52 49.998 998.52 53.998 c 1
 976.52 49.998 948.52 49.998 910.52 49.998 c 0
 856.52 49.998 804.52 49.998 750.52 51.998 c 1
 738.52 67.998 730.52 83.998 726.52 91.998 c 0
 726.52 93.998 724.52 93.998 724.52 95.998 c 0
 724.52 101.998 732.52 105.998 744.52 109.998 c 0
 772.52 117.998 826.52 121.998 894.52 123.998 c 0
 904.52 123.998 912.52 123.998 920.52 123.998 c 0
 950.52 123.998 976.52 123.998 998.52 121.998 c 1
404.52 456 m 0
 404.52 474 410.52 488 422.52 500 c 0
 436.52 514 448.52 522 468.52 524 c 0
 470.52 524 470.52 524 472.52 524 c 0
 490.52 524 508.52 510 522.52 486 c 0
 524.52 480 526.52 472 526.52 466 c 0
 526.52 454 520.52 440 508.52 424 c 0
 494.52 406 482.52 400 466.52 400 c 0
 460.52 400 450.52 402 444.52 404 c 0
 418.52 418 404.52 430 404.52 456 c 0
314.52 866 m 0
 316.52 870 318.52 876 324.52 882 c 0
 327.974 885.454 332.918 890.398 339.352 890.398 c 0
 340.372 890.398 341.426 890.274 342.52 890 c 0
 356.52 884 350.52 884 382.52 856 c 1
 392.52 844 410.52 830 426.52 820 c 0
 442.52 810 454.52 802 468.52 798 c 0
 472.52 796 478.52 796 482.52 792 c 0
 490.52 786 494.52 780 498.52 774 c 1
 498.52 768 500.52 770 496.52 760 c 0
 494.52 756 490.52 756 488.52 754 c 0
 482.52 748 476.52 744 466.52 744 c 0
 456.52 746 446.52 750 434.52 754 c 0
 426.916 757.258 421.672 759.928 417.188 762.326 c 1
 407.634 749.362 400.306 737.87 382.52 712 c 1
 346.52 670 350.52 664 266.52 566 c 0
 182.52 468 182.52 466 136.52 410 c 1
 102.52 372 80.5195 344 54.5195 324 c 0
 40.5195 314 34.5195 310 28.5195 312 c 0
 22.5195 314 18.5195 320 20.5195 332 c 1
 20.5195 334 l 1
 24.5195 356 52.5195 396 98.5195 452 c 0
 166.52 538 156.52 522 198.52 578 c 0
 228.52 618 262.52 658 278.52 682 c 0
 294.52 706 312.52 728 330.52 752 c 0
 348.52 776 350.52 778 370.52 794 c 0
 370.882 794.29 371.242 794.578 371.6 794.862 c 2
 354.52 808 l 2
 346.52 816 330.52 826 322.52 836 c 0
 314.52 846 312.52 858 314.52 866 c 0
EndSplineSet
EndChar

StartChar: viNsu1sut1su2
Encoding: 58431 58431 76
Width: 1086
VWidth: 690
Flags: HW
HStem: 0 124<984.804 1060.52> 200 124<804.804 880.524> 450 74<573.05 841.478> 452 58<552.526 711.342 743.132 857.548> 600 124<444.804 520.524> 944 48<433.122 496.424>
VStem: 404.52 122<604.654 718.762> 764.52 122<204.654 318.762> 944.52 122<4.65484 118.761>
LayerCount: 2
Fore
SplineSet
544.52 496 m 4xdf80
 544.52 502 552.52 506 564.52 510 c 4xdf80
 592.52 518 646.52 522 714.52 524 c 4
 724.52 524 732.52 524 740.52 524 c 4
 796.52 524 836.52 520 860.52 516 c 5
 860.52 512 860.52 506 860.52 502 c 4
 860.52 482 854.52 468 842.52 462 c 4
 820.52 452 784.52 450 730.52 450 c 4xef80
 676.52 450 624.52 450 570.52 452 c 5
 558.52 468 550.52 484 546.52 492 c 4
 546.52 494 544.52 494 544.52 496 c 4xdf80
404.52 656 m 4
 404.52 674 410.52 688 422.52 700 c 4
 436.52 714 448.52 722 468.52 724 c 4
 470.52 724 470.52 724 472.52 724 c 4
 490.52 724 508.52 710 522.52 686 c 4
 524.52 680 526.52 672 526.52 666 c 4
 526.52 654 520.52 640 508.52 624 c 4
 494.52 606 482.52 600 466.52 600 c 4
 460.52 600 450.52 602 444.52 604 c 4
 418.52 618 404.52 630 404.52 656 c 4
314.52 1066 m 0
 316.52 1070 318.52 1076 324.52 1082 c 0
 327.974 1085.45 332.918 1090.4 339.352 1090.4 c 0
 340.372 1090.4 341.426 1090.27 342.52 1090 c 0
 356.52 1084 350.52 1084 382.52 1056 c 1
 392.52 1044 410.52 1030 426.52 1020 c 0
 442.52 1010 454.52 1002 468.52 998 c 0
 472.52 996 478.52 996 482.52 992 c 0
 490.52 986 494.52 980 498.52 974 c 1
 498.52 968 500.52 970 496.52 960 c 0
 494.52 956 490.52 956 488.52 954 c 0
 482.52 948 476.52 944 466.52 944 c 0
 456.52 946 446.52 950 434.52 954 c 0
 426.916 957.258 421.672 959.928 417.188 962.326 c 1
 407.634 949.362 400.306 937.87 382.52 912 c 1
 346.52 870 350.52 864 266.52 766 c 0
 182.52 668 182.52 666 136.52 610 c 1
 102.52 572 80.5195 544 54.5195 524 c 0xef80
 40.5195 514 34.5195 510 28.5195 512 c 0
 22.5195 514 18.5195 520 20.5195 532 c 1
 20.5195 534 l 1
 24.5195 556 52.5195 596 98.5195 652 c 0
 166.52 738 156.52 722 198.52 778 c 0
 228.52 818 262.52 858 278.52 882 c 0
 294.52 906 312.52 928 330.52 952 c 0
 348.52 976 350.52 978 370.52 994 c 0
 370.882 994.29 371.242 994.578 371.6 994.862 c 2
 354.52 1008 l 2
 346.52 1016 330.52 1026 322.52 1036 c 0
 314.52 1046 312.52 1058 314.52 1066 c 0
944.52 56 m 0
 944.52 74 950.52 88 962.52 100 c 0
 976.52 114 988.52 122 1008.52 124 c 0
 1010.52 124 1010.52 124 1012.52 124 c 0
 1030.52 124 1048.52 110 1062.52 86 c 0
 1064.52 80 1066.52 72 1066.52 66 c 0
 1066.52 54 1060.52 40 1048.52 24 c 0
 1034.52 6 1022.52 0 1006.52 0 c 0
 1000.52 0 990.52 2 984.52 4 c 0
 958.52 18 944.52 30 944.52 56 c 0
804.52 204 m 0
 778.52 218 764.52 230 764.52 256 c 0
 764.52 274 770.52 288 782.52 300 c 0
 796.52 314 808.52 322 828.52 324 c 0
 830.52 324 830.52 324 832.52 324 c 0
 850.52 324 868.52 310 882.52 286 c 0
 884.52 280 886.52 272 886.52 266 c 0
 886.52 254 880.52 240 868.52 224 c 0
 854.52 206 842.52 200 826.52 200 c 0
 820.52 200 810.52 202 804.52 204 c 0
EndSplineSet
EndChar

StartChar: viNsu1sut2su1
Encoding: 58432 58432 77
Width: 1086
VWidth: 690
Flags: HW
HStem: 0 124<984.804 1060.52> 250 74<753.05 1021.48> 252 58<732.526 891.342 923.132 1037.55> 450 74<573.05 841.478> 452 58<552.526 711.342 743.132 857.548> 600 124<444.804 520.524> 944 48<433.122 496.424>
VStem: 404.52 122<604.654 718.762> 944.52 122<4.65484 118.761>
LayerCount: 2
Fore
SplineSet
724.52 296 m 4xa780
 724.52 302 732.52 306 744.52 310 c 4xa780
 772.52 318 826.52 322 894.52 324 c 4
 904.52 324 912.52 324 920.52 324 c 4
 976.52 324 1016.52 320 1040.52 316 c 5
 1040.52 312 1040.52 306 1040.52 302 c 4
 1040.52 282 1034.52 268 1022.52 262 c 4
 1000.52 252 964.52 250 910.52 250 c 4xc780
 856.52 250 804.52 250 750.52 252 c 5
 738.52 268 730.52 284 726.52 292 c 4
 726.52 294 724.52 294 724.52 296 c 4xa780
544.52 496 m 4
 544.52 502 552.52 506 564.52 510 c 4x8f80
 592.52 518 646.52 522 714.52 524 c 4
 724.52 524 732.52 524 740.52 524 c 4
 796.52 524 836.52 520 860.52 516 c 5
 860.52 512 860.52 506 860.52 502 c 4
 860.52 482 854.52 468 842.52 462 c 4
 820.52 452 784.52 450 730.52 450 c 4x9780
 676.52 450 624.52 450 570.52 452 c 5x8f80
 558.52 468 550.52 484 546.52 492 c 4
 546.52 494 544.52 494 544.52 496 c 4
404.52 656 m 4
 404.52 674 410.52 688 422.52 700 c 4
 436.52 714 448.52 722 468.52 724 c 4
 470.52 724 470.52 724 472.52 724 c 4
 490.52 724 508.52 710 522.52 686 c 4
 524.52 680 526.52 672 526.52 666 c 4
 526.52 654 520.52 640 508.52 624 c 4
 494.52 606 482.52 600 466.52 600 c 4
 460.52 600 450.52 602 444.52 604 c 4
 418.52 618 404.52 630 404.52 656 c 4
314.52 1066 m 0
 316.52 1070 318.52 1076 324.52 1082 c 0
 327.974 1085.45 332.918 1090.4 339.352 1090.4 c 0
 340.372 1090.4 341.426 1090.27 342.52 1090 c 0
 356.52 1084 350.52 1084 382.52 1056 c 1
 392.52 1044 410.52 1030 426.52 1020 c 0
 442.52 1010 454.52 1002 468.52 998 c 0
 472.52 996 478.52 996 482.52 992 c 0
 490.52 986 494.52 980 498.52 974 c 1
 498.52 968 500.52 970 496.52 960 c 0
 494.52 956 490.52 956 488.52 954 c 0
 482.52 948 476.52 944 466.52 944 c 0
 456.52 946 446.52 950 434.52 954 c 0
 426.916 957.258 421.672 959.928 417.188 962.326 c 1
 407.634 949.362 400.306 937.87 382.52 912 c 1
 346.52 870 350.52 864 266.52 766 c 0
 182.52 668 182.52 666 136.52 610 c 1
 102.52 572 80.5195 544 54.5195 524 c 0x9780
 40.5195 514 34.5195 510 28.5195 512 c 0
 22.5195 514 18.5195 520 20.5195 532 c 1
 20.5195 534 l 1
 24.5195 556 52.5195 596 98.5195 652 c 0
 166.52 738 156.52 722 198.52 778 c 0
 228.52 818 262.52 858 278.52 882 c 0
 294.52 906 312.52 928 330.52 952 c 0
 348.52 976 350.52 978 370.52 994 c 0
 370.882 994.29 371.242 994.578 371.6 994.862 c 2
 354.52 1008 l 2
 346.52 1016 330.52 1026 322.52 1036 c 0
 314.52 1046 312.52 1058 314.52 1066 c 0
944.52 56 m 0
 944.52 74 950.52 88 962.52 100 c 0
 976.52 114 988.52 122 1008.52 124 c 0
 1010.52 124 1010.52 124 1012.52 124 c 0
 1030.52 124 1048.52 110 1062.52 86 c 0
 1064.52 80 1066.52 72 1066.52 66 c 0
 1066.52 54 1060.52 40 1048.52 24 c 0
 1034.52 6 1022.52 0 1006.52 0 c 0
 1000.52 0 990.52 2 984.52 4 c 0
 958.52 18 944.52 30 944.52 56 c 0
EndSplineSet
EndChar

StartChar: viNsuu2su2
Encoding: 58434 58434 78
Width: 1064
VWidth: 690
Flags: HW
HStem: 0 124<962.284 1038.01> 200 124<782.284 858.006> 450 74<570.53 814.964> 608 42G<657 662> 650 74<390.53 634.964> 742 40G<662 667 842 847> 944 48<432.53 499.992>
VStem: 636 42<620.188 654 722 773.724> 742 122<204.654 318.762> 816 42<420.188 454 522 573.724> 922 122<4.65484 118.761>
LayerCount: 2
Fore
SplineSet
636 722 m 5xef20
 640 732 636 748 640 758 c 4
 644 768 648 776 654 780 c 4
 658 782 660 782 664 782 c 4
 670 782 678 780 688 774 c 5
 690 768 690 768 690 762 c 4
 690 752 686 740 684 730 c 4
 682 722 680 712 678 702 c 6
 678 700 l 6
 678 698 678 694 678 692 c 4
 678 690 678 688 678 686 c 4
 680 670 682 658 688 648 c 4
 690 642 690 640 690 634 c 4
 690 628 690 624 688 620 c 4
 684 616 678 614 670 610 c 4
 664 608 664 608 660 608 c 4xf720
 654 608 652 612 646 618 c 4
 642 624 644 634 640 644 c 4
 638 650 636 650 636 654 c 5
 614 650 586 650 548 650 c 4
 494 650 442 650 388 652 c 5
 376 668 368 684 364 692 c 4
 364 694 362 694 362 696 c 4
 362 702 370 706 382 710 c 4
 410 718 464 722 532 724 c 4
 542 724 550 724 558 724 c 4
 588 724 614 724 636 722 c 5xef20
314 1060 m 0
 314 1070 316 1074 324 1082 c 0
 328 1086 334 1090 340 1090 c 0
 342 1090 340 1090 342 1090 c 0
 356 1084 350 1084 382 1056 c 1
 392 1044 410 1030 426 1020 c 0
 442 1010 454 1002 468 998 c 0
 472 996 478 996 482 992 c 0
 490 986 500 978 500 968 c 0
 500 966 498 964 496 960 c 0
 494 956 490 956 488 954 c 0
 482 948 476 944 466 944 c 0
 456 946 446 950 434 954 c 0
 426 958 422 960 418 962 c 1
 408 950 400 938 382 912 c 1
 346 870 350 864 266 766 c 0
 182 668 182 666 136 610 c 1
 102 572 80 544 54 524 c 0
 42 516 38 512 32 512 c 0
 28 512 l 0
 22 514 18 520 20 532 c 1
 20 534 l 1
 24 556 52 596 98 652 c 0
 166 738 156 722 198 778 c 0
 228 818 262 858 278 882 c 0
 294 906 312 928 330 952 c 0
 348 976 350 978 370 994 c 0
 372 994 l 2
 354 1008 l 2
 346 1016 330 1026 322 1036 c 0
 316 1044 314 1052 314 1060 c 0
816 522 m 5xe760
 820 532 816 548 820 558 c 4
 824 568 828 576 834 580 c 4
 838 582 840 582 844 582 c 4
 850 582 858 580 868 574 c 5
 870 568 870 568 870 562 c 4
 870 552 866 540 864 530 c 4xe7a0
 862 522 860 512 858 502 c 6
 858 500 l 6
 858 498 858 494 858 492 c 4
 858 490 858 488 858 486 c 4
 860 470 862 458 868 448 c 4
 870 442 870 440 870 434 c 4
 870 428 870 424 868 420 c 4
 864 416 858 414 850 410 c 4
 844 408 844 408 840 408 c 4
 834 408 832 412 826 418 c 4
 822 424 824 434 820 444 c 4
 818 450 816 450 816 454 c 5
 794 450 766 450 728 450 c 4
 674 450 622 450 568 452 c 5
 556 468 548 484 544 492 c 4
 544 494 542 494 542 496 c 4
 542 502 550 506 562 510 c 4
 590 518 644 522 712 524 c 4
 722 524 730 524 738 524 c 4
 768 524 794 524 816 522 c 5xe760
922 56 m 0
 922 74 928 88 940 100 c 0
 954 114 966 122 986 124 c 0
 988 124 988 124 990 124 c 0
 1008 124 1026 110 1040 86 c 0
 1042 80 1044 72 1044 66 c 0
 1044 54 1038 40 1026 24 c 0
 1012 6 1000 0 984 0 c 0
 978 0 968 2 962 4 c 0
 936 18 922 30 922 56 c 0
742 256 m 0
 742 274 748 288 760 300 c 0
 774 314 786 322 806 324 c 0
 808 324 808 324 810 324 c 0
 828 324 846 310 860 286 c 0
 862 280 864 272 864 266 c 0
 864 254 858 240 846 224 c 0
 832 206 820 200 804 200 c 0
 798 200 788 202 782 204 c 0
 756 218 742 230 742 256 c 0
EndSplineSet
EndChar

StartChar: viNsut1sux1
Encoding: 58435 58435 79
Width: 776
VWidth: 690
Flags: HW
HStem: 54 84.4902<621.098 684.326> 252 74<389.05 657.478> 254 58<368.526 527.342 559.134 673.55> 544 48<433.122 496.424> 650.398 40G<336.136 339.862>
VStem: 688.52 68.31<-29.6724 74>
LayerCount: 2
Fore
SplineSet
570.52 -118 m 0x9c
 570.52 -114 576.52 -108 582.52 -104 c 0
 594.52 -94 616.52 -74 650.52 -48 c 0
 672.52 -32 686.52 -14 688.52 2 c 0
 690.52 10 686.52 20 684.52 28 c 0
 680.52 38 666.52 46 646.52 54 c 0
 626.52 62 616.52 68 616.52 76 c 0
 616.52 94 626.52 110 640.52 124 c 0
 650.572 134.053 663.432 138.49 676.748 138.49 c 0
 679.328 138.49 681.924 138.324 684.52 138 c 0
 688.52 138 690.52 134 694.52 134 c 0
 726.52 120 748.52 98 754.52 74 c 0
 756.21 68.9277 756.83 63.8555 756.83 58.6328 c 0
 756.83 51.5 755.674 44.082 754.52 36 c 0
 752.52 24 748.52 14 742.52 0 c 0
 730.52 -26 706.52 -50 676.52 -74 c 0
 646.52 -98 616.52 -112 584.52 -126 c 0
 582.52 -128 582.52 -128 580.52 -128 c 2
 572.52 -122 l 2
 570.52 -120 570.52 -120 570.52 -118 c 0x9c
360.52 298 m 0
 360.52 304 368.52 308 380.52 312 c 0xbc
 408.52 320 462.52 324 530.52 326 c 0
 540.52 326 548.52 326 556.52 326 c 0
 612.52 326 652.52 322 676.52 318 c 1
 676.52 314 676.52 308 676.52 304 c 0
 676.52 284 670.52 270 658.52 264 c 0
 636.52 254 600.52 252 546.52 252 c 0xdc
 492.52 252 440.52 252 386.52 254 c 1xbc
 374.52 270 366.52 286 362.52 294 c 0
 362.52 296 360.52 296 360.52 298 c 0
313.798 659.744 m 0
 313.798 668.778 317.286 674.764 324.52 682 c 0
 327.974 685.454 332.918 690.398 339.352 690.398 c 0
 340.372 690.398 341.426 690.274 342.52 690 c 0
 356.52 684 350.52 684 382.52 656 c 1
 392.52 644 410.52 630 426.52 620 c 0
 442.52 610 454.52 602 468.52 598 c 0
 472.52 596 478.52 596 482.52 592 c 0
 490.52 586 494.52 580 498.52 574 c 1
 498.52 568 500.52 570 496.52 560 c 0
 494.52 556 490.52 556 488.52 554 c 0
 482.52 548 476.52 544 466.52 544 c 0
 456.52 546 446.52 550 434.52 554 c 0
 426.916 557.258 421.672 559.928 417.188 562.326 c 1
 407.634 549.362 400.306 537.87 382.52 512 c 1
 346.52 470 350.52 464 266.52 366 c 0
 182.52 268 182.52 266 136.52 210 c 1
 102.52 172 80.5195 144 54.5195 124 c 0
 40.5195 114 34.5195 110 28.5195 112 c 0
 22.5195 114 18.5195 120 20.5195 132 c 1
 20.5195 134 l 1
 24.5195 156 52.5195 196 98.5195 252 c 0xdc
 166.52 338 156.52 322 198.52 378 c 0
 228.52 418 262.52 458 278.52 482 c 0
 294.52 506 312.52 528 330.52 552 c 0
 348.52 576 350.52 578 370.52 594 c 0
 370.882 594.29 371.242 594.578 371.6 594.862 c 2
 354.52 608 l 2
 346.52 616 330.52 626 322.52 636 c 0
 316.408 643.64 313.798 652.446 313.798 659.744 c 0
EndSplineSet
EndChar

StartChar: viNsut2
Encoding: 58436 58436 80
Width: 876
VWidth: 690
Flags: HW
HStem: 52 74<569.05 837.478> 54 58<548.526 707.342 739.134 853.55> 252 74<389.05 657.478> 254 58<368.526 527.342 559.134 673.55> 544 48<433.122 496.424> 650.398 40G<336.136 339.862>
LayerCount: 2
Fore
SplineSet
540.52 98 m 0x4c
 540.52 104 548.52 108 560.52 112 c 0x4c
 588.52 120 642.52 124 710.52 126 c 0
 720.52 126 728.52 126 736.52 126 c 0
 792.52 126 832.52 122 856.52 118 c 1
 856.52 114 856.52 108 856.52 104 c 0
 856.52 84 850.52 70 838.52 64 c 0
 816.52 54 780.52 52 726.52 52 c 0x8c
 672.52 52 620.52 52 566.52 54 c 1
 554.52 70 546.52 86 542.52 94 c 0
 542.52 96 540.52 96 540.52 98 c 0x4c
360.52 298 m 0
 360.52 304 368.52 308 380.52 312 c 0x1c
 408.52 320 462.52 324 530.52 326 c 0
 540.52 326 548.52 326 556.52 326 c 0
 612.52 326 652.52 322 676.52 318 c 1
 676.52 314 676.52 308 676.52 304 c 0
 676.52 284 670.52 270 658.52 264 c 0
 636.52 254 600.52 252 546.52 252 c 0x2c
 492.52 252 440.52 252 386.52 254 c 1x1c
 374.52 270 366.52 286 362.52 294 c 0
 362.52 296 360.52 296 360.52 298 c 0
314.52 666 m 0
 316.52 670 318.52 676 324.52 682 c 0
 327.974 685.454 332.918 690.398 339.352 690.398 c 0
 340.372 690.398 341.426 690.274 342.52 690 c 0
 356.52 684 350.52 684 382.52 656 c 1
 392.52 644 410.52 630 426.52 620 c 0
 442.52 610 454.52 602 468.52 598 c 0
 472.52 596 478.52 596 482.52 592 c 0
 490.52 586 494.52 580 498.52 574 c 1
 498.52 568 500.52 570 496.52 560 c 0
 494.52 556 490.52 556 488.52 554 c 0
 482.52 548 476.52 544 466.52 544 c 0
 456.52 546 446.52 550 434.52 554 c 0
 426.916 557.258 421.672 559.928 417.188 562.326 c 1
 407.634 549.362 400.306 537.87 382.52 512 c 1
 346.52 470 350.52 464 266.52 366 c 0
 182.52 268 182.52 266 136.52 210 c 1
 102.52 172 80.5195 144 54.5195 124 c 0
 40.5195 114 34.5195 110 28.5195 112 c 0
 22.5195 114 18.5195 120 20.5195 132 c 1
 20.5195 134 l 1
 24.5195 156 52.5195 196 98.5195 252 c 0x6c
 166.52 338 156.52 322 198.52 378 c 0
 228.52 418 262.52 458 278.52 482 c 0
 294.52 506 312.52 528 330.52 552 c 0
 348.52 576 350.52 578 370.52 594 c 0
 370.882 594.29 371.242 594.578 371.6 594.862 c 2
 354.52 608 l 2
 346.52 616 330.52 626 322.52 636 c 0
 314.52 646 312.52 658 314.52 666 c 0
EndSplineSet
EndChar

StartChar: viNsut3
Encoding: 58437 58437 81
Width: 1056
VWidth: 690
Flags: HW
HStem: 52 74<749.05 1017.48> 54 58<728.526 887.342 919.134 1033.55> 252 74<569.05 837.478> 254 58<548.526 707.342 739.134 853.55> 452 74<389.05 657.478> 454 58<368.526 527.342 559.134 673.55> 744 48<433.122 496.424>
LayerCount: 2
Fore
SplineSet
720.52 98 m 0x42
 720.52 104 728.52 108 740.52 112 c 0x42
 768.52 120 822.52 124 890.52 126 c 0
 900.52 126 908.52 126 916.52 126 c 0
 972.52 126 1012.52 122 1036.52 118 c 1
 1036.52 114 1036.52 108 1036.52 104 c 0
 1036.52 84 1030.52 70 1018.52 64 c 0
 996.52 54 960.52 52 906.52 52 c 0x82
 852.52 52 800.52 52 746.52 54 c 1
 734.52 70 726.52 86 722.52 94 c 0
 722.52 96 720.52 96 720.52 98 c 0x42
540.52 298 m 0
 540.52 304 548.52 308 560.52 312 c 0x12
 588.52 320 642.52 324 710.52 326 c 0
 720.52 326 728.52 326 736.52 326 c 0
 792.52 326 832.52 322 856.52 318 c 1
 856.52 314 856.52 308 856.52 304 c 0
 856.52 284 850.52 270 838.52 264 c 0
 816.52 254 780.52 252 726.52 252 c 0x22
 672.52 252 620.52 252 566.52 254 c 1x12
 554.52 270 546.52 286 542.52 294 c 0
 542.52 296 540.52 296 540.52 298 c 0
360.52 498 m 0
 360.52 504 368.52 508 380.52 512 c 0x06
 408.52 520 462.52 524 530.52 526 c 0
 540.52 526 548.52 526 556.52 526 c 0
 612.52 526 652.52 522 676.52 518 c 1
 676.52 514 676.52 508 676.52 504 c 0
 676.52 484 670.52 470 658.52 464 c 0
 636.52 454 600.52 452 546.52 452 c 0x0a
 492.52 452 440.52 452 386.52 454 c 1x06
 374.52 470 366.52 486 362.52 494 c 0
 362.52 496 360.52 496 360.52 498 c 0
313.798 859.744 m 0
 313.798 868.778 317.286 874.764 324.52 882 c 0
 327.974 885.454 332.918 890.398 339.352 890.398 c 0
 340.372 890.398 341.426 890.274 342.52 890 c 0
 356.52 884 350.52 884 382.52 856 c 1
 392.52 844 410.52 830 426.52 820 c 0
 442.52 810 454.52 802 468.52 798 c 0
 472.52 796 478.52 796 482.52 792 c 0
 490.69 785.872 499.02 778.762 499.02 768.5 c 0
 499.02 767 498.52 765 496.52 760 c 0
 494.52 756 490.52 756 488.52 754 c 0
 482.52 748 476.52 744 466.52 744 c 0
 456.52 746 446.52 750 434.52 754 c 0
 426.916 757.258 421.672 759.928 417.188 762.326 c 1
 407.634 749.362 400.306 737.87 382.52 712 c 1
 346.52 670 350.52 664 266.52 566 c 0
 182.52 468 182.52 466 136.52 410 c 1
 102.52 372 80.5195 344 54.5195 324 c 0
 42.8535 315.666 36.7422 311.5 31.5566 311.5 c 0
 30.5195 311.5 29.5195 311.666 28.5195 312 c 0
 22.5195 314 18.5195 320 20.5195 332 c 1
 20.5195 334 l 1
 24.5195 356 52.5195 396 98.5195 452 c 0x1a
 166.52 538 156.52 522 198.52 578 c 0
 228.52 618 262.52 658 278.52 682 c 0
 294.52 706 312.52 728 330.52 752 c 0
 348.52 776 350.52 778 370.52 794 c 0
 370.882 794.29 371.242 794.578 371.6 794.862 c 2
 354.52 808 l 2
 346.52 816 330.52 826 322.52 836 c 0
 316.408 843.64 313.798 852.446 313.798 859.744 c 0
EndSplineSet
EndChar

StartChar: ciM
Encoding: 58438 58438 82
Width: 836
VWidth: 690
Flags: HW
HStem: -4 42G<778.52 785.52> 290 124<444.804 520.526> 652.302 40G<406.172 413.02>
VStem: 404.52 122<294.654 408.762>
LayerCount: 2
Fore
SplineSet
592.52 166 m 1
 594.52 184 596.52 198 600.52 206 c 0
 602.52 210 608.52 210 612.52 210 c 0
 616.52 210 620.52 210 626.52 206 c 0
 650.52 194 686.52 164 730.52 120 c 0
 774.52 76 802.52 42 816.52 22 c 1
 804.52 6 790.52 -4 780.52 -4 c 0
 776.52 -4 776.52 -4 772.52 -2 c 0
 752.52 6 724.52 26 692.52 62 c 0
 660.52 98 624.52 130 592.52 166 c 1
404.52 346 m 0
 404.52 364 410.52 378 422.52 390 c 0
 436.52 404 448.52 412 468.52 414 c 0
 470.52 414 470.52 414 472.52 414 c 0
 490.52 414 508.52 400 522.52 376 c 0
 524.52 370 526.52 362 526.52 356 c 0
 526.52 344 520.52 330 508.52 314 c 0
 494.52 296 482.52 290 466.52 290 c 0
 460.52 290 450.52 292 444.52 294 c 0
 418.52 308 404.52 320 404.52 346 c 0
20.5195 208 m 1
 20.5195 210 l 1
 24.5195 232 52.5195 272 98.5195 328 c 0
 166.52 414 156.52 398 198.52 454 c 0
 228.52 494 262.52 534 278.52 558 c 0
 294.52 582 312.52 604 330.52 628 c 0
 348.52 652 350.52 654 370.52 670 c 0
 388.5 684.384 400.014 692.302 412.328 692.302 c 0
 413.712 692.302 415.106 692.202 416.52 692 c 2
 418.52 692 l 1
 430.52 690 436.52 680 434.52 668 c 0
 432.52 662 432.52 660 424.52 648 c 0
 410.52 630 404.52 620 382.52 588 c 1
 346.52 546 350.52 540 266.52 442 c 0
 182.52 344 182.52 342 136.52 286 c 1
 102.52 248 80.5195 220 54.5195 200 c 0
 40.5195 190 34.5195 186 28.5195 188 c 0
 22.5195 190 18.5195 196 20.5195 208 c 1
EndSplineSet
EndChar

StartChar: ci
Encoding: 58439 58439 83
Width: 724
VWidth: 690
Flags: HW
HStem: 0 124<622.804 698.526> 200 124<442.804 518.526> 576.302 40G<406.172 413.02>
VStem: 402.52 122<204.654 318.762> 582.52 122<4.65484 118.761>
LayerCount: 2
Fore
SplineSet
582.52 56 m 0
 582.52 74 588.52 88 600.52 100 c 0
 614.52 114 626.52 122 646.52 124 c 0
 648.52 124 648.52 124 650.52 124 c 0
 668.52 124 686.52 110 700.52 86 c 0
 702.52 80 704.52 72 704.52 66 c 0
 704.52 54 698.52 40 686.52 24 c 0
 672.52 6 660.52 0 644.52 0 c 0
 638.52 0 628.52 2 622.52 4 c 0
 596.52 18 582.52 30 582.52 56 c 0
402.52 256 m 0
 402.52 274 408.52 288 420.52 300 c 0
 434.52 314 446.52 322 466.52 324 c 0
 468.52 324 468.52 324 470.52 324 c 0
 488.52 324 506.52 310 520.52 286 c 0
 522.52 280 524.52 272 524.52 266 c 0
 524.52 254 518.52 240 506.52 224 c 0
 492.52 206 480.52 200 464.52 200 c 0
 458.52 200 448.52 202 442.52 204 c 0
 416.52 218 402.52 230 402.52 256 c 0
20.5195 132 m 1
 20.5195 134 l 1
 24.5195 156 52.5195 196 98.5195 252 c 0
 166.52 338 156.52 322 198.52 378 c 0
 228.52 418 262.52 458 278.52 482 c 0
 294.52 506 312.52 528 330.52 552 c 0
 348.52 576 350.52 578 370.52 594 c 0
 388.5 608.384 400.014 616.302 412.328 616.302 c 0
 413.712 616.302 415.106 616.202 416.52 616 c 2
 418.52 616 l 1
 430.52 614 436.52 604 434.52 592 c 0
 432.52 586 432.52 584 424.52 572 c 0
 410.52 554 404.52 544 382.52 512 c 1
 346.52 470 350.52 464 266.52 366 c 0
 182.52 268 182.52 266 136.52 210 c 1
 102.52 172 80.5195 144 54.5195 124 c 0
 40.5195 114 34.5195 110 28.5195 112 c 0
 22.5195 114 18.5195 120 20.5195 132 c 1
EndSplineSet
EndChar

StartChar: visu2suw1
Encoding: 58441 58441 84
Width: 1016
VWidth: 690
Flags: HW
HStem: 288 124<624.804 700.526> 488 124<444.804 520.526>
VStem: 404.52 122<492.654 606.762> 584.52 122<292.654 406.762>
LayerCount: 2
Fore
SplineSet
772.52 164 m 1
 774.52 182 776.52 196 780.52 204 c 0
 782.52 208 788.52 208 792.52 208 c 0
 796.52 208 800.52 208 806.52 204 c 0
 830.52 192 866.52 160 910.52 116 c 0
 954.52 72 982.52 40 996.52 20 c 1
 984.52 4 970.52 -6 960.52 -6 c 0
 956.52 -6 956.52 -6 952.52 -4 c 0
 932.52 4 904.52 24 872.52 60 c 0
 840.52 96 804.52 128 772.52 164 c 1
584.52 344 m 0
 584.52 362 590.52 376 602.52 388 c 0
 616.52 402 628.52 410 648.52 412 c 0
 650.52 412 650.52 412 652.52 412 c 0
 670.52 412 688.52 398 702.52 374 c 0
 704.52 368 706.52 360 706.52 354 c 0
 706.52 342 700.52 328 688.52 312 c 0
 674.52 294 662.52 288 646.52 288 c 0
 640.52 288 630.52 290 624.52 292 c 0
 598.52 306 584.52 318 584.52 344 c 0
404.52 544 m 0
 404.52 562 410.52 576 422.52 588 c 0
 436.52 602 448.52 610 468.52 612 c 0
 470.52 612 470.52 612 472.52 612 c 0
 490.52 612 508.52 598 522.52 574 c 0
 524.52 568 526.52 560 526.52 554 c 0
 526.52 542 520.52 528 508.52 512 c 0
 494.52 494 482.52 488 466.52 488 c 0
 460.52 488 450.52 490 444.52 492 c 0
 418.52 506 404.52 518 404.52 544 c 0
20.5195 406 m 1
 20.5195 408 l 1
 24.5195 430 52.5195 470 98.5195 526 c 0
 166.52 612 156.52 596 198.52 652 c 0
 228.52 692 262.52 732 278.52 756 c 0
 294.52 780 312.52 802 330.52 826 c 0
 348.52 850 350.52 852 370.52 868 c 0
 388.5 882.384 400.014 890.302 412.328 890.302 c 0
 413.712 890.302 415.106 890.202 416.52 890 c 2
 418.52 890 l 1
 430.52 888 436.52 878 434.52 866 c 0
 432.52 860 432.52 858 424.52 846 c 0
 410.52 828 404.52 818 382.52 786 c 1
 346.52 744 350.52 738 266.52 640 c 0
 182.52 542 182.52 540 136.52 484 c 1
 102.52 446 80.5195 418 54.5195 398 c 0
 40.5195 388 34.5195 384 28.5195 386 c 0
 22.5195 388 18.5195 394 20.5195 406 c 1
EndSplineSet
EndChar

StartChar: ci1
Encoding: 58442 58442 85
Width: 904
VWidth: 690
Flags: HW
HStem: 0 124<802.804 878.526> 200 124<622.804 698.526> 400 124<442.804 518.526> 776.302 40G<406.172 413.02>
VStem: 402.52 122<404.654 518.762> 582.52 122<204.654 318.762> 762.52 122<4.65484 118.761>
LayerCount: 2
Fore
SplineSet
762.52 56 m 0
 762.52 74 768.52 88 780.52 100 c 0
 794.52 114 806.52 122 826.52 124 c 0
 828.52 124 828.52 124 830.52 124 c 0
 848.52 124 866.52 110 880.52 86 c 0
 882.52 80 884.52 72 884.52 66 c 0
 884.52 54 878.52 40 866.52 24 c 0
 852.52 6 840.52 0 824.52 0 c 0
 818.52 0 808.52 2 802.52 4 c 0
 776.52 18 762.52 30 762.52 56 c 0
582.52 256 m 0
 582.52 274 588.52 288 600.52 300 c 0
 614.52 314 626.52 322 646.52 324 c 0
 648.52 324 648.52 324 650.52 324 c 0
 668.52 324 686.52 310 700.52 286 c 0
 702.52 280 704.52 272 704.52 266 c 0
 704.52 254 698.52 240 686.52 224 c 0
 672.52 206 660.52 200 644.52 200 c 0
 638.52 200 628.52 202 622.52 204 c 0
 596.52 218 582.52 230 582.52 256 c 0
402.52 456 m 0
 402.52 474 408.52 488 420.52 500 c 0
 434.52 514 446.52 522 466.52 524 c 0
 468.52 524 468.52 524 470.52 524 c 0
 488.52 524 506.52 510 520.52 486 c 0
 522.52 480 524.52 472 524.52 466 c 0
 524.52 454 518.52 440 506.52 424 c 0
 492.52 406 480.52 400 464.52 400 c 0
 458.52 400 448.52 402 442.52 404 c 0
 416.52 418 402.52 430 402.52 456 c 0
20.5195 332 m 1
 20.5195 334 l 1
 24.5195 356 52.5195 396 98.5195 452 c 0
 166.52 538 156.52 522 198.52 578 c 0
 228.52 618 262.52 658 278.52 682 c 0
 294.52 706 312.52 728 330.52 752 c 0
 348.52 776 350.52 778 370.52 794 c 0
 388.5 808.384 400.014 816.302 412.328 816.302 c 0
 413.712 816.302 415.106 816.202 416.52 816 c 2
 418.52 816 l 1
 430.52 814 436.52 804 434.52 792 c 0
 432.52 786 432.52 784 424.52 772 c 0
 410.52 754 404.52 744 382.52 712 c 1
 346.52 670 350.52 664 266.52 566 c 0
 182.52 468 182.52 466 136.52 410 c 1
 102.52 372 80.5195 344 54.5195 324 c 0
 40.5195 314 34.5195 310 28.5195 312 c 0
 22.5195 314 18.5195 320 20.5195 332 c 1
EndSplineSet
EndChar

StartChar: visu5
Encoding: 58443 58443 86
Width: 1264
VWidth: 690
Flags: HW
HStem: 0 124<1162.8 1238.52> 200 124<982.804 1058.52> 400 124<802.804 878.524> 600 124<622.804 698.524> 800 124<442.804 518.524>
VStem: 402.52 122<804.654 918.762> 582.52 122<604.654 718.762> 762.52 122<404.654 518.762> 942.52 122<204.654 318.762> 1122.52 122<4.65484 118.761>
LayerCount: 2
Fore
SplineSet
1122.52 56 m 0
 1122.52 74 1128.52 88 1140.52 100 c 0
 1154.52 114 1166.52 122 1186.52 124 c 0
 1188.52 124 1188.52 124 1190.52 124 c 0
 1208.52 124 1226.52 110 1240.52 86 c 0
 1242.52 80 1244.52 72 1244.52 66 c 0
 1244.52 54 1238.52 40 1226.52 24 c 0
 1212.52 6 1200.52 0 1184.52 0 c 0
 1178.52 0 1168.52 2 1162.52 4 c 0
 1136.52 18 1122.52 30 1122.52 56 c 0
942.52 256 m 0
 942.52 274 948.52 288 960.52 300 c 0
 974.52 314 986.52 322 1006.52 324 c 0
 1008.52 324 1008.52 324 1010.52 324 c 0
 1028.52 324 1046.52 310 1060.52 286 c 0
 1062.52 280 1064.52 272 1064.52 266 c 0
 1064.52 254 1058.52 240 1046.52 224 c 0
 1032.52 206 1020.52 200 1004.52 200 c 0
 998.52 200 988.52 202 982.52 204 c 0
 956.52 218 942.52 230 942.52 256 c 0
762.52 456 m 0
 762.52 474 768.52 488 780.52 500 c 0
 794.52 514 806.52 522 826.52 524 c 0
 828.52 524 828.52 524 830.52 524 c 0
 848.52 524 866.52 510 880.52 486 c 0
 882.52 480 884.52 472 884.52 466 c 0
 884.52 454 878.52 440 866.52 424 c 0
 852.52 406 840.52 400 824.52 400 c 0
 818.52 400 808.52 402 802.52 404 c 0
 776.52 418 762.52 430 762.52 456 c 0
582.52 656 m 0
 582.52 674 588.52 688 600.52 700 c 0
 614.52 714 626.52 722 646.52 724 c 0
 648.52 724 648.52 724 650.52 724 c 0
 668.52 724 686.52 710 700.52 686 c 0
 702.52 680 704.52 672 704.52 666 c 0
 704.52 654 698.52 640 686.52 624 c 0
 672.52 606 660.52 600 644.52 600 c 0
 638.52 600 628.52 602 622.52 604 c 0
 596.52 618 582.52 630 582.52 656 c 0
402.52 856 m 0
 402.52 874 408.52 888 420.52 900 c 0
 434.52 914 446.52 922 466.52 924 c 0
 468.52 924 468.52 924 470.52 924 c 0
 488.52 924 506.52 910 520.52 886 c 0
 522.52 880 524.52 872 524.52 866 c 0
 524.52 854 518.52 840 506.52 824 c 0
 492.52 806 480.52 800 464.52 800 c 0
 458.52 800 448.52 802 442.52 804 c 0
 416.52 818 402.52 830 402.52 856 c 0
20.5195 732 m 1
 20.5195 734 l 1
 24.5195 756 52.5195 796 98.5195 852 c 0
 166.52 938 156.52 922 198.52 978 c 0
 228.52 1018 262.52 1058 278.52 1082 c 0
 294.52 1106 312.52 1128 330.52 1152 c 0
 348.52 1176 350.52 1178 370.52 1194 c 0
 388.5 1208.38 400.014 1216.3 412.328 1216.3 c 0
 413.712 1216.3 415.106 1216.2 416.52 1216 c 2
 418.52 1216 l 1
 430.52 1214 436.52 1204 434.52 1192 c 0
 432.52 1186 432.52 1184 424.52 1172 c 0
 410.52 1154 404.52 1144 382.52 1112 c 1
 346.52 1070 350.52 1064 266.52 966 c 0
 182.52 868 182.52 866 136.52 810 c 1
 102.52 772 80.5195 744 54.5195 724 c 0
 40.5195 714 34.5195 710 28.5195 712 c 0
 22.5195 714 18.5195 720 20.5195 732 c 1
EndSplineSet
EndChar

StartChar: visu2sut1
Encoding: 58444 58444 87
Width: 1020
VWidth: 690
Flags: HW
HStem: 50 74<713.05 981.478> 52 58<692.526 851.342 883.134 997.55> 200 124<584.804 660.526> 400 124<404.804 480.526> 776.302 40G<406.172 413.02>
VStem: 364.52 122<404.654 518.762> 544.52 122<204.654 318.762>
LayerCount: 2
Fore
SplineSet
684.52 96 m 0x7e
 684.52 102 692.52 106 704.52 110 c 0x7e
 732.52 118 786.52 122 854.52 124 c 0
 864.52 124 872.52 124 880.52 124 c 0
 936.52 124 976.52 120 1000.52 116 c 1
 1000.52 112 1000.52 106 1000.52 102 c 0
 1000.52 82 994.52 68 982.52 62 c 0
 960.52 52 924.52 50 870.52 50 c 0xbe
 816.52 50 764.52 50 710.52 52 c 1
 698.52 68 690.52 84 686.52 92 c 0
 686.52 94 684.52 94 684.52 96 c 0x7e
544.52 256 m 0
 544.52 274 550.52 288 562.52 300 c 0
 576.52 314 588.52 322 608.52 324 c 0
 610.52 324 610.52 324 612.52 324 c 0
 630.52 324 648.52 310 662.52 286 c 0
 664.52 280 666.52 272 666.52 266 c 0
 666.52 254 660.52 240 648.52 224 c 0
 634.52 206 622.52 200 606.52 200 c 0
 600.52 200 590.52 202 584.52 204 c 0
 558.52 218 544.52 230 544.52 256 c 0
364.52 456 m 0
 364.52 474 370.52 488 382.52 500 c 0
 396.52 514 408.52 522 428.52 524 c 0
 430.52 524 430.52 524 432.52 524 c 0
 450.52 524 468.52 510 482.52 486 c 0
 484.52 480 486.52 472 486.52 466 c 0
 486.52 454 480.52 440 468.52 424 c 0
 454.52 406 442.52 400 426.52 400 c 0
 420.52 400 410.52 402 404.52 404 c 0
 378.52 418 364.52 430 364.52 456 c 0
20.5195 332 m 1
 20.5195 334 l 1
 24.5195 356 52.5195 396 98.5195 452 c 0
 166.52 538 156.52 522 198.52 578 c 0
 228.52 618 262.52 658 278.52 682 c 0
 294.52 706 312.52 728 330.52 752 c 0
 348.52 776 350.52 778 370.52 794 c 0
 388.5 808.384 400.014 816.302 412.328 816.302 c 0
 413.712 816.302 415.106 816.202 416.52 816 c 2
 418.52 816 l 1
 430.52 814 436.52 804 434.52 792 c 0
 432.52 786 432.52 784 424.52 772 c 0
 410.52 754 404.52 744 382.52 712 c 1
 346.52 670 350.52 664 266.52 566 c 0
 182.52 468 182.52 466 136.52 410 c 1
 102.52 372 80.5195 344 54.5195 324 c 0
 42.8535 315.666 36.7422 311.5 31.5566 311.5 c 0
 30.5195 311.5 29.5195 311.666 28.5195 312 c 0
 22.5195 314 18.5195 320 20.5195 332 c 1
EndSplineSet
EndChar

StartChar: ciB
Encoding: 58445 58445 88
Width: 754
VWidth: 690
Flags: HW
HStem: 206 124<442.804 518.526> 582.302 40G<406.172 413.02> 582.302 40G<406.172 413.02>
VStem: 402.52 122<210.654 324.762> 666.52 68.31<-37.6724 66>
LayerCount: 2
Fore
SplineSet
548.52 -126 m 0x98
 548.52 -122 554.52 -116 560.52 -112 c 0
 572.52 -102 594.52 -82 628.52 -56 c 0
 650.52 -40 664.52 -22 666.52 -6 c 0
 668.52 2 664.52 12 662.52 20 c 0
 658.52 30 644.52 38 624.52 46 c 0
 604.52 54 594.52 60 594.52 68 c 0
 594.52 86 604.52 102 618.52 116 c 0
 630.52 128 646.52 132 662.52 130 c 0
 666.52 130 668.52 126 672.52 126 c 0
 704.52 112 726.52 90 732.52 66 c 0
 734.21 60.9277 734.83 55.8555 734.83 50.6328 c 0
 734.83 43.5 733.674 36.082 732.52 28 c 0
 730.52 16 726.52 6 720.52 -8 c 0
 708.52 -34 684.52 -58 654.52 -82 c 0
 624.52 -106 594.52 -120 562.52 -134 c 0
 560.52 -136 560.52 -136 558.52 -136 c 2
 550.52 -130 l 2
 548.52 -128 548.52 -128 548.52 -126 c 0x98
402.52 262 m 0
 402.52 280 408.52 294 420.52 306 c 0
 434.52 320 446.52 328 466.52 330 c 0
 468.52 330 468.52 330 470.52 330 c 0
 488.52 330 506.52 316 520.52 292 c 0
 522.52 286 524.52 278 524.52 272 c 0
 524.52 260 518.52 246 506.52 230 c 0
 492.52 212 480.52 206 464.52 206 c 0
 458.52 206 448.52 208 442.52 210 c 0
 416.52 224 402.52 236 402.52 262 c 0
20.5195 138 m 1
 20.5195 140 l 1
 24.5195 162 52.5195 202 98.5195 258 c 0
 166.52 344 156.52 328 198.52 384 c 0
 228.52 424 262.52 464 278.52 488 c 0
 294.52 512 312.52 534 330.52 558 c 0
 348.52 582 350.52 584 370.52 600 c 0
 388.5 614.384 400.014 622.302 412.328 622.302 c 0xd8
 413.712 622.302 415.106 622.202 416.52 622 c 2
 418.52 622 l 1
 430.52 620 436.52 610 434.52 598 c 0
 432.52 592 432.52 590 424.52 578 c 0
 410.52 560 404.52 550 382.52 518 c 1
 346.52 476 350.52 470 266.52 372 c 0
 182.52 274 182.52 272 136.52 216 c 1
 102.52 178 80.5195 150 54.5195 130 c 0
 40.5195 120 34.5195 116 28.5195 118 c 0
 22.5195 120 18.5195 126 20.5195 138 c 1
EndSplineSet
EndChar

StartChar: ciS
Encoding: 58446 58446 89
Width: 878
VWidth: 690
Flags: HW
HStem: 50 74<571.05 839.478> 52 58<550.526 709.342 741.134 855.55> 200 124<442.804 518.526> 576.302 40G<406.172 413.02>
VStem: 402.52 122<204.654 318.762>
LayerCount: 2
Fore
SplineSet
542.52 96 m 0x78
 542.52 102 550.52 106 562.52 110 c 0x78
 590.52 118 644.52 122 712.52 124 c 0
 722.52 124 730.52 124 738.52 124 c 0
 794.52 124 834.52 120 858.52 116 c 1
 858.52 112 858.52 106 858.52 102 c 0
 858.52 82 852.52 68 840.52 62 c 0
 818.52 52 782.52 50 728.52 50 c 0xb8
 674.52 50 622.52 50 568.52 52 c 1
 556.52 68 548.52 84 544.52 92 c 0
 544.52 94 542.52 94 542.52 96 c 0x78
402.52 256 m 0
 402.52 274 408.52 288 420.52 300 c 0
 434.52 314 446.52 322 466.52 324 c 0
 468.52 324 468.52 324 470.52 324 c 0
 488.52 324 506.52 310 520.52 286 c 0
 522.52 280 524.52 272 524.52 266 c 0
 524.52 254 518.52 240 506.52 224 c 0
 492.52 206 480.52 200 464.52 200 c 0
 458.52 200 448.52 202 442.52 204 c 0
 416.52 218 402.52 230 402.52 256 c 0
20.5195 132 m 1
 20.5195 134 l 1
 24.5195 156 52.5195 196 98.5195 252 c 0
 166.52 338 156.52 322 198.52 378 c 0
 228.52 418 262.52 458 278.52 482 c 0
 294.52 506 312.52 528 330.52 552 c 0
 348.52 576 350.52 578 370.52 594 c 0
 388.5 608.384 400.014 616.302 412.328 616.302 c 0
 413.712 616.302 415.106 616.202 416.52 616 c 2
 418.52 616 l 1
 430.52 614 436.52 604 434.52 592 c 0
 432.52 586 432.52 584 424.52 572 c 0
 410.52 554 404.52 544 382.52 512 c 1
 346.52 470 350.52 464 266.52 366 c 0
 182.52 268 182.52 266 136.52 210 c 1
 102.52 172 80.5195 144 54.5195 124 c 0xb8
 40.5195 114 34.5195 110 28.5195 112 c 0
 22.5195 114 18.5195 120 20.5195 132 c 1
EndSplineSet
EndChar

StartChar: visu1suu1
Encoding: 58447 58447 90
Width: 890
VWidth: 690
Flags: HW
HStem: 50 74<370.53 614.964> 200 124<442.804 518.526> 576.302 40G<406.172 413.02>
VStem: 402.52 122<204.654 318.762> 616 42<20.1876 54 122 173.723>
LayerCount: 2
Fore
SplineSet
816 122 m 1
 820 132 816 148 820 158 c 0
 824 168 828 176 834 180 c 0
 838 182 840 182 844 182 c 0
 850 182 858 180 868 174 c 1
 870 168 870 168 870 162 c 0
 870 152 866 140 864 130 c 0
 862 122 860 112 858 102 c 2
 858 100 l 2
 858 98 858 94 858 92 c 0
 858 90 858 88 858 86 c 0
 860 70 862 58 868 48 c 0
 870 42 870 40 870 34 c 0
 870 28 870 24 868 20 c 0
 864 16 858 14 850 10 c 0
 844 8 844 8 840 8 c 0
 834 8 832 12 826 18 c 0
 822 24 824 34 820 44 c 0
 818 50 816 50 816 54 c 1
 794 50 766 50 728 50 c 0
 674 50 622 50 568 52 c 1
 556 68 548 84 544 92 c 0
 544 94 542 94 542 96 c 0
 542 102 550 106 562 110 c 0
 590 118 644 122 712 124 c 0
 722 124 730 124 738 124 c 0
 768 124 794 124 816 122 c 1
402.52 256 m 0
 402.52 274 408.52 288 420.52 300 c 0
 434.52 314 446.52 322 466.52 324 c 0
 468.52 324 468.52 324 470.52 324 c 0
 488.52 324 506.52 310 520.52 286 c 0
 522.52 280 524.52 272 524.52 266 c 0
 524.52 254 518.52 240 506.52 224 c 0
 492.52 206 480.52 200 464.52 200 c 0
 458.52 200 448.52 202 442.52 204 c 0
 416.52 218 402.52 230 402.52 256 c 0
20.5195 132 m 1
 20.5195 134 l 1
 24.5195 156 52.5195 196 98.5195 252 c 0
 166.52 338 156.52 322 198.52 378 c 0
 228.52 418 262.52 458 278.52 482 c 0
 294.52 506 312.52 528 330.52 552 c 0
 348.52 576 350.52 578 370.52 594 c 0
 388.5 608.384 400.014 616.302 412.328 616.302 c 0
 413.712 616.302 415.106 616.202 416.52 616 c 2
 418.52 616 l 1
 430.52 614 436.52 604 434.52 592 c 0
 432.52 586 432.52 584 424.52 572 c 0
 410.52 554 404.52 544 382.52 512 c 1
 346.52 470 350.52 464 266.52 366 c 0
 182.52 268 182.52 266 136.52 210 c 1
 102.52 172 80.5195 144 54.5195 124 c 0
 40.5195 114 34.5195 110 28.5195 112 c 0
 22.5195 114 18.5195 120 20.5195 132 c 1
EndSplineSet
EndChar

StartChar: visu1suu1su2
Encoding: 58448 58448 91
Width: 1064
VWidth: 690
Flags: HW
HStem: 0 124<962.284 1038.01> 200 124<782.284 858.006> 450 74<570.53 814.964> 542 40G<842 847> 600 124<422.284 498.006>
VStem: 382 122<604.654 718.762> 742 122<204.654 318.762> 816 42<420.188 454 522 573.724> 922 122<4.65484 118.761>
LayerCount: 2
Fore
SplineSet
382 656 m 0xfc80
 382 674 388 688 400 700 c 0
 414 714 426 722 446 724 c 0
 448 724 448 724 450 724 c 0
 468 724 486 710 500 686 c 0
 502 680 504 672 504 666 c 0
 504 654 498 640 486 624 c 0
 472 606 460 600 444 600 c 0
 438 600 428 602 422 604 c 0
 396 618 382 630 382 656 c 0xfc80
20.5195 532 m 1
 20.5195 534 l 1
 24.5195 556 52.5195 596 98.5195 652 c 0
 166.52 738 156.52 722 198.52 778 c 0
 228.52 818 262.52 858 278.52 882 c 0
 294.52 906 312.52 928 330.52 952 c 0
 348.52 976 350.52 978 370.52 994 c 0
 388.5 1008.38 400.014 1016.3 412.328 1016.3 c 0
 413.712 1016.3 415.106 1016.2 416.52 1016 c 2
 418.52 1016 l 1
 430.52 1014 436.52 1004 434.52 992 c 0
 432.52 986 432.52 984 424.52 972 c 0
 410.52 954 404.52 944 382.52 912 c 1
 346.52 870 350.52 864 266.52 766 c 0
 182.52 668 182.52 666 136.52 610 c 1
 102.52 572 80.5195 544 54.5195 524 c 0
 40.5195 514 34.5195 510 28.5195 512 c 0
 22.5195 514 18.5195 520 20.5195 532 c 1
816 522 m 5xfd80
 820 532 816 548 820 558 c 4
 824 568 828 576 834 580 c 4
 838 582 840 582 844 582 c 4
 850 582 858 580 868 574 c 5
 870 568 870 568 870 562 c 4
 870 552 866 540 864 530 c 4xfe80
 862 522 860 512 858 502 c 6
 858 500 l 6
 858 498 858 494 858 492 c 4
 858 490 858 488 858 486 c 4
 860 470 862 458 868 448 c 4
 870 442 870 440 870 434 c 4
 870 428 870 424 868 420 c 4
 864 416 858 414 850 410 c 4
 844 408 844 408 840 408 c 4
 834 408 832 412 826 418 c 4
 822 424 824 434 820 444 c 4
 818 450 816 450 816 454 c 5
 794 450 766 450 728 450 c 4
 674 450 622 450 568 452 c 5
 556 468 548 484 544 492 c 4
 544 494 542 494 542 496 c 4
 542 502 550 506 562 510 c 4
 590 518 644 522 712 524 c 4
 722 524 730 524 738 524 c 4
 768 524 794 524 816 522 c 5xfd80
922 56 m 0
 922 74 928 88 940 100 c 0
 954 114 966 122 986 124 c 0
 988 124 988 124 990 124 c 0
 1008 124 1026 110 1040 86 c 0
 1042 80 1044 72 1044 66 c 0
 1044 54 1038 40 1026 24 c 0
 1012 6 1000 0 984 0 c 0
 978 0 968 2 962 4 c 0
 936 18 922 30 922 56 c 0
742 256 m 0
 742 274 748 288 760 300 c 0
 774 314 786 322 806 324 c 0
 808 324 808 324 810 324 c 0
 828 324 846 310 860 286 c 0
 862 280 864 272 864 266 c 0
 864 254 858 240 846 224 c 0
 832 206 820 200 804 200 c 0
 798 200 788 202 782 204 c 0
 756 218 742 230 742 256 c 0
EndSplineSet
EndChar

StartChar: visu1sut1suy1
Encoding: 58449 58449 92
Width: 1084
VWidth: 690
Flags: HW
HStem: 2 42G<953 958> 408 74<573.05 841.478> 410 58<552.526 711.342 743.132 857.548> 558 124<444.804 520.524>
VStem: 404.52 122<562.654 676.762>
LayerCount: 2
Fore
SplineSet
992 112 m 5x98
 1002 116 1010 130 1020 134 c 4
 1030 138 1038 142 1046 140 c 4
 1050 138 1052 136 1054 134 c 4
 1058 130 1062 124 1064 112 c 5
 1062 106 1062 106 1058 102 c 4
 1050 94 1038 88 1030 82 c 4
 1022 78 1014 74 1006 68 c 6
 1006 66 l 6
 1004 64 1002 62 1000 60 c 4
 998 58 998 58 996 56 c 4
 986 44 978 34 976 22 c 4
 974 16 972 14 968 10 c 4
 964 6 960 4 956 2 c 4
 950 2 944 6 936 8 c 4
 930 10 930 12 928 14 c 4
 924 18 924 22 924 30 c 4
 926 38 936 44 940 54 c 4
 942 60 942 60 944 62 c 5
 926 74 904 96 878 122 c 4
 840 160 802 196 766 236 c 5
 768 256 776 274 778 282 c 4
 780 284 778 284 780 286 c 4
 784 290 792 288 804 282 c 4
 830 268 870 232 920 186 c 4
 928 178 932 174 938 168 c 4
 960 146 978 128 992 112 c 5x98
544.52 454 m 4
 544.52 460 552.52 464 564.52 468 c 4xb8
 592.52 476 646.52 480 714.52 482 c 4
 724.52 482 732.52 482 740.52 482 c 4
 796.52 482 836.52 478 860.52 474 c 5
 860.52 470 860.52 464 860.52 460 c 4
 860.52 440 854.52 426 842.52 420 c 4
 820.52 410 784.52 408 730.52 408 c 4xd8
 676.52 408 624.52 408 570.52 410 c 5xb8
 558.52 426 550.52 442 546.52 450 c 4
 546.52 452 544.52 452 544.52 454 c 4
404.52 614 m 4
 404.52 632 410.52 646 422.52 658 c 4
 436.52 672 448.52 680 468.52 682 c 4
 470.52 682 470.52 682 472.52 682 c 4
 490.52 682 508.52 668 522.52 644 c 4
 524.52 638 526.52 630 526.52 624 c 4
 526.52 612 520.52 598 508.52 582 c 4
 494.52 564 482.52 558 466.52 558 c 4
 460.52 558 450.52 560 444.52 562 c 4
 418.52 576 404.52 588 404.52 614 c 4
20.5195 476 m 5
 20.5195 478 l 5
 24.5195 500 52.5195 540 98.5195 596 c 4
 166.52 682 156.52 666 198.52 722 c 4
 228.52 762 262.52 802 278.52 826 c 4
 294.52 850 312.52 872 330.52 896 c 4
 348.52 920 350.52 922 370.52 938 c 4
 388.5 952.384 400.014 960.302 412.328 960.302 c 4
 413.712 960.302 415.106 960.202 416.52 960 c 6
 418.52 960 l 5
 430.52 958 436.52 948 434.52 936 c 4
 432.52 930 432.52 928 424.52 916 c 4
 410.52 898 404.52 888 382.52 856 c 5
 346.52 814 350.52 808 266.52 710 c 4
 182.52 612 182.52 610 136.52 554 c 5
 102.52 516 80.5195 488 54.5195 468 c 4
 40.5195 458 34.5195 454 28.5195 456 c 4
 22.5195 458 18.5195 464 20.5195 476 c 5
EndSplineSet
EndChar

StartChar: visu1sut1su2
Encoding: 58450 58450 93
Width: 1038
VWidth: 684
Flags: HW
HStem: 0 124<944.804 1020.52> 200 124<764.804 840.524> 450 74<533.05 801.478> 452 58<512.526 671.342 703.132 817.548> 600 124<404.804 480.524>
VStem: 364.52 122<604.654 718.762> 724.52 122<204.654 318.762> 904.52 122<4.65484 118.761>
LayerCount: 2
Fore
SplineSet
904.52 56 m 4xcf
 904.52 74 910.52 88 922.52 100 c 4
 936.52 114 948.52 122 968.52 124 c 4
 970.52 124 970.52 124 972.52 124 c 4
 990.52 124 1008.52 110 1022.52 86 c 4
 1024.52 80 1026.52 72 1026.52 66 c 4
 1026.52 54 1020.52 40 1008.52 24 c 4
 994.52 6 982.52 0 966.52 0 c 4
 960.52 0 950.52 2 944.52 4 c 4
 918.52 18 904.52 30 904.52 56 c 4xcf
724.52 256 m 4
 724.52 274 730.52 288 742.52 300 c 4
 756.52 314 768.52 322 788.52 324 c 4
 790.52 324 790.52 324 792.52 324 c 4
 810.52 324 828.52 310 842.52 286 c 4
 844.52 280 846.52 272 846.52 266 c 4
 846.52 254 840.52 240 828.52 224 c 4
 814.52 206 802.52 200 786.52 200 c 4
 780.52 200 770.52 202 764.52 204 c 4
 738.52 218 724.52 230 724.52 256 c 4
504.52 496 m 4
 504.52 502 512.52 506 524.52 510 c 4xdf
 552.52 518 606.52 522 674.52 524 c 4
 684.52 524 692.52 524 700.52 524 c 4
 756.52 524 796.52 520 820.52 516 c 5
 820.52 512 820.52 506 820.52 502 c 4
 820.52 482 814.52 468 802.52 462 c 4
 780.52 452 744.52 450 690.52 450 c 4xef
 636.52 450 584.52 450 530.52 452 c 5xdf
 518.52 468 510.52 484 506.52 492 c 4
 506.52 494 504.52 494 504.52 496 c 4
364.52 656 m 4
 364.52 674 370.52 688 382.52 700 c 4
 396.52 714 408.52 722 428.52 724 c 4
 430.52 724 430.52 724 432.52 724 c 4
 450.52 724 468.52 710 482.52 686 c 4
 484.52 680 486.52 672 486.52 666 c 4
 486.52 654 480.52 640 468.52 624 c 4
 454.52 606 442.52 600 426.52 600 c 4
 420.52 600 410.52 602 404.52 604 c 4
 378.52 618 364.52 630 364.52 656 c 4
20.5195 532 m 5
 20.5195 534 l 5
 24.5195 556 52.5195 596 98.5195 652 c 4
 166.52 738 156.52 722 198.52 778 c 4
 228.52 818 262.52 858 278.52 882 c 4
 294.52 906 312.52 928 330.52 952 c 4
 348.52 976 350.52 978 370.52 994 c 4
 388.5 1008.38 400.014 1016.3 412.328 1016.3 c 4
 413.712 1016.3 415.106 1016.2 416.52 1016 c 6
 418.52 1016 l 5
 430.52 1014 436.52 1004 434.52 992 c 4
 432.52 986 432.52 984 424.52 972 c 4
 410.52 954 404.52 944 382.52 912 c 5
 346.52 870 350.52 864 266.52 766 c 4
 182.52 668 182.52 666 136.52 610 c 5
 102.52 572 80.5195 544 54.5195 524 c 4xef
 42.8535 515.666 36.7422 511.5 31.5566 511.5 c 4
 30.5195 511.5 29.5195 511.666 28.5195 512 c 4
 22.5195 514 18.5195 520 20.5195 532 c 5
EndSplineSet
EndChar

StartChar: visu1sut1su1sut1
Encoding: 58451 58451 94
Width: 1200
VWidth: 684
Flags: HW
HStem: 50 74<893.05 1161.48> 52 58<872.526 1031.34 1063.13 1177.55> 200 124<764.804 840.524> 450 74<533.05 801.478> 452 58<512.526 671.342 703.132 817.548> 600 124<404.804 480.524>
VStem: 364.52 122<604.654 718.762> 724.52 122<204.654 318.762>
LayerCount: 2
Fore
SplineSet
864.52 96 m 0x67
 864.52 102 872.52 106 884.52 110 c 0x67
 912.52 118 966.52 122 1034.52 124 c 0
 1044.52 124 1052.52 124 1060.52 124 c 0
 1116.52 124 1156.52 120 1180.52 116 c 1
 1180.52 112 1180.52 106 1180.52 102 c 0
 1180.52 82 1174.52 68 1162.52 62 c 0
 1140.52 52 1104.52 50 1050.52 50 c 0xa7
 996.52 50 944.52 50 890.52 52 c 1
 878.52 68 870.52 84 866.52 92 c 0
 866.52 94 864.52 94 864.52 96 c 0x67
724.52 256 m 0
 724.52 274 730.52 288 742.52 300 c 0
 756.52 314 768.52 322 788.52 324 c 0
 790.52 324 790.52 324 792.52 324 c 0
 810.52 324 828.52 310 842.52 286 c 0
 844.52 280 846.52 272 846.52 266 c 0
 846.52 254 840.52 240 828.52 224 c 0
 814.52 206 802.52 200 786.52 200 c 0
 780.52 200 770.52 202 764.52 204 c 0
 738.52 218 724.52 230 724.52 256 c 0
504.52 496 m 0
 504.52 502 512.52 506 524.52 510 c 0x2f
 552.52 518 606.52 522 674.52 524 c 0
 684.52 524 692.52 524 700.52 524 c 0
 756.52 524 796.52 520 820.52 516 c 1
 820.52 512 820.52 506 820.52 502 c 0
 820.52 482 814.52 468 802.52 462 c 0
 780.52 452 744.52 450 690.52 450 c 0x37
 636.52 450 584.52 450 530.52 452 c 1x2f
 518.52 468 510.52 484 506.52 492 c 0
 506.52 494 504.52 494 504.52 496 c 0
364.52 656 m 0
 364.52 674 370.52 688 382.52 700 c 0
 396.52 714 408.52 722 428.52 724 c 0
 430.52 724 430.52 724 432.52 724 c 0
 450.52 724 468.52 710 482.52 686 c 0
 484.52 680 486.52 672 486.52 666 c 0
 486.52 654 480.52 640 468.52 624 c 0
 454.52 606 442.52 600 426.52 600 c 0
 420.52 600 410.52 602 404.52 604 c 0
 378.52 618 364.52 630 364.52 656 c 0
20.5195 532 m 1
 20.5195 534 l 1
 24.5195 556 52.5195 596 98.5195 652 c 0
 166.52 738 156.52 722 198.52 778 c 0
 228.52 818 262.52 858 278.52 882 c 0
 294.52 906 312.52 928 330.52 952 c 0
 348.52 976 350.52 978 370.52 994 c 0
 388.5 1008.38 400.014 1016.3 412.328 1016.3 c 0
 413.712 1016.3 415.106 1016.2 416.52 1016 c 2
 418.52 1016 l 1
 430.52 1014 436.52 1004 434.52 992 c 0
 432.52 986 432.52 984 424.52 972 c 0
 410.52 954 404.52 944 382.52 912 c 1
 346.52 870 350.52 864 266.52 766 c 0
 182.52 668 182.52 666 136.52 610 c 1
 102.52 572 80.5195 544 54.5195 524 c 0x37
 42.8535 515.666 36.7422 511.5 31.5566 511.5 c 0
 30.5195 511.5 29.5195 511.666 28.5195 512 c 0
 22.5195 514 18.5195 520 20.5195 532 c 1
EndSplineSet
EndChar

StartChar: visuu1su2
Encoding: 58452 58452 95
Width: 884
VWidth: 690
Flags: HW
HStem: 0 124<782.804 858.526> 200 124<602.804 678.526> 450.002 74<391.04 635.474> 452.002 58<370.516 529.332> 776.302 40G<406.172 413.02>
VStem: 562.52 122<204.654 318.762> 640.512 48<433.612 453.692 522.004 560.864 561.61 579.144> 742.52 122<4.65484 118.761>
LayerCount: 2
Fore
SplineSet
636.51 522.004 m 5xeb
 640.51 532.004 636.512 547.334 640.512 557.334 c 4
 644.512 567.334 648.512 575.334 654.512 579.334 c 4
 658.512 581.334 660.512 581.334 664.512 581.334 c 4
 670.512 581.334 678.512 579.334 688.512 573.334 c 5
 690.512 567.334 690.512 567.334 690.512 561.334 c 4
 690.512 551.334 686.512 539.334 684.512 529.334 c 4
 682.04 520.682 679.568 512.03 678.512 502.904 c 6
 678.512 499.334 l 6
 678.512 496.38 678.35 493.646 678.036 491.108 c 4
 678.114 489.208 678.268 487.288 678.512 485.334 c 4
 680.512 469.334 682.512 457.334 688.512 447.334 c 4
 690.512 441.334 690.512 439.334 690.512 433.334 c 4
 690.512 427.334 690.512 423.334 688.512 419.334 c 4
 684.512 415.334 678.512 413.334 670.512 409.334 c 4
 664.512 407.334 664.512 407.334 660.512 407.334 c 4
 654.512 407.334 652.512 411.334 646.512 417.334 c 4
 642.512 423.334 644.512 433.334 640.512 443.334 c 4
 638.492 449.394 637.262 449.728 636.51 454.006 c 5
 614.51 450.002 586.51 450.002 548.51 450.002 c 4
 494.51 450.002 442.51 450.002 388.51 452.002 c 5xdb
 376.51 468.002 368.51 484.002 364.51 492.002 c 4
 364.51 494.002 362.51 494.002 362.51 496.002 c 4
 362.51 502.002 370.51 506.002 382.51 510.002 c 4
 410.51 518.002 464.51 522.002 532.51 524.002 c 4xeb
 542.51 524.002 550.51 524.002 558.51 524.002 c 4
 588.51 524.002 614.51 524.002 636.51 522.004 c 5xeb
742.52 56 m 0
 742.52 74 748.52 88 760.52 100 c 0
 774.52 114 786.52 122 806.52 124 c 0
 808.52 124 808.52 124 810.52 124 c 0
 828.52 124 846.52 110 860.52 86 c 0
 862.52 80 864.52 72 864.52 66 c 0
 864.52 54 858.52 40 846.52 24 c 0
 832.52 6 820.52 0 804.52 0 c 0
 798.52 0 788.52 2 782.52 4 c 0
 756.52 18 742.52 30 742.52 56 c 0
562.52 256 m 0xcd
 562.52 274 568.52 288 580.52 300 c 0
 594.52 314 606.52 322 626.52 324 c 0
 628.52 324 628.52 324 630.52 324 c 0
 648.52 324 666.52 310 680.52 286 c 0
 682.52 280 684.52 272 684.52 266 c 0
 684.52 254 678.52 240 666.52 224 c 0
 652.52 206 640.52 200 624.52 200 c 0
 618.52 200 608.52 202 602.52 204 c 0
 576.52 218 562.52 230 562.52 256 c 0xcd
20.5195 332 m 1
 20.5195 334 l 1
 24.5195 356 52.5195 396 98.5195 452 c 0
 166.52 538 156.52 522 198.52 578 c 0
 228.52 618 262.52 658 278.52 682 c 0
 294.52 706 312.52 728 330.52 752 c 0
 348.52 776 350.52 778 370.52 794 c 0
 388.5 808.384 400.014 816.302 412.328 816.302 c 0
 413.712 816.302 415.106 816.202 416.52 816 c 2
 418.52 816 l 1
 430.52 814 436.52 804 434.52 792 c 0
 432.52 786 432.52 784 424.52 772 c 0
 410.52 754 404.52 744 382.52 712 c 1
 346.52 670 350.52 664 266.52 566 c 0
 182.52 468 182.52 466 136.52 410 c 1
 102.52 372 80.5195 344 54.5195 324 c 0
 42.8535 315.666 36.7422 311.5 31.5566 311.5 c 0
 30.5195 311.5 29.5195 311.666 28.5195 312 c 0
 22.5195 314 18.5195 320 20.5195 332 c 1
EndSplineSet
EndChar

StartChar: visuu2su2
Encoding: 58453 58453 96
Width: 1064
VWidth: 690
Flags: HW
HStem: 0 124<962.284 1038.01> 200 124<782.284 858.006> 450 74<570.53 814.964> 608 42G<657 662> 650 74<390.53 634.964> 652 58<370.006 528.822> 742 40G<662 667 842 847>
VStem: 636 42<620.188 654 722 773.724> 742 122<204.654 318.762> 816 42<420.188 454 522 573.724> 922 122<4.65484 118.761>
LayerCount: 2
Fore
SplineSet
20.5195 532 m 1xe720
 20.5195 534 l 1
 24.5195 556 52.5195 596 98.5195 652 c 0
 166.52 738 156.52 722 198.52 778 c 0
 228.52 818 262.52 858 278.52 882 c 0
 294.52 906 312.52 928 330.52 952 c 0
 348.52 976 350.52 978 370.52 994 c 0
 388.5 1008.38 400.014 1016.3 412.328 1016.3 c 0
 413.712 1016.3 415.106 1016.2 416.52 1016 c 2
 418.52 1016 l 1
 430.52 1014 436.52 1004 434.52 992 c 0
 432.52 986 432.52 984 424.52 972 c 0
 410.52 954 404.52 944 382.52 912 c 1
 346.52 870 350.52 864 266.52 766 c 0
 182.52 668 182.52 666 136.52 610 c 1
 102.52 572 80.5195 544 54.5195 524 c 0
 40.5195 514 34.5195 510 28.5195 512 c 0
 22.5195 514 18.5195 520 20.5195 532 c 1xe720
636 722 m 1
 640 732 636 748 640 758 c 0
 644 768 648 776 654 780 c 0
 658 782 660 782 664 782 c 0
 670 782 678 780 688 774 c 1
 690 768 690 768 690 762 c 0
 690 752 686 740 684 730 c 0
 682 722 680 712 678 702 c 2
 678 700 l 2
 678 698 678 694 678 692 c 0
 678 690 678 688 678 686 c 0
 680 670 682 658 688 648 c 0
 690 642 690 640 690 634 c 0
 690 628 690 624 688 620 c 0
 684 616 678 614 670 610 c 0
 664 608 664 608 660 608 c 0xf320
 654 608 652 612 646 618 c 0
 642 624 644 634 640 644 c 0
 638 650 636 650 636 654 c 1
 614 650 586 650 548 650 c 0xeb20
 494 650 442 650 388 652 c 1
 376 668 368 684 364 692 c 0
 364 694 362 694 362 696 c 0
 362 702 370 706 382 710 c 0xe720
 410 718 464 722 532 724 c 0
 542 724 550 724 558 724 c 0xeb20
 588 724 614 724 636 722 c 1
816 522 m 1xe360
 820 532 816 548 820 558 c 0
 824 568 828 576 834 580 c 0
 838 582 840 582 844 582 c 0
 850 582 858 580 868 574 c 1
 870 568 870 568 870 562 c 0
 870 552 866 540 864 530 c 0xe3a0
 862 522 860 512 858 502 c 2
 858 500 l 2
 858 498 858 494 858 492 c 0
 858 490 858 488 858 486 c 0
 860 470 862 458 868 448 c 0
 870 442 870 440 870 434 c 0
 870 428 870 424 868 420 c 0
 864 416 858 414 850 410 c 0
 844 408 844 408 840 408 c 0
 834 408 832 412 826 418 c 0
 822 424 824 434 820 444 c 0
 818 450 816 450 816 454 c 1
 794 450 766 450 728 450 c 0
 674 450 622 450 568 452 c 1
 556 468 548 484 544 492 c 0
 544 494 542 494 542 496 c 0
 542 502 550 506 562 510 c 0
 590 518 644 522 712 524 c 0
 722 524 730 524 738 524 c 0
 768 524 794 524 816 522 c 1xe360
922 56 m 0
 922 74 928 88 940 100 c 0
 954 114 966 122 986 124 c 0
 988 124 988 124 990 124 c 0
 1008 124 1026 110 1040 86 c 0
 1042 80 1044 72 1044 66 c 0
 1044 54 1038 40 1026 24 c 0
 1012 6 1000 0 984 0 c 0
 978 0 968 2 962 4 c 0
 936 18 922 30 922 56 c 0
742 256 m 0
 742 274 748 288 760 300 c 0
 774 314 786 322 806 324 c 0
 808 324 808 324 810 324 c 0
 828 324 846 310 860 286 c 0
 862 280 864 272 864 266 c 0
 864 254 858 240 846 224 c 0
 832 206 820 200 804 200 c 0
 798 200 788 202 782 204 c 0
 756 218 742 230 742 256 c 0
EndSplineSet
EndChar

StartChar: visut1sux1
Encoding: 58454 58454 97
Width: 776
VWidth: 690
Flags: HW
HStem: 54 84.4902<621.098 684.326> 252 74<389.05 657.478> 254 58<368.526 527.342 559.134 673.55> 576.302 40G<406.172 413.02>
VStem: 688.52 68.31<-29.6724 74>
LayerCount: 2
Fore
SplineSet
570.52 -118 m 0x98
 570.52 -114 576.52 -108 582.52 -104 c 0
 594.52 -94 616.52 -74 650.52 -48 c 0
 672.52 -32 686.52 -14 688.52 2 c 0
 690.52 10 686.52 20 684.52 28 c 0
 680.52 38 666.52 46 646.52 54 c 0
 626.52 62 616.52 68 616.52 76 c 0
 616.52 94 626.52 110 640.52 124 c 0
 650.572 134.053 663.432 138.49 676.748 138.49 c 0
 679.328 138.49 681.924 138.324 684.52 138 c 0
 688.52 138 690.52 134 694.52 134 c 0
 726.52 120 748.52 98 754.52 74 c 0
 756.21 68.9277 756.83 63.8555 756.83 58.6328 c 0
 756.83 51.5 755.674 44.082 754.52 36 c 0
 752.52 24 748.52 14 742.52 0 c 0
 730.52 -26 706.52 -50 676.52 -74 c 0
 646.52 -98 616.52 -112 584.52 -126 c 0
 582.52 -128 582.52 -128 580.52 -128 c 2
 572.52 -122 l 2
 570.52 -120 570.52 -120 570.52 -118 c 0x98
360.52 298 m 0
 360.52 304 368.52 308 380.52 312 c 0xb8
 408.52 320 462.52 324 530.52 326 c 0
 540.52 326 548.52 326 556.52 326 c 0
 612.52 326 652.52 322 676.52 318 c 1
 676.52 314 676.52 308 676.52 304 c 0
 676.52 284 670.52 270 658.52 264 c 0
 636.52 254 600.52 252 546.52 252 c 0xd8
 492.52 252 440.52 252 386.52 254 c 1xb8
 374.52 270 366.52 286 362.52 294 c 0
 362.52 296 360.52 296 360.52 298 c 0
20.5195 132 m 1
 20.5195 134 l 1
 24.5195 156 52.5195 196 98.5195 252 c 0xd8
 166.52 338 156.52 322 198.52 378 c 0
 228.52 418 262.52 458 278.52 482 c 0
 294.52 506 312.52 528 330.52 552 c 0
 348.52 576 350.52 578 370.52 594 c 0
 388.5 608.384 400.014 616.302 412.328 616.302 c 0
 413.712 616.302 415.106 616.202 416.52 616 c 2
 418.52 616 l 1
 430.52 614 436.52 604 434.52 592 c 0
 432.52 586 432.52 584 424.52 572 c 0
 410.52 554 404.52 544 382.52 512 c 1
 346.52 470 350.52 464 266.52 366 c 0
 182.52 268 182.52 266 136.52 210 c 1
 102.52 172 80.5195 144 54.5195 124 c 0
 40.5195 114 34.5195 110 28.5195 112 c 0
 22.5195 114 18.5195 120 20.5195 132 c 1
EndSplineSet
EndChar

StartChar: ciS1
Encoding: 58455 58455 98
Width: 876
VWidth: 690
Flags: HW
HStem: 52 74<569.05 837.478> 54 58<548.526 707.342 739.134 853.55> 252 74<389.05 657.478> 254 58<368.526 527.342 559.134 673.55> 576.302 40G<406.172 413.02>
LayerCount: 2
Fore
SplineSet
540.52 98 m 0x48
 540.52 104 548.52 108 560.52 112 c 0x48
 588.52 120 642.52 124 710.52 126 c 0
 720.52 126 728.52 126 736.52 126 c 0
 792.52 126 832.52 122 856.52 118 c 1
 856.52 114 856.52 108 856.52 104 c 0
 856.52 84 850.52 70 838.52 64 c 0
 816.52 54 780.52 52 726.52 52 c 0x88
 672.52 52 620.52 52 566.52 54 c 1
 554.52 70 546.52 86 542.52 94 c 0
 542.52 96 540.52 96 540.52 98 c 0x48
360.52 298 m 0
 360.52 304 368.52 308 380.52 312 c 0x18
 408.52 320 462.52 324 530.52 326 c 0
 540.52 326 548.52 326 556.52 326 c 0
 612.52 326 652.52 322 676.52 318 c 1
 676.52 314 676.52 308 676.52 304 c 0
 676.52 284 670.52 270 658.52 264 c 0
 636.52 254 600.52 252 546.52 252 c 0x28
 492.52 252 440.52 252 386.52 254 c 1x18
 374.52 270 366.52 286 362.52 294 c 0
 362.52 296 360.52 296 360.52 298 c 0
20.5195 132 m 1
 20.5195 134 l 1
 24.5195 156 52.5195 196 98.5195 252 c 0
 166.52 338 156.52 322 198.52 378 c 0
 228.52 418 262.52 458 278.52 482 c 0
 294.52 506 312.52 528 330.52 552 c 0
 348.52 576 350.52 578 370.52 594 c 0
 388.5 608.384 400.014 616.302 412.328 616.302 c 0
 413.712 616.302 415.106 616.202 416.52 616 c 2
 418.52 616 l 1
 430.52 614 436.52 604 434.52 592 c 0
 432.52 586 432.52 584 424.52 572 c 0
 410.52 554 404.52 544 382.52 512 c 1
 346.52 470 350.52 464 266.52 366 c 0
 182.52 268 182.52 266 136.52 210 c 1
 102.52 172 80.5195 144 54.5195 124 c 0
 40.5195 114 34.5195 110 28.5195 112 c 0x68
 22.5195 114 18.5195 120 20.5195 132 c 1
EndSplineSet
EndChar

StartChar: visut2suy1
Encoding: 58456 58456 99
Width: 1084
VWidth: 690
Flags: HW
HStem: 2 42G<953 958> 408 74<573.05 841.478> 410 58<552.526 711.342 743.132 857.548> 608 74<393.05 661.478> 610 58<372.526 531.342 563.132 677.548>
LayerCount: 2
Fore
SplineSet
364.52 654 m 0x88
 364.52 660 372.52 664 384.52 668 c 0x88
 412.52 676 466.52 680 534.52 682 c 0
 544.52 682 552.52 682 560.52 682 c 0
 616.52 682 656.52 678 680.52 674 c 1
 680.52 670 680.52 664 680.52 660 c 0
 680.52 640 674.52 626 662.52 620 c 0
 640.52 610 604.52 608 550.52 608 c 0x90
 496.52 608 444.52 608 390.52 610 c 1
 378.52 626 370.52 642 366.52 650 c 0
 366.52 652 364.52 652 364.52 654 c 0x88
992 112 m 5
 1002 116 1010 130 1020 134 c 4
 1030 138 1038 142 1046 140 c 4
 1050 138 1052 136 1054 134 c 4
 1058 130 1062 124 1064 112 c 5
 1062 106 1062 106 1058 102 c 4
 1050 94 1038 88 1030 82 c 4
 1022 78 1014 74 1006 68 c 6
 1006 66 l 6
 1004 64 1002 62 1000 60 c 4
 998 58 998 58 996 56 c 4
 986 44 978 34 976 22 c 4
 974 16 972 14 968 10 c 4
 964 6 960 4 956 2 c 4
 950 2 944 6 936 8 c 4
 930 10 930 12 928 14 c 4
 924 18 924 22 924 30 c 4
 926 38 936 44 940 54 c 4
 942 60 942 60 944 62 c 5
 926 74 904 96 878 122 c 4
 840 160 802 196 766 236 c 5
 768 256 776 274 778 282 c 4
 780 284 778 284 780 286 c 4
 784 290 792 288 804 282 c 4
 830 268 870 232 920 186 c 4
 928 178 932 174 938 168 c 4
 960 146 978 128 992 112 c 5
544.52 454 m 4
 544.52 460 552.52 464 564.52 468 c 4xa0
 592.52 476 646.52 480 714.52 482 c 4
 724.52 482 732.52 482 740.52 482 c 4
 796.52 482 836.52 478 860.52 474 c 5
 860.52 470 860.52 464 860.52 460 c 4
 860.52 440 854.52 426 842.52 420 c 4
 820.52 410 784.52 408 730.52 408 c 4xc0
 676.52 408 624.52 408 570.52 410 c 5xa0
 558.52 426 550.52 442 546.52 450 c 4
 546.52 452 544.52 452 544.52 454 c 4
20.5195 476 m 1
 20.5195 478 l 1
 24.5195 500 52.5195 540 98.5195 596 c 0
 166.52 682 156.52 666 198.52 722 c 0
 228.52 762 262.52 802 278.52 826 c 0
 294.52 850 312.52 872 330.52 896 c 0
 348.52 920 350.52 922 370.52 938 c 0
 388.5 952.384 400.014 960.302 412.328 960.302 c 0
 413.712 960.302 415.106 960.202 416.52 960 c 2
 418.52 960 l 1
 430.52 958 436.52 948 434.52 936 c 0
 432.52 930 432.52 928 424.52 916 c 0
 410.52 898 404.52 888 382.52 856 c 1
 346.52 814 350.52 808 266.52 710 c 0
 182.52 612 182.52 610 136.52 554 c 1
 102.52 516 80.5195 488 54.5195 468 c 0
 40.5195 458 34.5195 454 28.5195 456 c 0
 22.5195 458 18.5195 464 20.5195 476 c 1
EndSplineSet
EndChar

StartChar: visut2su2
Encoding: 58457 58457 100
Width: 1064
VWidth: 690
Flags: HW
HStem: 0 124<962.284 1038.01> 200 124<782.284 858.006> 452 74<569.05 837.478> 454 58<548.526 707.342 739.132 853.548> 652 74<389.05 657.478> 654 58<368.526 527.342 559.132 673.548>
VStem: 742 122<204.654 318.762> 922 122<4.65484 118.761>
LayerCount: 2
Fore
SplineSet
540.52 498 m 4xd3
 540.52 504 548.52 508 560.52 512 c 4xd3
 588.52 520 642.52 524 710.52 526 c 4
 720.52 526 728.52 526 736.52 526 c 4
 792.52 526 832.52 522 856.52 518 c 5
 856.52 514 856.52 508 856.52 504 c 4
 856.52 484 850.52 470 838.52 464 c 4
 816.52 454 780.52 452 726.52 452 c 4xe3
 672.52 452 620.52 452 566.52 454 c 5
 554.52 470 546.52 486 542.52 494 c 4
 542.52 496 540.52 496 540.52 498 c 4xd3
360.52 698 m 4
 360.52 704 368.52 708 380.52 712 c 4xc7
 408.52 720 462.52 724 530.52 726 c 4
 540.52 726 548.52 726 556.52 726 c 4
 612.52 726 652.52 722 676.52 718 c 5
 676.52 714 676.52 708 676.52 704 c 4
 676.52 684 670.52 670 658.52 664 c 4
 636.52 654 600.52 652 546.52 652 c 4xcb
 492.52 652 440.52 652 386.52 654 c 5xc7
 374.52 670 366.52 686 362.52 694 c 4
 362.52 696 360.52 696 360.52 698 c 4
20.5195 532 m 1
 20.5195 534 l 1
 24.5195 556 52.5195 596 98.5195 652 c 0
 166.52 738 156.52 722 198.52 778 c 0
 228.52 818 262.52 858 278.52 882 c 0
 294.52 906 312.52 928 330.52 952 c 0
 348.52 976 350.52 978 370.52 994 c 0
 388.5 1008.38 400.014 1016.3 412.328 1016.3 c 0
 413.712 1016.3 415.106 1016.2 416.52 1016 c 2
 418.52 1016 l 1
 430.52 1014 436.52 1004 434.52 992 c 0
 432.52 986 432.52 984 424.52 972 c 0
 410.52 954 404.52 944 382.52 912 c 1
 346.52 870 350.52 864 266.52 766 c 0
 182.52 668 182.52 666 136.52 610 c 1
 102.52 572 80.5195 544 54.5195 524 c 0
 40.5195 514 34.5195 510 28.5195 512 c 0xdb
 22.5195 514 18.5195 520 20.5195 532 c 1
922 56 m 0
 922 74 928 88 940 100 c 0
 954 114 966 122 986 124 c 0
 988 124 988 124 990 124 c 0
 1008 124 1026 110 1040 86 c 0
 1042 80 1044 72 1044 66 c 0
 1044 54 1038 40 1026 24 c 0
 1012 6 1000 0 984 0 c 0
 978 0 968 2 962 4 c 0
 936 18 922 30 922 56 c 0
742 256 m 0
 742 274 748 288 760 300 c 0
 774 314 786 322 806 324 c 0
 808 324 808 324 810 324 c 0
 828 324 846 310 860 286 c 0
 862 280 864 272 864 266 c 0
 864 254 858 240 846 224 c 0
 832 206 820 200 804 200 c 0
 798 200 788 202 782 204 c 0
 756 218 742 230 742 256 c 0
EndSplineSet
EndChar

StartChar: visut3
Encoding: 58458 58458 101
Width: 1056
VWidth: 690
Flags: HW
HStem: 52 74<749.05 1017.48> 54 58<728.526 887.342 919.134 1033.55> 252 74<569.05 837.478> 254 58<548.526 707.342 739.134 853.55> 452 74<389.05 657.478> 454 58<368.526 527.342 559.134 673.55> 776.302 40G<406.172 413.02>
LayerCount: 2
Fore
SplineSet
720.52 98 m 0x42
 720.52 104 728.52 108 740.52 112 c 0x42
 768.52 120 822.52 124 890.52 126 c 0
 900.52 126 908.52 126 916.52 126 c 0
 972.52 126 1012.52 122 1036.52 118 c 1
 1036.52 114 1036.52 108 1036.52 104 c 0
 1036.52 84 1030.52 70 1018.52 64 c 0
 996.52 54 960.52 52 906.52 52 c 0x82
 852.52 52 800.52 52 746.52 54 c 1
 734.52 70 726.52 86 722.52 94 c 0
 722.52 96 720.52 96 720.52 98 c 0x42
540.52 298 m 0
 540.52 304 548.52 308 560.52 312 c 0x12
 588.52 320 642.52 324 710.52 326 c 0
 720.52 326 728.52 326 736.52 326 c 0
 792.52 326 832.52 322 856.52 318 c 1
 856.52 314 856.52 308 856.52 304 c 0
 856.52 284 850.52 270 838.52 264 c 0
 816.52 254 780.52 252 726.52 252 c 0x22
 672.52 252 620.52 252 566.52 254 c 1x12
 554.52 270 546.52 286 542.52 294 c 0
 542.52 296 540.52 296 540.52 298 c 0
360.52 498 m 0
 360.52 504 368.52 508 380.52 512 c 0x06
 408.52 520 462.52 524 530.52 526 c 0
 540.52 526 548.52 526 556.52 526 c 0
 612.52 526 652.52 522 676.52 518 c 1
 676.52 514 676.52 508 676.52 504 c 0
 676.52 484 670.52 470 658.52 464 c 0
 636.52 454 600.52 452 546.52 452 c 0x0a
 492.52 452 440.52 452 386.52 454 c 1x06
 374.52 470 366.52 486 362.52 494 c 0
 362.52 496 360.52 496 360.52 498 c 0
20.5195 332 m 1
 20.5195 334 l 1
 24.5195 356 52.5195 396 98.5195 452 c 0
 166.52 538 156.52 522 198.52 578 c 0
 228.52 618 262.52 658 278.52 682 c 0
 294.52 706 312.52 728 330.52 752 c 0
 348.52 776 350.52 778 370.52 794 c 0
 388.5 808.384 400.014 816.302 412.328 816.302 c 0
 413.712 816.302 415.106 816.202 416.52 816 c 2
 418.52 816 l 1
 430.52 814 436.52 804 434.52 792 c 0
 432.52 786 432.52 784 424.52 772 c 0
 410.52 754 404.52 744 382.52 712 c 1
 346.52 670 350.52 664 266.52 566 c 0
 182.52 468 182.52 466 136.52 410 c 1
 102.52 372 80.5195 344 54.5195 324 c 0
 40.5195 314 34.5195 310 28.5195 312 c 0x1a
 22.5195 314 18.5195 320 20.5195 332 c 1
EndSplineSet
EndChar

StartChar: visut3suw1
Encoding: 58459 58459 102
Width: 1196
VWidth: 690
Flags: HW
HStem: 338 74<753.05 1021.48> 340 58<732.526 891.342 923.132 1037.55> 538 74<573.05 841.478> 540 58<552.526 711.342 743.132 857.548> 738 74<393.05 661.478> 740 58<372.526 531.342 563.132 677.548>
LayerCount: 2
Fore
SplineSet
724.52 384 m 0x40
 724.52 390 732.52 394 744.52 398 c 0x40
 772.52 406 826.52 410 894.52 412 c 0
 904.52 412 912.52 412 920.52 412 c 0
 976.52 412 1016.52 408 1040.52 404 c 1
 1040.52 400 1040.52 394 1040.52 390 c 0
 1040.52 370 1034.52 356 1022.52 350 c 0
 1000.52 340 964.52 338 910.52 338 c 0x80
 856.52 338 804.52 338 750.52 340 c 1
 738.52 356 730.52 372 726.52 380 c 0
 726.52 382 724.52 382 724.52 384 c 0x40
364.52 784 m 0
 364.52 790 372.52 794 384.52 798 c 0x04
 412.52 806 466.52 810 534.52 812 c 0
 544.52 812 552.52 812 560.52 812 c 0
 616.52 812 656.52 808 680.52 804 c 1
 680.52 800 680.52 794 680.52 790 c 0
 680.52 770 674.52 756 662.52 750 c 0
 640.52 740 604.52 738 550.52 738 c 0x08
 496.52 738 444.52 738 390.52 740 c 1x04
 378.52 756 370.52 772 366.52 780 c 0
 366.52 782 364.52 782 364.52 784 c 0
544.52 584 m 0
 544.52 590 552.52 594 564.52 598 c 0x10
 592.52 606 646.52 610 714.52 612 c 0
 724.52 612 732.52 612 740.52 612 c 0
 796.52 612 836.52 608 860.52 604 c 1
 860.52 600 860.52 594 860.52 590 c 0
 860.52 570 854.52 556 842.52 550 c 0
 820.52 540 784.52 538 730.52 538 c 0x20
 676.52 538 624.52 538 570.52 540 c 1x10
 558.52 556 550.52 572 546.52 580 c 0
 546.52 582 544.52 582 544.52 584 c 0
952.52 164 m 1
 954.52 182 956.52 196 960.52 204 c 0
 962.52 208 968.52 208 972.52 208 c 0
 976.52 208 980.52 208 986.52 204 c 0
 1010.52 192 1046.52 160 1090.52 116 c 0
 1134.52 72 1162.52 40 1176.52 20 c 1
 1164.52 4 1150.52 -6 1140.52 -6 c 0
 1136.52 -6 1136.52 -6 1132.52 -4 c 0
 1112.52 4 1084.52 24 1052.52 60 c 0
 1020.52 96 984.52 128 952.52 164 c 1
20.5195 606 m 1
 20.5195 608 l 1
 24.5195 630 52.5195 670 98.5195 726 c 0
 166.52 812 156.52 796 198.52 852 c 0
 228.52 892 262.52 932 278.52 956 c 0
 294.52 980 312.52 1002 330.52 1026 c 0
 348.52 1050 350.52 1052 370.52 1068 c 0
 388.5 1082.38 400.014 1090.3 412.328 1090.3 c 0
 413.712 1090.3 415.106 1090.2 416.52 1090 c 2
 418.52 1090 l 1
 430.52 1088 436.52 1078 434.52 1066 c 0
 432.52 1060 432.52 1058 424.52 1046 c 0
 410.52 1028 404.52 1018 382.52 986 c 1
 346.52 944 350.52 938 266.52 840 c 0
 182.52 742 182.52 740 136.52 684 c 1
 102.52 646 80.5195 618 54.5195 598 c 0
 40.5195 588 34.5195 584 28.5195 586 c 0
 22.5195 588 18.5195 594 20.5195 606 c 1
EndSplineSet
EndChar

StartChar: visut3suy1
Encoding: 58460 58460 103
Width: 1264
VWidth: 690
Flags: HW
HStem: 2 42G<1133 1138> 408 74<753.05 1021.48> 410 58<732.526 891.342 923.132 1037.55> 608 74<573.05 841.478> 610 58<552.526 711.342 743.132 857.548> 808 74<393.05 661.478> 810 58<372.526 531.342 563.132 677.548>
LayerCount: 2
Fore
SplineSet
1172 112 m 5x80
 1182 116 1190 130 1200 134 c 4
 1210 138 1218 142 1226 140 c 4
 1230 138 1232 136 1234 134 c 4
 1238 130 1242 124 1244 112 c 5
 1242 106 1242 106 1238 102 c 4
 1230 94 1218 88 1210 82 c 4
 1202 78 1194 74 1186 68 c 6
 1186 66 l 6
 1184 64 1182 62 1180 60 c 4
 1178 58 1178 58 1176 56 c 4
 1166 44 1158 34 1156 22 c 4
 1154 16 1152 14 1148 10 c 4
 1144 6 1140 4 1136 2 c 4
 1130 2 1124 6 1116 8 c 4
 1110 10 1110 12 1108 14 c 4
 1104 18 1104 22 1104 30 c 4
 1106 38 1116 44 1120 54 c 4
 1122 60 1122 60 1124 62 c 5
 1106 74 1084 96 1058 122 c 4
 1020 160 982 196 946 236 c 5
 948 256 956 274 958 282 c 4
 960 284 958 284 960 286 c 4
 964 290 972 288 984 282 c 4
 1010 268 1050 232 1100 186 c 4
 1108 178 1112 174 1118 168 c 4
 1140 146 1158 128 1172 112 c 5x80
724.52 454 m 4
 724.52 460 732.52 464 744.52 468 c 4xa0
 772.52 476 826.52 480 894.52 482 c 4
 904.52 482 912.52 482 920.52 482 c 4
 976.52 482 1016.52 478 1040.52 474 c 5
 1040.52 470 1040.52 464 1040.52 460 c 4
 1040.52 440 1034.52 426 1022.52 420 c 4
 1000.52 410 964.52 408 910.52 408 c 4xc0
 856.52 408 804.52 408 750.52 410 c 5xa0
 738.52 426 730.52 442 726.52 450 c 4
 726.52 452 724.52 452 724.52 454 c 4
364.52 854 m 4
 364.52 860 372.52 864 384.52 868 c 4x82
 412.52 876 466.52 880 534.52 882 c 4
 544.52 882 552.52 882 560.52 882 c 4
 616.52 882 656.52 878 680.52 874 c 5
 680.52 870 680.52 864 680.52 860 c 4
 680.52 840 674.52 826 662.52 820 c 4
 640.52 810 604.52 808 550.52 808 c 4x84
 496.52 808 444.52 808 390.52 810 c 5x82
 378.52 826 370.52 842 366.52 850 c 4
 366.52 852 364.52 852 364.52 854 c 4
544.52 654 m 4
 544.52 660 552.52 664 564.52 668 c 4x88
 592.52 676 646.52 680 714.52 682 c 4
 724.52 682 732.52 682 740.52 682 c 4
 796.52 682 836.52 678 860.52 674 c 5
 860.52 670 860.52 664 860.52 660 c 4
 860.52 640 854.52 626 842.52 620 c 4
 820.52 610 784.52 608 730.52 608 c 4x90
 676.52 608 624.52 608 570.52 610 c 5x88
 558.52 626 550.52 642 546.52 650 c 4
 546.52 652 544.52 652 544.52 654 c 4
20.5195 676 m 5
 20.5195 678 l 5
 24.5195 700 52.5195 740 98.5195 796 c 4
 166.52 882 156.52 866 198.52 922 c 4
 228.52 962 262.52 1002 278.52 1026 c 4
 294.52 1050 312.52 1072 330.52 1096 c 4
 348.52 1120 350.52 1122 370.52 1138 c 4
 388.5 1152.38 400.014 1160.3 412.328 1160.3 c 4
 413.712 1160.3 415.106 1160.2 416.52 1160 c 6
 418.52 1160 l 5
 430.52 1158 436.52 1148 434.52 1136 c 4
 432.52 1130 432.52 1128 424.52 1116 c 4
 410.52 1098 404.52 1088 382.52 1056 c 5
 346.52 1014 350.52 1008 266.52 910 c 4
 182.52 812 182.52 810 136.52 754 c 5
 102.52 716 80.5195 688 54.5195 668 c 4
 40.5195 658 34.5195 654 28.5195 656 c 4
 22.5195 658 18.5195 664 20.5195 676 c 5
EndSplineSet
EndChar

StartChar: visut4
Encoding: 58461 58461 104
Width: 1236
VWidth: 690
Flags: HW
HStem: 52 74<929.05 1197.48> 54 58<908.526 1067.34 1099.13 1213.55> 252 74<749.05 1017.48> 254 58<728.526 887.342 919.132 1033.55> 452 74<569.05 837.478> 454 58<548.526 707.342 739.132 853.548> 652 74<389.05 657.478> 654 58<368.526 527.342 559.132 673.548>
LayerCount: 2
Fore
SplineSet
720.52 298 m 0x10
 720.52 304 728.52 308 740.52 312 c 0x10
 768.52 320 822.52 324 890.52 326 c 0
 900.52 326 908.52 326 916.52 326 c 0
 972.52 326 1012.52 322 1036.52 318 c 1
 1036.52 314 1036.52 308 1036.52 304 c 0
 1036.52 284 1030.52 270 1018.52 264 c 0
 996.52 254 960.52 252 906.52 252 c 0x20
 852.52 252 800.52 252 746.52 254 c 1
 734.52 270 726.52 286 722.52 294 c 0
 722.52 296 720.52 296 720.52 298 c 0x10
900.52 98 m 0
 900.52 104 908.52 108 920.52 112 c 0x40
 948.52 120 1002.52 124 1070.52 126 c 0
 1080.52 126 1088.52 126 1096.52 126 c 0
 1152.52 126 1192.52 122 1216.52 118 c 1
 1216.52 114 1216.52 108 1216.52 104 c 0
 1216.52 84 1210.52 70 1198.52 64 c 0
 1176.52 54 1140.52 52 1086.52 52 c 0x80
 1032.52 52 980.52 52 926.52 54 c 1x40
 914.52 70 906.52 86 902.52 94 c 0
 902.52 96 900.52 96 900.52 98 c 0
540.52 498 m 0
 540.52 504 548.52 508 560.52 512 c 0x04
 588.52 520 642.52 524 710.52 526 c 0
 720.52 526 728.52 526 736.52 526 c 0
 792.52 526 832.52 522 856.52 518 c 1
 856.52 514 856.52 508 856.52 504 c 0
 856.52 484 850.52 470 838.52 464 c 0
 816.52 454 780.52 452 726.52 452 c 0x08
 672.52 452 620.52 452 566.52 454 c 1x04
 554.52 470 546.52 486 542.52 494 c 0
 542.52 496 540.52 496 540.52 498 c 0
360.52 698 m 0
 360.52 704 368.52 708 380.52 712 c 0x01
 408.52 720 462.52 724 530.52 726 c 0
 540.52 726 548.52 726 556.52 726 c 0
 612.52 726 652.52 722 676.52 718 c 1
 676.52 714 676.52 708 676.52 704 c 0
 676.52 684 670.52 670 658.52 664 c 0
 636.52 654 600.52 652 546.52 652 c 0x02
 492.52 652 440.52 652 386.52 654 c 1x01
 374.52 670 366.52 686 362.52 694 c 0
 362.52 696 360.52 696 360.52 698 c 0
20.5195 532 m 1
 20.5195 534 l 1
 24.5195 556 52.5195 596 98.5195 652 c 0
 166.52 738 156.52 722 198.52 778 c 0
 228.52 818 262.52 858 278.52 882 c 0
 294.52 906 312.52 928 330.52 952 c 0
 348.52 976 350.52 978 370.52 994 c 0
 388.5 1008.38 400.014 1016.3 412.328 1016.3 c 0
 413.712 1016.3 415.106 1016.2 416.52 1016 c 2
 418.52 1016 l 1
 430.52 1014 436.52 1004 434.52 992 c 0
 432.52 986 432.52 984 424.52 972 c 0
 410.52 954 404.52 944 382.52 912 c 1
 346.52 870 350.52 864 266.52 766 c 0
 182.52 668 182.52 666 136.52 610 c 1
 102.52 572 80.5195 544 54.5195 524 c 0
 40.5195 514 34.5195 510 28.5195 512 c 0x06
 22.5195 514 18.5195 520 20.5195 532 c 1
EndSplineSet
EndChar

StartChar: ds
Encoding: 58462 58462 105
Width: 394
VWidth: 646
Flags: HW
HStem: 524 88<33.0624 105.713 233.062 305.712>
VStem: 114 60<437.26 531> 314 60<437.26 531>
LayerCount: 2
Fore
SplineSet
220 340 m 0
 220 344 222 350 228 356 c 0
 238 368 258 392 286 424 c 0
 304 444 314 464 314 480 c 0
 314 488 310 496 306 504 c 0
 300 514 286 520 264 524 c 0
 242 528 232 532 230 540 c 0
 226 558 234 574 246 590 c 0
 256 604 272 612 288 612 c 0
 292 612 294 610 298 610 c 0
 332 602 356 584 366 562 c 0
 372 550 374 538 374 524 c 0
 374 512 372 500 368 486 c 0
 360 458 342 430 316 402 c 0
 290 374 262 354 234 334 c 0
 232 332 232 332 230 332 c 2
 222 336 l 2
 220 338 220 338 220 340 c 0
20 340 m 0
 20 344 22 350 28 356 c 0
 38 368 58 392 86 424 c 0
 104 444 114 464 114 480 c 0
 114 488 110 496 106 504 c 0
 100 514 86 520 64 524 c 0
 42 528 32 532 30 540 c 0
 26 558 34 574 46 590 c 0
 56 604 72 612 88 612 c 0
 92 612 94 610 98 610 c 0
 132 602 156 584 166 562 c 0
 172 550 174 538 174 524 c 0
 174 512 172 500 168 486 c 0
 160 458 142 430 116 402 c 0
 90 374 62 354 34 334 c 0
 32 332 32 332 30 332 c 2
 22 336 l 2
 20 338 20 338 20 340 c 0
EndSplineSet
EndChar

StartChar: dsN
Encoding: 58464 58464 106
Width: 408
VWidth: 654
Flags: HW
HStem: 320 40<272 383.62> 524 88<33.0624 105.713 233.274 307.804>
VStem: 114 60<437.26 531>
LayerCount: 2
Fore
SplineSet
220 338 m 0
 220 342 224 350 228 356 c 0
 232 360 232 358 240 366 c 0
 248 374 248 374 256 384 c 0
 268 396 276 412 284 424 c 0
 296 438 304 454 308 468 c 0
 312 482 316 492 308 504 c 1
 304 514 288 520 264 524 c 0
 244 528 232 532 228 540 c 1
 224 558 236 574 248 590 c 1
 256 604 272 612 288 612 c 0
 292 612 296 610 300 610 c 0
 332 602 356 584 368 562 c 1
 372 550 376 538 376 524 c 0
 376 512 372 500 368 486 c 0
 364 464 352 440 332 418 c 1
 316 396 292 378 272 360 c 1
 292 362 316 360 336 362 c 0
 360 364 376 362 384 354 c 0
 386 350 388 348 388 344 c 0
 388 338 382 334 376 328 c 1
 364 322 344 320 316 320 c 0
 304 320 296 320 284 320 c 0
 260 320 240 324 228 328 c 0
 224 330 220 334 220 338 c 0
20 340 m 0
 20 344 22 350 28 356 c 0
 38 368 58 392 86 424 c 0
 104 444 114 464 114 480 c 0
 114 488 110 496 106 504 c 0
 100 514 86 520 64 524 c 0
 42 528 32 532 30 540 c 0
 26 558 34 574 46 590 c 0
 56 604 72 612 88 612 c 0
 92 612 94 610 98 610 c 0
 132 602 156 584 166 562 c 0
 172 550 174 538 174 524 c 0
 174 512 172 500 168 486 c 0
 160 458 142 430 116 402 c 0
 90 374 62 354 34 334 c 0
 32 332 32 332 30 332 c 2
 22 336 l 2
 20 338 20 338 20 340 c 0
EndSplineSet
EndChar

StartChar: dsB
Encoding: 58465 58465 107
Width: 412
VWidth: 646
Flags: HW
HStem: 519 96<34.2512 105.963 243.032 323.87>
VStem: 114.25 60<438.26 532> 331.518 59.5606<408.538 514.138>
LayerCount: 2
Fore
SplineSet
80.25 129 m 0
 80.25 133 92.25 141 110.25 161 c 1
 140.25 189 136.25 191 164.25 219 c 0
 174.25 229 188.25 251 212.25 277 c 0
 236.25 303 256.25 331 276.25 363 c 0
 296.25 395 310.25 421 322.25 449 c 0
 328.524 463.638 331.518 476.636 331.518 487.136 c 0
 331.518 496.722 329.022 504.228 324.25 509 c 0
 316.25 517 300.25 519 278.25 519 c 0
 256.25 519 244.25 521 240.25 529 c 0
 232.25 547 240.25 567 250.25 587 c 0
 260.25 603 270.25 613 286.25 615 c 0
 290.25 615 294.25 615 298.25 615 c 0
 334.25 613 360.25 599 374.25 575 c 0
 382.25 565 386.25 553 388.25 539 c 0
 389.664 529.1 391.078 520.204 391.078 510.888 c 0
 391.078 507.032 390.836 503.1 390.25 499 c 0
 386.25 445 354.25 383 292.25 307 c 0
 230.25 231 174.25 177 124.25 145 c 0
 120.25 143 114.25 137 102.25 131 c 0
 96.25 127 92.25 127 88.25 127 c 0
 84.25 127 80.25 127 80.25 129 c 0
20.25 341 m 0
 20.25 345 22.25 351 28.25 357 c 0
 38.25 369 58.25 393 86.25 425 c 0
 104.25 445 114.25 465 114.25 481 c 0
 114.25 489 110.25 497 106.25 505 c 0
 100.25 515 86.25 521 64.25 525 c 0
 42.25 529 32.25 533 30.25 541 c 0
 26.25 559 34.25 575 46.25 591 c 0
 56.25 605 72.25 613 88.25 613 c 0
 92.25 613 94.25 611 98.25 611 c 0
 132.25 603 156.25 585 166.25 563 c 0
 172.25 551 174.25 539 174.25 525 c 0
 174.25 513 172.25 501 168.25 487 c 0
 160.25 459 142.25 431 116.25 403 c 0
 90.25 375 62.25 355 34.25 335 c 0
 32.25 333 32.25 333 30.25 333 c 2
 22.25 337 l 2
 20.25 339 20.25 339 20.25 341 c 0
EndSplineSet
EndChar

StartChar: taB
Encoding: 58466 58466 108
Width: 376
VWidth: 578
Flags: HW
HStem: 0 52<94.189 172.6>
VStem: 20 54<54.1904 155.762>
LayerCount: 2
Fore
SplineSet
20 48 m 2
 20 48 20 48 20 50 c 0
 22 72 22 94 30 116 c 0
 38 140 38 140 46 162 c 2
 58 188 l 2
 68 210 80 208 92 190 c 0
 104 172 104 154 94 134 c 0
 84 114 78 94 74 80 c 0
 70 66 74 58 94 54 c 0
 98 54 104 52 108 52 c 0
 134 52 162 66 192 94 c 0
 228 128 262 162 290 198 c 1
 310 218 312 232 336 254 c 0
 340 258 344 262 348 262 c 0
 354 262 356 256 356 248 c 0
 356 244 356 236 354 230 c 0
 334 158 264 76 200 34 c 0
 168 12 136 0 104 0 c 1
 74 4 l 1
 40 12 20 26 20 48 c 2
EndSplineSet
EndChar

StartChar: suv1
Encoding: 58467 58467 109
Width: 396
VWidth: 688
Flags: HW
HStem: 116 74<86 312>
VStem: 20 66<70.2798 117.5 182.152 249.812> 24 56<64.1918 85.7202 86.5624 117.533 182.156 249.812> 312 64<74.189 119.805> 312 48<90.2798 120 188 237.438 238.556 259.808>
LayerCount: 2
Fore
SplineSet
20 234 m 0xc0
 20 240 22 246 24 250 c 0
 28 254 34 258 44 262 c 0
 50 264 52 264 56 264 c 0
 62 264 66 260 72 254 c 1
 76 246 76 236 80 224 c 0xa0
 84 210 84 200 86 192 c 1
 86 182 l 1
 116 186 158 188 208 190 c 0
 218 190 226 190 234 190 c 0
 264 190 290 190 312 188 c 1
 312 198 l 1
 316 210 312 222 316 234 c 0
 320 246 324 256 332 260 c 0
 336 262 340 262 344 262 c 0
 352 262 360 260 372 254 c 1
 374 248 374 244 374 238 c 0
 374 226 370 214 368 202 c 0
 364 186 358 168 360 150 c 0xc8
 362 132 366 118 372 106 c 0
 374 100 376 96 376 90 c 0x90
 376 84 374 78 372 74 c 0
 368 70 362 66 352 62 c 0
 346 60 344 60 340 60 c 0
 334 60 330 64 324 70 c 1
 320 78 320 88 316 100 c 0
 314 108 312 114 312 120 c 1
 290 116 262 116 224 116 c 0
 176 116 130 118 82 118 c 1
 82 108 84 100 80 90 c 0
 76 78 72 68 64 64 c 0
 60 62 56 62 52 62 c 0
 44 62 36 64 24 70 c 1
 22 76 22 80 22 86 c 0
 22 98 26 110 28 122 c 0
 32 138 38 156 36 174 c 0
 34 192 30 206 24 218 c 0xa8
 22 224 20 228 20 234 c 0xc0
EndSplineSet
EndChar

StartChar: gr
Encoding: 58468 58468 110
Width: 290
VWidth: 586
Flags: HW
HStem: -26 238
VStem: 20 250
LayerCount: 2
Fore
SplineSet
20 162 m 1
 22 182 26 198 30 206 c 0
 32 210 38 212 42 212 c 0
 46 212 52 210 58 206 c 0
 84 192 124 158 174 110 c 0
 224 62 254 24 270 2 c 1
 256 -16 240 -26 228 -26 c 0
 224 -26 224 -26 220 -24 c 0
 198 -14 168 6 132 46 c 0
 96 86 56 122 20 162 c 1
EndSplineSet
EndChar

StartChar: grN
Encoding: 58470 58470 111
Width: 348
VWidth: 700
Flags: HW
HStem: -28 294
VStem: 20 304
LayerCount: 2
Fore
SplineSet
20 222 m 1
 22 242 26 258 30 266 c 0
 32 270 38 272 42 272 c 0
 46 272 52 270 58 266 c 0
 84 252 124 218 174 170 c 0
 202 142 226 118 242 98 c 1
 244 100 l 1
 252 104 258 110 272 116 c 0
 284 122 292 128 300 130 c 1
 312 130 316 130 324 116 c 0
 328 106 328 98 328 92 c 1
 324 84 316 76 304 72 c 0
 292 68 278 60 264 50 c 0
 250 40 240 24 230 10 c 0
 220 -4 212 -18 194 -28 c 1
 174 -20 166 -10 164 -2 c 0
 162 6 166 16 172 28 c 0
 178 38 188 42 194 50 c 1
 176 62 156 80 132 106 c 0
 96 146 56 182 20 222 c 1
EndSplineSet
EndChar

